SplineFontDB: 3.2
FontName: ComicShanns-Regular
FullName: ComicShannsRegular
FamilyName: Comic Shanns
Weight: Normal
Copyright: 
Version: 0.0
ItalicAngle: 0
UnderlinePosition: 0
UnderlineWidth: 0
Ascent: 750
Descent: 250
InvalidEm: 0
sfntRevision: 0x00000000
LayerCount: 2
Layer: 0 0 "Back" 1
Layer: 1 0 "Fore" 0
XUID: [1021 335 308602569 15355442]
StyleMap: 0x0040
FSType: 4
OS2Version: 3
OS2_WeightWidthSlopeOnly: 0
OS2_UseTypoMetrics: 0
CreationTime: 1608751085
ModificationTime: 1647208640
PfmFamily: 81
TTFWeight: 400
TTFWidth: 5
LineGap: 200
VLineGap: 0
Panose: 0 0 0 0 0 0 0 0 0 0
OS2TypoAscent: 750
OS2TypoAOffset: 0
OS2TypoDescent: -250
OS2TypoDOffset: 0
OS2TypoLinegap: 200
OS2WinAscent: 1167
OS2WinAOffset: 0
OS2WinDescent: 564
OS2WinDOffset: 0
HheadAscent: 750
HheadAOffset: 0
HheadDescent: -250
HheadDOffset: 0
OS2SubXSize: 650
OS2SubYSize: 600
OS2SubXOff: 0
OS2SubYOff: 75
OS2SupXSize: 650
OS2SupYSize: 600
OS2SupXOff: 0
OS2SupYOff: 350
OS2StrikeYSize: 0
OS2StrikeYPos: 270
OS2CapHeight: 650
OS2XHeight: 450
OS2Vendor: 'NONE'
OS2CodePages: 20000093.00000000
OS2UnicodeRanges: 00000007.00000000.00000000.00000000
DEI: 91125

StartChar: .notdef
Encoding: 65536 -1 0
Width: 500
GlyphClass: 1
Flags: MW
HStem: -250 50<100 400 100 450> 650 50<100 400 100 100>
VStem: 50 50<-200 -200 -200 650> 400 50<-200 650 650 650>
LayerCount: 2
Fore
SplineSet
50 -250 m 1
 50 700 l 1
 450 700 l 1
 450 -250 l 1
 50 -250 l 1
100 -200 m 1
 400 -200 l 1
 400 650 l 1
 100 650 l 1
 100 -200 l 1
EndSplineSet
Validated: 1
EndChar

StartChar: exclam
Encoding: 33 33 2
Width: 550
GlyphClass: 2
Flags: MW
HStem: -23 144<278 278> -23 761
VStem: 200 152<31.5 69.5> 238 92
LayerCount: 2
Fore
SplineSet
330 690 m 0x50
 330 634 321 502 324 380 c 0
 327 253 321 326 323 253 c 0
 320 225 298 209 273 210 c 0
 250 210 229 226 232 258 c 0
 236 308 243 281 238 435 c 0
 234 539 239 635 240 687 c 0
 241 723 263 738 286 738 c 0
 311 739 330 726 330 690 c 0x50
278 -23 m 0xa0
 230 -28 200 11 200 50 c 0
 200 89 239 119 278 121 c 0
 323 123 352 90 352 51 c 0
 352 12 323 -18 278 -23 c 0xa0
EndSplineSet
Validated: 33
EndChar

StartChar: quotedbl
Encoding: 34 34 3
Width: 550
GlyphClass: 2
Flags: MW
HStem: 407 325
VStem: 150 92 300 92
LayerCount: 2
Fore
SplineSet
249 690 m 0
 250 650 248 493 242 444 c 0
 238 417 215 406 197 407 c 0
 176 408 148 421 151 450 c 0
 156 493 152 651 150 695 c 0
 148 728 182 733 202 732 c 0
 222 732 248 724 249 690 c 0
399 690 m 0
 400 650 398 493 392 444 c 0
 388 417 365 406 347 407 c 0
 326 408 298 421 301 450 c 0
 306 493 302 651 300 695 c 0
 298 728 332 733 352 732 c 0
 372 732 398 724 399 690 c 0
EndSplineSet
Validated: 33
EndChar

StartChar: numbersign
Encoding: 35 35 4
Width: 550
GlyphClass: 2
Flags: MW
HStem: 177 77 179 78<308 311> 180 76<420 458 420 458 406 458> 415 78<145.5 168> 416 79<247 368 262 354>
VStem: 29 497<201 457> 195 92
LayerCount: 2
Fore
SplineSet
75 252 m 0x8c
 89 253 105 253 121 254 c 1
 131 305 142 361 153 415 c 1
 138 415 125 414 114 414 c 0
 81 413 66 431 66 451 c 0
 65 471 79 491 113 492 c 0
 131 493 150 493 168 493 c 1x92
 179 552 189 604 195 638 c 0
 205 672 230 681 251 676 c 0
 276 671 294 652 287 618 c 0
 281 589 272 546 262 495 c 1
 368 495 l 1
 378 551 387 599 393 631 c 0
 403 666 428 675 450 669 c 0
 475 664 494 646 485 611 c 0
 478 584 470 543 462 496 c 1
 473 496 l 2
 505 496 525 475 526 457 c 0
 526 437 514 417 481 416 c 2
 447 416 l 1
 438 364 429 309 420 256 c 1
 458 256 l 2
 490 256 497 239 498 221 c 0
 498 201 491 180 458 180 c 2
 406 180 l 1x2a
 396 123 387 72 379 35 c 1
 369 8 339 -7 315 0 c 0
 292 5 278 32 287 64 c 0
 292 84 301 126 311 179 c 1
 274 179 235 178 200 178 c 1x4c
 189 124 179 75 171 39 c 0
 162 13 130 -8 106 0 c 0
 83 5 69 35 79 68 c 0
 85 89 94 128 105 177 c 1
 77 177 l 2
 44 177 29 191 29 211 c 0
 28 231 40 250 75 252 c 0x8c
247 416 m 1x4c
 237 364 226 309 215 256 c 1
 253 257 291 257 325 257 c 1
 335 308 345 363 354 416 c 1
 247 416 l 1x4c
EndSplineSet
Validated: 33
EndChar

StartChar: dollar
Encoding: 36 36 5
Width: 550
GlyphClass: 2
Flags: MW
HStem: -7 79<192 252 242 251> 581 74<327 327>
VStem: 71 87<460.5 498> 251 70<-7 -7> 254 69 255 69 256 72<695.5 702> 425 87<169 216>
LayerCount: 2
Fore
SplineSet
63 88 m 0xe9
 46 121 55 143 75 153 c 0
 100 164 116 168 139 134 c 0
 160 102 189 72 242 72 c 2
 252 72 l 1
 253 145 254 238 254 329 c 1xe9
 241 331 227 333 212 335 c 0
 120 345 71 404 71 453 c 0
 71 543 127 628 255 650 c 1
 256 671 256 689 256 702 c 0
 257 738 268 753 286 753 c 0
 311 754 328 741 328 705 c 2
 328 655 l 1xe3
 358 653 419 638 441 630 c 0
 466 621 475 599 472 579 c 0
 468 548 435 552 416 557 c 0
 391 563 379 579 327 581 c 1
 326 529 325 468 324 403 c 1xe5
 473 383 512 290 512 210 c 0
 512 102 428 28 321 2 c 1
 321 -28 321 -54 322 -72 c 0
 319 -100 298 -116 273 -115 c 0
 256 -115 245 -99 248 -67 c 0
 249 -56 250 -35 251 -7 c 1
 238 -7 l 2xf1
 146 -7 87 42 63 88 c 0xe9
158 476 m 0
 158 445 194 419 254 410 c 1
 255 469 255 526 255 574 c 1xe5
 199 560 158 526 158 476 c 0
425 194 m 0
 425 238 409 284 323 313 c 1
 322 234 322 154 321 87 c 1
 376 106 425 144 425 194 c 0
EndSplineSet
Validated: 33
EndChar

StartChar: percent
Encoding: 37 37 6
Width: 550
GlyphClass: 2
Flags: MW
HStem: -26 71 160 69<388 419> 404 70 591 68<137.5 169>
VStem: 37 67 205 65 287 68 454 66
LayerCount: 2
Fore
SplineSet
145 404 m 0
 77 405 36 464 37 527 c 0
 37 601 79 659 160 659 c 0
 220 659 277 621 270 520 c 0
 266 447 231 403 145 404 c 0
60 18 m 0
 110 120 340 503 399 633 c 1
 414 656 440 661 462 649 c 0
 483 639 488 619 471 592 c 0
 427 520 192 100 133 -15 c 0
 116 -47 97 -54 76 -44 c 0
 53 -33 44 -14 60 18 c 0
155 474 m 0
 188 473 202 498 205 529 c 0
 206 573 185 591 153 591 c 0
 122 591 107 566 104 530 c 0
 103 498 112 477 155 474 c 0
395 -26 m 0
 327 -25 286 34 287 97 c 0
 287 171 329 229 410 229 c 0
 470 229 527 191 520 90 c 0
 516 17 481 -27 395 -26 c 0
405 45 m 0
 437 44 452 69 454 99 c 0
 455 143 435 160 403 160 c 0
 373 160 357 135 355 100 c 0
 354 69 363 47 405 45 c 0
EndSplineSet
Validated: 33
EndChar

StartChar: ampersand
Encoding: 38 38 7
Width: 550
GlyphClass: 2
Flags: MW
HStem: -39 88<196 261 196 270> -38 348 603 74<237 280.5>
VStem: 35 93<130.5 196.5 130.5 212> 116 89<518.5 548 518.5 576.5> 335 78<501 557>
LayerCount: 2
Fore
SplineSet
488 -33 m 0x6c
 465 -47 433 -30 413 5 c 0x74
 408 15 397 47 388 66 c 1
 357 27 317 -39 223 -39 c 0
 116 -39 35 51 35 154 c 0xb4
 35 270 84 352 181 395 c 1
 134 472 116 485 116 551 c 0
 116 602 151 677 265 677 c 0
 337 677 413 632 413 541 c 0
 413 437 345 393 289 365 c 1
 319 313 370 249 398 204 c 1
 414 237 426 267 433 278 c 0
 456 312 473 316 498 305 c 0
 518 295 526 265 509 232 c 0
 499 213 472 187 442 141 c 1
 461 111 483 69 494 51 c 0
 513 21 506 -23 488 -33 c 0x6c
205 535 m 0
 205 502 226 460 248 434 c 1
 299 450 335 470 335 532 c 0
 335 582 298 603 263 603 c 0
 211 603 205 561 205 535 c 0
128 163 m 0xb4
 128 98 168 49 224 49 c 0
 298 49 325 98 347 128 c 1
 337 150 329 167 319 185 c 0
 298 225 260 271 225 327 c 1
 148 292 128 230 128 163 c 0xb4
EndSplineSet
Validated: 33
EndChar

StartChar: quotesingle
Encoding: 39 39 8
Width: 550
GlyphClass: 2
Flags: MW
HStem: 417 305
VStem: 230 92
LayerCount: 2
Fore
SplineSet
329 680 m 0
 330 640 328 503 322 454 c 0
 318 427 295 416 277 417 c 0
 256 418 228 431 231 460 c 0
 236 503 232 641 230 685 c 0
 228 718 262 723 282 722 c 0
 302 722 328 714 329 680 c 0
EndSplineSet
Validated: 33
EndChar

StartChar: parenleft
Encoding: 40 40 9
Width: 550
GlyphClass: 2
Flags: MW
HStem: -123 79<356.5 394> 685 76<352 394.5 343 395>
VStem: 145 94 148 91
LayerCount: 2
Fore
SplineSet
386 -123 m 0xe0
 259 -123 168 23 148 230 c 0
 140 308 148 485 187 588 c 0xd0
 218 668 299 761 387 761 c 0
 402 761 425 756 425 723 c 0
 425 694 405 685 385 685 c 0
 319 685 276 602 256 517 c 0
 240 450 233 314 239 245 c 0
 252 89 327 -44 386 -44 c 0
 408 -44 424 -52 424 -87 c 0
 424 -109 402 -123 386 -123 c 0xe0
EndSplineSet
Validated: 33
EndChar

StartChar: parenright
Encoding: 41 41 10
Width: 550
GlyphClass: 2
Flags: MW
HStem: -123 79<161 198.5 158 232.5> 685 76<160.5 203>
VStem: 316 94
LayerCount: 2
Fore
SplineSet
169 -123 m 0
 153 -123 131 -109 131 -87 c 0
 131 -52 147 -44 169 -44 c 0
 228 -44 303 89 316 245 c 0
 322 314 315 450 299 517 c 0
 279 602 236 685 170 685 c 0
 150 685 130 694 130 723 c 0
 130 756 153 761 168 761 c 0
 256 761 337 668 368 588 c 0
 407 485 415 308 407 230 c 0
 387 23 296 -123 169 -123 c 0
EndSplineSet
Validated: 33
EndChar

StartChar: asterisk
Encoding: 42 42 11
Width: 550
GlyphClass: 2
Flags: MW
HStem: 106 256 106 436 274 88 286 72<344 344> 286 254
VStem: 135 281 137 281
LayerCount: 2
Fore
SplineSet
141 177 m 0x84
 150 192 174 231 203 279 c 1
 157 276 116 274 90 274 c 0x24
 57 274 42 301 42 321 c 0
 41 341 52 374 87 371 c 0
 125 368 169 365 214 362 c 1x22
 189 404 165 442 148 466 c 0
 129 494 136 527 154 536 c 0
 171 547 207 544 222 512 c 0x42
 237 480 257 443 277 405 c 1
 299 443 319 480 333 511 c 0
 348 543 380 545 397 534 c 0
 415 525 428 495 409 467 c 0x0a
 392 442 368 403 343 358 c 1
 393 358 435 361 459 368 c 0x12
 490 377 510 349 511 331 c 0
 511 311 502 276 469 282 c 0
 442 287 396 287 344 286 c 1x14
 373 236 397 195 407 178 c 0
 422 150 416 125 401 116 c 0
 384 106 340 105 330 136 c 0
 321 164 303 202 281 244 c 1
 257 197 236 155 227 130 c 0
 216 99 174 104 157 114 c 0
 142 123 126 148 141 177 c 0x84
EndSplineSet
Validated: 33
EndChar

StartChar: plus
Encoding: 43 43 12
Width: 550
GlyphClass: 2
Flags: MW
HStem: 231 82 234 79<316 316>
VStem: 237 80<74 85 58 233 313 340.5>
LayerCount: 2
Fore
SplineSet
98 316 m 0x60
 139 315 188 314 237 313 c 1
 237 375 237 432 235 463 c 0
 233 496 257 503 277 503 c 0
 297 504 322 498 320 464 c 0
 318 422 317 368 317 313 c 1
 462 313 l 2
 494 313 501 294 502 276 c 0
 502 256 495 230 462 233 c 0
 443 235 383 235 316 234 c 1x60
 316 160 317 96 317 74 c 0
 317 42 298 35 280 34 c 0
 260 34 237 41 237 74 c 2
 237 233 l 1
 181 232 129 231 99 231 c 0
 66 231 53 253 53 273 c 0xa0
 52 293 64 317 98 316 c 0x60
EndSplineSet
Validated: 33
EndChar

StartChar: comma
Encoding: 44 44 13
Width: 550
GlyphClass: 2
Flags: MW
HStem: -202 343
VStem: 158 192
LayerCount: 2
Fore
SplineSet
349 90 m 0
 339 41 286 -136 261 -169 c 0
 240 -197 204 -207 185 -200 c 0
 166 -195 147 -170 165 -143 c 0
 193 -102 252 70 261 113 c 0
 267 141 298 145 318 139 c 0
 335 134 354 117 349 90 c 0
EndSplineSet
Validated: 33
EndChar

StartChar: hyphen
Encoding: 45 45 14
Width: 550
GlyphClass: 2
Flags: MW
HStem: 227 81<153.5 199.5>
VStem: 130 289<266 267>
LayerCount: 2
Fore
SplineSet
169 308 m 0
 260 308 345 311 379 311 c 0
 411 311 418 294 419 276 c 0
 419 256 412 235 379 235 c 0
 348 235 229 227 170 227 c 0
 137 227 130 247 130 267 c 0
 129 287 135 308 169 308 c 0
EndSplineSet
Validated: 33
EndChar

StartChar: period
Encoding: 46 46 15
Width: 550
GlyphClass: 2
Flags: MW
HStem: -13 144<278 278>
VStem: 200 152<41.5 79.5>
LayerCount: 2
Fore
SplineSet
278 -13 m 0
 230 -18 200 21 200 60 c 0
 200 99 239 129 278 131 c 0
 323 133 352 100 352 61 c 0
 352 22 323 -8 278 -13 c 0
EndSplineSet
Validated: 33
EndChar

StartChar: slash
Encoding: 47 47 16
Width: 550
GlyphClass: 2
Flags: MW
HStem: -57 761
VStem: 39 467
LayerCount: 2
Fore
SplineSet
498 632 m 0
 451 540 275 261 225 166 c 0
 194 107 151 14 134 -16 c 0
 114 -51 79 -66 56 -52 c 0
 38 -42 31 2 50 32 c 0
 89 96 196 273 284 431 c 0
 341 531 389 626 413 674 c 0
 429 705 461 710 483 699 c 0
 504 688 514 663 498 632 c 0
EndSplineSet
Validated: 33
EndChar

StartChar: zero
Encoding: 48 48 17
Width: 550
GlyphClass: 2
Flags: MW
HStem: -23 79<261 293 238.5 321> 595 76<250 304.5>
VStem: 62 87 412 85 412 89
LayerCount: 2
Fore
SplineSet
261 -23 m 0xe8
 144 -21 60 62 62 200 c 0
 62 281 54 447 93 550 c 0
 124 630 199 671 300 671 c 0
 399 671 485 604 497 462 c 0
 504 374 504 211 486 144 c 0xf0
 446 -4 381 -23 261 -23 c 0xe8
153 215 m 0
 153 207 154 200 154 193 c 1
 238 308 313 425 380 545 c 1
 358 577 324 595 285 595 c 0
 215 595 180 558 160 473 c 0
 144 406 150 287 153 215 c 0
261 56 m 0
 325 56 373 74 398 157 c 0
 404 177 419 344 409 459 c 1
 342 322 263 207 172 114 c 1
 188 78 216 56 261 56 c 0
EndSplineSet
Validated: 33
EndChar

StartChar: one
Encoding: 49 49 18
Width: 550
GlyphClass: 2
Flags: MW
HStem: -5 76 -5 84<78 115 78 133.5>
VStem: 248 77
LayerCount: 2
Fore
SplineSet
94 79 m 0x60
 136 79 187 78 238 77 c 1
 238 95 238 114 237 138 c 0x60
 234 223 242 393 248 550 c 1
 219 526 177 492 147 480 c 0
 121 470 90 502 91 523 c 0
 91 542 99 557 122 574 c 0
 213 644 243 683 274 683 c 0
 302 683 336 652 336 637 c 0
 335 586 325 372 325 331 c 0
 325 262 325 238 326 175 c 0
 326 136 327 107 328 74 c 1
 392 73 444 71 461 71 c 0
 499 71 507 53 508 35 c 0xa0
 509 14 500 -8 459 -8 c 0
 424 -8 174 -5 93 -5 c 0
 63 -5 53 15 53 35 c 0
 52 57 62 79 94 79 c 0x60
EndSplineSet
Validated: 33
EndChar

StartChar: two
Encoding: 50 50 19
Width: 550
GlyphClass: 2
Flags: MW
HStem: -11 73 -11 76 596 79<253.5 313.5>
VStem: 59 94 389 93<460.5 537.5>
LayerCount: 2
Fore
SplineSet
83 570 m 0xb8
 107 616 184 675 276 675 c 0
 409 675 482 614 482 488 c 0
 482 363 414 327 274 252 c 0
 190 207 157 137 153 65 c 1
 302 56 381 68 439 71 c 0x78
 458 72 491 78 495 47 c 0
 498 27 490 -11 464 -11 c 0
 341 -11 176 -24 97 -15 c 0
 69 -12 59 21 59 78 c 0
 59 158 114 261 206 313 c 0
 355 397 389 417 389 504 c 0
 389 571 347 596 280 596 c 0
 227 596 180 556 159 524 c 0
 136 490 120 494 95 505 c 0
 75 515 66 537 83 570 c 0xb8
EndSplineSet
Validated: 33
EndChar

StartChar: three
Encoding: 51 51 20
Width: 550
GlyphClass: 2
Flags: MW
HStem: -23 79<253.5 317 253.5 348> 297 94<215 272 207 295.5> 596 79<243.5 307>
VStem: 387 93 408 93<136.5 209>
LayerCount: 2
Fore
SplineSet
501 186 m 0xe8
 501 60 420 -23 276 -23 c 0
 184 -23 107 36 83 82 c 0
 68 111 75 137 95 147 c 0
 120 158 139 155 159 128 c 0
 182 96 227 56 280 56 c 0
 354 56 408 103 408 170 c 0xe8
 408 248 363 297 228 297 c 0
 202 297 181 322 181 347 c 0
 181 371 193 391 221 391 c 0
 323 391 389 432 387 513 c 0
 389 571 344 596 270 596 c 0
 217 596 197 566 175 535 c 0
 154 506 136 505 111 516 c 0
 91 526 84 551 99 581 c 0
 122 627 174 675 266 675 c 0
 410 675 482 614 480 497 c 0xf0
 482 405 414 368 349 355 c 1
 447 334 501 294 501 186 c 0xe8
EndSplineSet
Validated: 33
EndChar

StartChar: four
Encoding: 52 52 21
Width: 550
GlyphClass: 2
Flags: MW
HStem: 206 76<464.5 484 464.5 484.5> 209 75<350 350>
VStem: 350 66 350 82<284 284> 350 83
LayerCount: 2
Fore
SplineSet
402 -22 m 0x50
 379 -22 351 1 350 20 c 0
 349 45 350 117 350 209 c 1x50
 270 210 170 209 114 197 c 0
 63 186 44 244 58 283 c 0
 79 342 222 521 306 642 c 0
 323 666 345 678 363 678 c 0x60
 384 680 411 672 416 642 c 0
 428 572 430 417 432 283 c 1
 448 282 461 282 468 282 c 0
 500 282 507 265 508 247 c 0
 508 227 501 206 468 206 c 0x90
 461 206 449 206 433 207 c 1
 434 130 435 69 439 51 c 0x88
 447 11 430 -22 402 -22 c 0x50
343 563 m 1
 281 482 200 373 155 281 c 1
 214 285 288 285 350 284 c 1
 350 374 349 474 343 563 c 1
EndSplineSet
Validated: 33
EndChar

StartChar: five
Encoding: 53 53 22
Width: 550
GlyphClass: 2
Flags: MW
HStem: -17 79<229.5 306 229.5 338> 393 83<290 344> 586 76 589 73
VStem: 70 88 412 93<204 302.5>
LayerCount: 2
Fore
SplineSet
69 81 m 0xdc
 52 114 61 136 81 146 c 0
 106 157 122 161 145 127 c 0
 166 95 200 62 259 62 c 0
 353 62 412 142 412 266 c 0
 412 339 381 393 307 393 c 0
 229 393 202 359 171 330 c 0
 157 317 130 306 103 317 c 0
 49 340 77 514 77 578 c 1
 56 610 68 666 105 666 c 0
 185 666 341 662 464 662 c 0
 490 662 498 624 495 604 c 0
 491 573 458 579 439 580 c 0xdc
 380 583 308 595 161 586 c 1xec
 160 543 155 457 158 410 c 1
 190 445 249 476 331 476 c 0
 444 476 505 388 505 277 c 0
 505 89 408 -17 268 -17 c 0
 153 -17 93 35 69 81 c 0xdc
EndSplineSet
Validated: 33
EndChar

StartChar: six
Encoding: 54 54 23
Width: 550
GlyphClass: 2
Flags: MW
HStem: -21 79<282 317.5 282 344.5> 367 83<282 332>
VStem: 56 84 414 91<180.5 279>
LayerCount: 2
Fore
SplineSet
505 230 m 0
 505 89 408 -21 281 -21 c 0
 126 -21 54 103 56 295 c 0
 59 570 186 673 365 689 c 0
 391 691 418 682 421 657 c 0
 423 641 402 620 383 614 c 0
 331 599 269 602 200 522 c 0
 171 488 146 423 140 381 c 1
 180 428 245 450 319 450 c 0
 432 450 505 388 505 230 c 0
295 367 m 0
 229 367 172 328 140 281 c 1
 140 256 141 228 142 215 c 0
 148 149 193 56 282 58 c 0
 353 58 414 142 414 219 c 0
 414 339 369 367 295 367 c 0
EndSplineSet
Validated: 33
EndChar

StartChar: seven
Encoding: 55 55 24
Width: 550
GlyphClass: 2
Flags: MW
HStem: 581 86
VStem: 60 447
LayerCount: 2
Fore
SplineSet
100 658 m 0
 201 677 435 661 462 661 c 0
 485 661 525 638 499 584 c 0
 455 491 328 327 190 24 c 0
 175 -9 148 -26 125 -21 c 0
 99 -15 85 13 99 41 c 0
 243 331 366 483 399 581 c 1
 288 584 145 582 106 572 c 0
 75 564 61 597 60 617 c 0
 60 637 67 652 100 658 c 0
EndSplineSet
Validated: 33
EndChar

StartChar: eight
Encoding: 56 56 25
Width: 550
GlyphClass: 2
Flags: MW
HStem: -26 80 604 67<237 267>
VStem: 46 81<137.5 206.5 137.5 214.5> 71 88<482.5 523> 381 84<478 519.5> 419 87<142.5 198>
LayerCount: 2
Fore
SplineSet
506 191 m 0xe4
 506 94 441 -26 263 -26 c 0
 99 -26 46 88 46 183 c 0xe4
 46 246 99 336 176 362 c 1
 108 394 71 449 71 500 c 0
 71 546 96 671 267 671 c 0
 441 671 465 548 465 496 c 0xd8
 465 434 401 398 363 371 c 1
 483 320 506 242 506 191 c 0xe4
159 503 m 0xd8
 159 462 194 432 282 400 c 1
 333 420 381 462 381 494 c 0
 381 545 331 605 267 604 c 0
 207 604 159 552 159 503 c 0xd8
267 54 m 0xe4
 339 52 419 99 419 176 c 0
 419 220 403 284 278 329 c 1
 186 305 127 239 127 174 c 0
 127 101 199 55 267 54 c 0xe4
EndSplineSet
Validated: 33
EndChar

StartChar: nine
Encoding: 57 57 26
Width: 550
GlyphClass: 2
Flags: MW
HStem: 220 83<233.5 289.5> 612 79<241.5 277>
VStem: 54 91<408 497.5 408 518.5> 420 83
LayerCount: 2
Fore
SplineSet
54 448 m 0
 54 589 151 691 278 691 c 0
 433 691 505 567 503 354 c 0
 500 100 351 -5 172 -21 c 0
 146 -23 119 -14 116 11 c 0
 114 27 135 48 154 54 c 0
 206 69 290 71 354 144 c 0
 386 181 412 234 420 272 c 1
 383 230 326 220 253 220 c 0
 140 220 54 330 54 448 c 0
277 303 m 0
 331 303 388 329 420 373 c 1
 421 403 418 441 417 455 c 0
 411 521 366 614 277 612 c 0
 206 612 145 536 145 459 c 0
 145 357 190 303 277 303 c 0
EndSplineSet
Validated: 33
EndChar

StartChar: colon
Encoding: 58 58 27
Width: 550
GlyphClass: 2
Flags: MW
HStem: 37 145 287 145<280 280>
VStem: 220 118 221 118
LayerCount: 2
Fore
SplineSet
338 390 m 0x60
 340 366 337 346 331 324 c 0
 324 297 298 286 280 287 c 0
 246 289 223 301 220 330 c 0
 217 360 218 370 219 395 c 0
 220 428 261 433 281 432 c 0
 301 432 335 424 338 390 c 0x60
339 140 m 0x90
 343 116 341 95 335 73 c 0
 328 46 295 36 277 37 c 0
 256 38 224 51 221 80 c 0
 218 110 221 120 222 145 c 0
 223 178 262 183 282 182 c 0
 302 182 333 173 339 140 c 0x90
EndSplineSet
Validated: 33
EndChar

StartChar: semicolon
Encoding: 59 59 28
Width: 550
GlyphClass: 2
Flags: MW
HStem: 248 145<291 291>
VStem: 231 118
LayerCount: 2
Fore
SplineSet
349 351 m 0
 351 327 348 307 342 285 c 0
 335 258 309 247 291 248 c 0
 270 249 234 262 231 291 c 0
 228 321 229 331 230 356 c 0
 231 389 272 394 292 393 c 0
 312 393 346 385 349 351 c 0
331 69 m 0
 328 34 276 -153 270 -175 c 0
 263 -202 240 -212 222 -211 c 0
 201 -210 173 -197 176 -168 c 0
 179 -135 212 23 224 74 c 0
 233 113 254 112 274 111 c 0
 294 111 334 102 331 69 c 0
EndSplineSet
Validated: 33
EndChar

StartChar: less
Encoding: 60 60 29
Width: 550
GlyphClass: 2
Flags: MW
HStem: -11 677
VStem: 53 465
LayerCount: 2
Fore
SplineSet
70 295 m 0
 46 313 48 360 71 374 c 0
 206 473 326 591 433 656 c 0
 474 681 500 653 509 633 c 0
 520 612 508 592 465 562 c 0
 374 498 256 401 170 337 c 1
 281 252 384 135 472 78 c 0
 512 52 524 34 515 13 c 0
 506 -5 482 -20 438 -6 c 0
 356 20 186 210 70 295 c 0
EndSplineSet
Validated: 33
EndChar

StartChar: equal
Encoding: 61 61 30
Width: 550
GlyphClass: 2
Flags: MW
HStem: 141 77 328 76<452 452>
VStem: 63 429<176 181 359 363>
LayerCount: 2
Fore
SplineSet
108 404 m 0
 229 400 407 404 452 404 c 0
 484 404 491 387 492 369 c 0
 492 349 485 325 452 328 c 0
 410 332 192 324 113 324 c 0
 80 324 63 343 63 363 c 0
 62 383 74 405 108 404 c 0
111 218 m 0
 234 216 407 221 452 221 c 0
 484 221 491 204 492 186 c 0
 492 166 485 142 452 145 c 0
 410 149 188 141 109 141 c 0
 76 141 63 161 63 181 c 0
 62 201 77 219 111 218 c 0
EndSplineSet
Validated: 33
EndChar

StartChar: greater
Encoding: 62 62 31
Width: 550
GlyphClass: 2
Flags: MW
HStem: -5 677
VStem: 52 465
LayerCount: 2
Fore
SplineSet
500 366 m 0
 524 348 522 301 499 287 c 0
 364 188 244 70 137 5 c 0
 96 -20 70 8 61 28 c 0
 50 49 62 69 105 99 c 0
 196 163 314 260 400 324 c 1
 289 409 186 526 98 583 c 0
 58 609 46 627 55 648 c 0
 64 666 88 681 132 667 c 0
 214 641 384 451 500 366 c 0
EndSplineSet
Validated: 33
EndChar

StartChar: question
Encoding: 63 63 32
Width: 550
GlyphClass: 2
Flags: MW
HStem: -13 144<269 269> 596 79<257 313.5>
VStem: 191 152<41.5 79.5> 389 93<460.5 537.5>
LayerCount: 2
Fore
SplineSet
317 245 m 0
 313 216 297 192 261 201 c 0
 226 210 216 233 226 273 c 0
 258 399 389 417 389 504 c 0
 389 571 347 596 280 596 c 0
 234 596 200 546 179 514 c 0
 156 480 140 484 115 495 c 0
 95 505 86 527 103 560 c 0
 127 606 186 675 276 675 c 0
 409 675 482 614 482 488 c 0
 482 363 336 368 317 245 c 0
269 -13 m 0
 221 -18 191 21 191 60 c 0
 191 99 230 129 269 131 c 0
 314 133 343 100 343 61 c 0
 343 22 314 -8 269 -13 c 0
EndSplineSet
Validated: 33
EndChar

StartChar: at
Encoding: 64 64 33
Width: 550
GlyphClass: 2
Flags: MW
HStem: -121 80<238 269> 95 73<413 435 413 459.5> 95 219 110 75<245.5 284.5 245.5 289.5> 349 79 573 84<246.5 315.5>
VStem: 35 81<136.5 346 136.5 353> 150 72<249.5 300 249.5 323.5> 320 76 320 79 348 48 449 68<262 423.5>
LayerCount: 2
Fore
SplineSet
517 274 m 0xcf50
 517 189 495 95 424 95 c 0xcf30
 373 95 353 128 348 174 c 1x9f30
 336 138 312 110 267 110 c 0
 196 110 150 153 150 250 c 0
 150 397 250 453 340 418 c 0
 368 407 389 386 381 370 c 0
 366 340 335 348 308 355 c 0
 270 365 222 338 222 262 c 0
 222 237 227 185 264 185 c 0x9f90
 305 185 318 215 320 284 c 0xaf90
 321 312 403 330 399 293 c 0
 389 192 402 168 424 168 c 0
 446 168 449 248 449 276 c 0
 449 571 335 573 296 573 c 0
 197 573 116 445 116 247 c 0
 116 26 202 -41 274 -41 c 0
 359 -41 388 -3 412 37 c 0
 425 59 436 76 456 68 c 0
 474 61 487 47 470 5 c 0
 450 -46 411 -123 269 -121 c 0
 137 -121 35 14 35 213 c 0
 35 493 148 657 289 657 c 0
 429 657 517 585 517 274 c 0xcf50
EndSplineSet
Validated: 33
EndChar

StartChar: A
Encoding: 65 65 34
Width: 550
GlyphClass: 2
Flags: MW
HStem: 235 62 235 75
VStem: 33 498
LayerCount: 2
Fore
SplineSet
503 -2 m 0x60
 482 -11 455 -4 439 38 c 0
 429 63 412 140 392 235 c 1
 345 233 254 227 178 215 c 1
 148 132 125 62 117 38 c 0
 104 -4 77 -11 56 -2 c 0
 36 7 27 30 36 69 c 0
 40 89 61 145 90 215 c 1
 79 222 73 232 73 242 c 0
 72 259 92 277 118 285 c 1
 175 418 247 573 295 642 c 0
 312 666 325 678 343 678 c 0
 364 680 388 672 393 642 c 0
 414 515 497 116 523 69 c 0
 542 34 523 7 503 -2 c 0x60
325 563 m 1
 293 514 248 404 208 297 c 1xa0
 276 305 336 309 377 310 c 1
 359 396 341 487 325 563 c 1
EndSplineSet
Validated: 33
EndChar

StartChar: B
Encoding: 66 66 35
Width: 550
GlyphClass: 2
Flags: MW
HStem: -20 85 278 67<201.5 221> 589 74<228.5 258.5>
VStem: 39 91 39 93 370 86 402 93<197 200.5>
LayerCount: 2
Fore
SplineSet
219 -13 m 0x74
 155 -18 114 -25 87 -20 c 1
 84 -20 l 2
 61 -20 40 -4 43 28 c 0
 47 78 45 250 39 405 c 0
 35 509 40 545 41 597 c 0
 42 633 64 648 87 648 c 2
 91 648 l 1
 153 667 222 663 235 663 c 0
 362 663 454 588 456 469 c 0xf4
 457 394 418 342 362 319 c 1
 424 298 495 242 495 197 c 0x72
 497 103 396 3 219 -13 c 0x74
233 589 m 0
 210 589 175 587 135 577 c 1
 134 522 129 451 130 347 c 1
 152 346 178 345 213 345 c 0
 350 345 370 424 370 474 c 0
 370 560 284 589 233 589 c 0
221 278 m 1
 182 278 153 278 132 277 c 1
 134 198 136 121 138 63 c 1
 157 64 181 64 208 65 c 0
 329 69 402 142 402 186 c 0xea
 402 215 352 259 221 278 c 1
EndSplineSet
Validated: 33
EndChar

StartChar: C
Encoding: 67 67 36
Width: 550
GlyphClass: 2
Flags: MW
HStem: -29 84<222 247> 591 76<316.5 370.5 288.5 378>
VStem: 38 93<182.5 323 182.5 334> 423 96<511 557.5>
LayerCount: 2
Fore
SplineSet
359 667 m 0
 382 667 404 664 422 659 c 1
 427 678 444 690 460 692 c 0
 478 695 505 683 511 656 c 0
 522 607 519 568 519 547 c 0
 519 520 495 487 475 485 c 0
 455 482 423 497 423 525 c 0
 423 535 424 548 425 564 c 1
 410 574 390 591 366 591 c 0
 267 591 131 422 131 224 c 0
 131 141 186 55 258 55 c 0
 343 55 405 92 438 118 c 0
 459 133 479 143 498 129 c 0
 515 116 524 94 494 60 c 0
 459 20 389 -31 247 -29 c 0
 115 -29 38 87 38 194 c 0
 38 474 218 667 359 667 c 0
EndSplineSet
Validated: 33
EndChar

StartChar: D
Encoding: 68 68 37
Width: 550
GlyphClass: 2
Flags: MW
HStem: -29 80<315 350 279.5 381>
VStem: 39 92 434 90<197.5 356>
LayerCount: 2
Fore
SplineSet
315 -29 m 0
 179 -31 97 0 84 0 c 0
 61 0 40 16 43 48 c 0
 47 105 45 280 39 455 c 0
 36 535 40 577 41 617 c 0
 42 653 64 668 87 668 c 0
 147 668 524 627 524 216 c 0
 524 109 447 -29 315 -29 c 0
131 325 m 0
 134 238 135 161 138 82 c 1
 191 59 245 51 314 51 c 0
 386 51 434 156 434 239 c 0
 434 473 248 537 130 580 c 1
 128 500 128 424 131 325 c 0
EndSplineSet
Validated: 33
EndChar

StartChar: E
Encoding: 69 69 38
Width: 550
GlyphClass: 2
Flags: MW
HStem: -17 80 310 76<428.5 465 427 465.5> 574 79
VStem: 39 91 39 92
LayerCount: 2
Fore
SplineSet
455 -6 m 0xb0
 413 -2 211 -24 111 -17 c 0
 84 -15 48 13 43 53 c 0
 35 110 45 269 39 435 c 0
 36 524 40 563 41 607 c 0
 42 643 64 658 87 658 c 0
 102 659 116 654 125 642 c 1
 239 658 405 653 464 646 c 0
 496 642 503 629 504 611 c 0
 504 591 497 567 464 570 c 0
 351 579 215 574 134 563 c 1
 132 514 130 452 130 372 c 1xf0
 250 373 405 386 449 386 c 0
 481 386 488 369 489 351 c 0
 489 331 482 310 449 310 c 0
 408 310 215 292 131 291 c 1
 133 204 131 91 140 67 c 1xe8
 167 57 401 69 442 77 c 0
 495 87 503 56 504 38 c 0
 504 18 491 -9 455 -6 c 0xb0
EndSplineSet
Validated: 33
EndChar

StartChar: F
Encoding: 70 70 39
Width: 550
GlyphClass: 2
Flags: MW
HStem: 301 75 301 80 572 80 572 88
VStem: 39 91 39 92
LayerCount: 2
Fore
SplineSet
139 23 m 0x54
 136 -5 109 -21 84 -20 c 0x54
 61 -20 40 -4 43 28 c 0
 47 81 45 262 39 425 c 0
 35 529 40 565 41 617 c 0
 42 653 64 668 87 668 c 0
 102 669 117 664 126 652 c 1
 247 661 386 663 464 656 c 0
 496 653 503 639 504 621 c 0x68
 504 601 493 578 460 579 c 0
 351 584 235 580 134 572 c 1
 133 521 129 461 130 376 c 1
 230 388 378 375 430 366 c 0
 462 360 469 349 470 331 c 0x98
 470 311 463 287 430 290 c 0
 378 298 221 308 131 296 c 1
 134 192 137 82 139 23 c 0x54
EndSplineSet
Validated: 33
EndChar

StartChar: G
Encoding: 71 71 40
Width: 550
GlyphClass: 2
Flags: MW
HStem: -29 84<222 247> 260 76 601 76<316.5 385.5>
VStem: 38 93<182.5 325.5 182.5 337>
LayerCount: 2
Fore
SplineSet
223 311 m 0
 262 330 417 339 475 336 c 0
 508 334 516 324 519 306 c 0
 521 289 519 270 499 263 c 1
 498 253 496 241 495 228 c 0
 486 151 389 -31 247 -29 c 0
 115 -29 38 87 38 194 c 0
 38 480 218 677 359 677 c 0
 416 677 494 642 509 627 c 0
 527 609 523 586 519 574 c 0
 514 559 493 549 473 556 c 0
 452 564 405 601 366 601 c 0
 267 601 131 427 131 224 c 0
 131 141 186 55 258 55 c 0
 337 55 408 189 427 260 c 1
 359 257 266 247 234 230 c 0
 212 218 190 236 187 256 c 0
 184 276 191 296 223 311 c 0
EndSplineSet
Validated: 33
EndChar

StartChar: H
Encoding: 72 72 41
Width: 550
GlyphClass: 2
Flags: MW
HStem: 291 81
VStem: 52 90 52 94 399 96 401 94
LayerCount: 2
Fore
SplineSet
151 620 m 0xd0
 151 595 146 570 146 522 c 0
 146 473 148 424 148 372 c 1
 259 373 352 393 400 396 c 1
 400 409 399 422 399 435 c 0
 396 524 400 572 401 617 c 0
 402 653 424 668 447 668 c 0
 472 669 495 656 495 620 c 0
 495 559 490 462 494 330 c 0
 497 211 487 92 489 23 c 0
 486 -5 459 -21 434 -20 c 0xb0
 411 -20 390 -4 393 28 c 0
 396 70 402 190 401 320 c 1xc8
 351 317 219 291 146 291 c 1
 146 285 145 278 145 272 c 0
 139 171 143 80 145 23 c 0
 142 -5 115 -21 90 -20 c 0
 67 -20 46 -4 49 28 c 0
 52 58 50 137 52 236 c 0
 53 328 58 416 55 500 c 0
 53 571 56 580 57 617 c 0
 58 653 80 668 103 668 c 0
 128 669 151 656 151 620 c 0xd0
EndSplineSet
Validated: 33
EndChar

StartChar: I
Encoding: 73 73 42
Width: 550
GlyphClass: 2
Flags: MW
HStem: -6 72 582 80 584 78<94 94>
VStem: 228 95
LayerCount: 2
Fore
SplineSet
85 62 m 0xb0
 124 64 173 65 223 66 c 1
 227 129 232 266 228 405 c 0
 224 500 228 538 230 584 c 1
 176 585 126 585 94 584 c 0
 61 583 46 601 46 621 c 0
 45 641 59 661 93 662 c 0
 230 666 355 666 463 655 c 0
 495 652 505 635 506 617 c 0xb0
 506 597 494 566 461 572 c 0
 436 576 383 579 324 582 c 1xd0
 323 528 320 459 323 350 c 0
 326 236 318 138 318 67 c 1
 387 67 447 66 468 66 c 0
 500 66 507 49 508 31 c 0
 508 11 501 -15 468 -10 c 0
 396 0 166 -13 87 -13 c 0
 54 -13 39 1 39 21 c 0
 38 41 50 60 85 62 c 0xb0
EndSplineSet
Validated: 33
EndChar

StartChar: J
Encoding: 74 74 43
Width: 550
GlyphClass: 2
Flags: MW
HStem: -33 95<202.5 264.5 202.5 293.5> 580 82 583 79
VStem: 44 83 289 85
LayerCount: 2
Fore
SplineSet
103 662 m 0xb8
 240 666 365 666 473 655 c 0
 505 652 515 635 516 617 c 0xb8
 516 597 504 566 471 572 c 0
 451 575 414 578 370 580 c 1xd8
 371 485 383 318 374 201 c 0
 360 29 323 -33 264 -33 c 0
 131 -33 49 121 44 160 c 0
 41 183 42 224 81 230 c 0
 111 235 127 215 127 192 c 0
 127 163 152 62 253 62 c 0
 276 62 288 123 291 224 c 0
 293 283 286 379 289 583 c 1
 218 585 145 585 104 584 c 0
 71 583 56 601 56 621 c 0
 55 641 69 661 103 662 c 0xb8
EndSplineSet
Validated: 33
EndChar

StartChar: K
Encoding: 75 75 44
Width: 550
GlyphClass: 2
Flags: MW
HStem: -20 688<75.5 84>
VStem: 39 92 39 96
LayerCount: 2
Fore
SplineSet
419 4 m 0xa0
 393 36 203 198 131 284 c 1
 131 265 l 2
 134 161 137 83 139 23 c 0
 136 -5 109 -21 84 -20 c 0xc0
 61 -20 40 -4 43 28 c 0
 47 81 45 262 39 425 c 0
 35 519 40 570 41 617 c 0
 42 653 64 668 87 668 c 0
 112 669 135 656 135 620 c 0
 135 572 131 491 130 396 c 1
 231 494 366 627 391 649 c 0
 418 675 440 671 454 657 c 0
 468 642 470 621 446 592 c 0
 428 571 288 429 196 340 c 1
 279 253 484 74 498 41 c 0
 507 19 495 -3 481 -12 c 0
 462 -25 440 -22 419 4 c 0xa0
EndSplineSet
Validated: 33
EndChar

StartChar: L
Encoding: 76 76 45
Width: 550
GlyphClass: 2
Flags: MW
HStem: -14 81
VStem: 43 96 69 93
LayerCount: 2
Fore
SplineSet
466 9 m 0xa0
 365 -10 111 -14 84 -14 c 0xc0
 61 -14 40 2 43 34 c 0
 47 92 61 177 69 333 c 0
 73 419 67 566 68 609 c 0
 69 645 91 660 114 660 c 0
 139 661 162 648 162 612 c 0xa0
 162 551 156 433 152 297 c 0
 149 208 139 144 139 67 c 1xc0
 254 66 420 85 460 95 c 0
 491 103 505 70 506 50 c 0
 506 30 499 15 466 9 c 0xa0
EndSplineSet
Validated: 33
EndChar

StartChar: M
Encoding: 77 77 46
Width: 550
GlyphClass: 2
Flags: MW
HStem: -9 667
VStem: 29 78 406 69
LayerCount: 2
Fore
SplineSet
325 16 m 0
 317 -2 294 -7 273 -7 c 0
 248 -8 231 2 227 18 c 0
 211 83 168 358 143 533 c 1
 134 449 129 355 121 237 c 0
 115 142 106 80 107 55 c 0
 109 13 86 -10 63 -9 c 0
 36 -8 29 23 29 60 c 0
 29 86 39 163 46 246 c 0
 57 381 72 585 91 622 c 0
 105 650 137 660 158 658 c 0
 176 658 201 653 209 624 c 0
 234 531 262 240 280 110 c 1
 284 163 291 252 301 348 c 0
 314 466 339 584 349 624 c 0
 357 654 393 660 414 658 c 0
 432 658 469 661 475 619 c 0
 485 547 509 125 522 67 c 0
 531 28 522 5 502 -4 c 0
 481 -13 454 -6 441 36 c 0
 424 90 412 393 406 582 c 1
 395 527 378 433 371 336 c 0
 359 186 336 42 325 16 c 0
EndSplineSet
Validated: 33
EndChar

StartChar: N
Encoding: 78 78 47
Width: 550
GlyphClass: 2
Flags: MW
HStem: -13 672<446 446.5>
VStem: 45 80 426 62
LayerCount: 2
Fore
SplineSet
488 10 m 0
 480 -8 457 -13 436 -13 c 0
 411 -14 396 -2 390 12 c 0
 361 76 188 350 125 526 c 1
 137 350 120 103 123 46 c 0
 125 4 102 -12 79 -11 c 0
 52 -10 45 14 45 51 c 0
 45 119 57 476 50 598 c 0
 47 650 85 662 116 658 c 0
 134 658 158 653 167 624 c 0
 196 533 359 239 426 129 c 1
 430 252 429 529 419 606 c 0
 415 637 434 659 458 659 c 0
 494 659 497 643 502 608 c 0
 506 583 509 61 488 10 c 0
EndSplineSet
Validated: 33
EndChar

StartChar: O
Encoding: 79 79 48
Width: 550
GlyphClass: 2
Flags: MW
HStem: -23 79<245 277 205.5 305> 595 76<254 322.5>
VStem: 48 91 416 85 416 89
LayerCount: 2
Fore
SplineSet
245 -23 m 0xe8
 128 -21 46 92 48 230 c 0
 48 311 45 429 84 532 c 0
 115 612 199 671 300 671 c 0
 399 671 489 594 501 452 c 0
 508 364 508 224 490 157 c 0xf0
 450 9 365 -23 245 -23 c 0xe8
245 56 m 0
 309 56 377 87 402 170 c 0
 408 190 423 334 413 451 c 0
 406 532 356 595 289 595 c 0
 219 595 175 540 155 455 c 0
 139 388 136 317 139 245 c 0
 143 153 166 56 245 56 c 0
EndSplineSet
Validated: 33
EndChar

StartChar: P
Encoding: 80 80 49
Width: 550
GlyphClass: 2
Flags: MW
HStem: 215 76<231.5 312.5 207.5 326> 589 76<255 289.5>
VStem: 56 85 401 86<439 466 396 518>
LayerCount: 2
Fore
SplineSet
258 215 m 0
 205 215 168 219 143 225 c 1
 147 136 153 78 157 23 c 0
 158 -5 129 -19 104 -18 c 0
 81 -17 58 -4 61 28 c 0
 65 81 59 263 56 427 c 0
 54 515 56 546 57 588 c 0
 55 590 53 591 52 593 c 0
 36 615 56 644 74 648 c 0
 126 660 246 665 264 665 c 0
 391 665 485 595 487 466 c 0
 487 326 394 215 258 215 c 0
264 589 m 0
 241 589 189 585 146 581 c 1
 145 519 140 419 141 305 c 1
 160 298 185 291 230 291 c 0
 395 291 401 406 401 472 c 0
 401 564 315 589 264 589 c 0
EndSplineSet
Validated: 33
EndChar

StartChar: Q
Encoding: 81 81 50
Width: 550
GlyphClass: 2
Flags: MW
HStem: -23 79<269 278> 595 76<254 322.5>
VStem: 48 91 419 82 419 87
LayerCount: 2
Fore
SplineSet
269 -23 m 0xe8
 128 -23 53 95 48 230 c 0
 45 308 46 425 85 528 c 0
 116 608 199 671 300 671 c 0
 399 671 485 607 501 452 c 0
 510 364 508 219 494 152 c 0
 479 78 445 34 402 8 c 1
 444 -52 487 -104 508 -132 c 0
 522 -151 505 -183 491 -192 c 0
 472 -205 446 -197 429 -176 c 0xf0
 413 -156 366 -88 323 -19 c 1
 305 -22 287 -23 269 -23 c 0xe8
269 56 m 2
 279 56 l 1
 265 82 254 104 247 122 c 0
 232 161 238 186 256 200 c 0
 272 213 296 212 307 181 c 0
 319 148 336 114 356 80 c 1
 381 97 400 125 409 166 c 0
 413 186 427 333 413 451 c 0
 403 539 356 595 289 595 c 0
 219 595 174 542 154 457 c 0
 138 390 134 314 139 245 c 0
 146 139 197 56 269 56 c 2
EndSplineSet
Validated: 33
EndChar

StartChar: R
Encoding: 82 82 51
Width: 550
GlyphClass: 2
Flags: MW
HStem: 268 67
VStem: 60 74 62 84<465 465> 413 86<385 461.5>
LayerCount: 2
Fore
SplineSet
427 7 m 0xb0
 393 52 267 183 134 242 c 1
 139 148 149 80 153 23 c 0
 154 -5 125 -19 100 -18 c 0xd0
 77 -17 54 -4 57 28 c 0
 61 83 63 110 60 279 c 0
 59 330 65 374 62 465 c 0
 60 525 53 593 53 617 c 2
 53 622 l 2
 52 633 57 645 65 653 c 0
 73 663 86 668 99 668 c 0
 110 668 120 666 128 660 c 1
 396 647 499 521 499 420 c 0
 499 308 395 280 245 268 c 1
 380 198 479 99 506 44 c 0
 515 22 503 0 489 -9 c 0
 470 -22 447 -19 427 7 c 0xb0
146 465 m 0
 146 436 140 381 136 336 c 1
 147 334 164 333 195 335 c 0
 332 342 413 354 413 416 c 0
 413 507 236 567 142 583 c 1
 143 546 144 511 146 465 c 0
EndSplineSet
Validated: 33
EndChar

StartChar: S
Encoding: 83 83 52
Width: 550
GlyphClass: 2
Flags: MW
HStem: -27 79<215.5 279 215.5 310> 603 74<291 354.5 253 364.5>
VStem: 71 94<472.5 525> 419 93<150.5 223>
LayerCount: 2
Fore
SplineSet
52 62 m 0
 35 95 44 117 64 127 c 0
 89 138 105 142 128 108 c 0
 149 76 189 52 242 52 c 0
 316 52 419 107 419 194 c 0
 419 252 397 315 212 335 c 0
 120 345 71 416 71 473 c 0
 71 577 165 677 341 677 c 0
 368 677 446 671 470 662 c 0
 495 653 504 631 501 611 c 0
 497 580 464 584 445 589 c 0
 418 596 396 603 333 603 c 0
 249 603 165 562 165 496 c 0
 165 449 207 411 286 407 c 0
 466 398 512 296 512 210 c 0
 512 63 382 -27 238 -27 c 0
 146 -27 76 16 52 62 c 0
EndSplineSet
Validated: 33
EndChar

StartChar: T
Encoding: 84 84 53
Width: 550
GlyphClass: 2
Flags: MW
HStem: 577 78
VStem: 230 106
LayerCount: 2
Fore
SplineSet
88 667 m 0
 140 658 360 656 468 655 c 0
 500 655 510 635 511 617 c 0
 511 597 499 570 466 572 c 0
 441 574 385 575 324 577 c 1
 325 448 332 166 336 31 c 0
 333 3 306 -13 281 -12 c 0
 258 -12 237 4 240 36 c 0
 246 116 228 440 230 580 c 1
 169 583 114 585 89 589 c 0
 56 594 41 606 41 626 c 0
 40 646 54 673 88 667 c 0
EndSplineSet
Validated: 33
EndChar

StartChar: U
Encoding: 85 85 54
Width: 550
GlyphClass: 2
Flags: MW
HStem: -27 85<223 315.5 222.5 316>
VStem: 44 86 432 88
LayerCount: 2
Fore
SplineSet
517 243 m 0
 510 38 366 -27 266 -27 c 0
 180 -27 53 32 47 223 c 0
 43 374 40 520 44 610 c 0
 45 645 68 663 91 663 c 0
 113 663 130 651 130 615 c 0
 130 560 131 285 135 232 c 0
 140 151 172 58 273 58 c 0
 358 58 421 112 429 238 c 0
 437 353 432 551 432 602 c 0
 432 661 453 664 475 664 c 0
 498 664 516 645 517 612 c 0
 521 533 522 394 517 243 c 0
EndSplineSet
Validated: 33
EndChar

StartChar: V
Encoding: 86 86 55
Width: 550
GlyphClass: 2
Flags: MW
HStem: -11 675
VStem: 33 496
LayerCount: 2
Fore
SplineSet
503 661 m 0
 523 652 539 626 523 590 c 0
 500 537 360 142 330 25 c 0
 322 -5 301 -13 280 -11 c 0
 262 -11 237 -5 226 23 c 0
 172 161 49 532 36 590 c 0
 27 629 36 652 56 661 c 0
 77 670 104 663 117 621 c 0
 135 563 232 246 275 120 c 1
 335 293 422 571 439 621 c 0
 453 663 482 670 503 661 c 0
EndSplineSet
Validated: 33
EndChar

StartChar: W
Encoding: 87 87 56
Width: 550
GlyphClass: 2
Flags: MW
HStem: -10 677
VStem: 28 81 89 67 443 78
LayerCount: 2
Fore
SplineSet
235 642 m 0xb0
 243 660 266 665 287 665 c 0
 312 666 329 656 333 640 c 0
 345 594 361 438 379 291 c 0
 387 225 398 162 407 108 c 1
 419 207 428 319 437 461 c 0
 442 535 444 583 443 603 c 0
 441 645 464 668 487 667 c 0
 514 666 521 635 521 598 c 0
 521 578 518 517 512 452 c 0
 499 299 480 67 459 26 c 0
 445 -2 413 -12 392 -10 c 0
 374 -10 349 -5 341 24 c 0
 329 71 314 161 305 263 c 0
 295 366 287 479 279 547 c 1
 267 419 235 98 216 24 c 0
 208 -6 171 -12 150 -10 c 0
 132 -10 95 -13 89 29 c 0xb0
 86 53 73 114 65 189 c 0
 50 338 32 546 28 591 c 0
 25 631 35 655 55 664 c 0
 76 673 110 664 109 622 c 0xd0
 108 576 124 390 139 224 c 0
 144 169 151 117 156 70 c 1
 174 214 217 599 235 642 c 0xb0
EndSplineSet
Validated: 33
EndChar

StartChar: X
Encoding: 88 88 57
Width: 550
GlyphClass: 2
Flags: MW
HStem: -23 686
VStem: 36 478 49 456
LayerCount: 2
Fore
SplineSet
429 5 m 0xc0
 389 48 326 174 274 262 c 1
 220 185 136 28 115 0 c 0
 91 -32 67 -25 50 -9 c 0
 36 4 27 24 48 59 c 0xc0
 76 105 175 250 225 336 c 1
 168 421 93 534 64 578 c 0
 42 611 46 634 63 648 c 0
 80 662 111 669 138 635 c 0
 165 600 242 474 285 403 c 1
 329 482 398 604 423 638 c 0
 445 669 472 667 489 654 c 0
 504 642 512 619 495 591 c 0xa0
 468 546 376 401 336 332 c 0
 335 331 334 329 332 327 c 0
 391 234 459 109 495 61 c 0
 520 27 518 9 506 -5 c 0
 491 -22 463 -31 429 5 c 0xc0
EndSplineSet
Validated: 33
EndChar

StartChar: Y
Encoding: 89 89 58
Width: 550
GlyphClass: 2
Flags: MW
HStem: -37 706
VStem: 36 484
LayerCount: 2
Fore
SplineSet
513 588 m 0
 502 562 486 538 473 506 c 0
 455 464 425 418 397 356 c 0
 354 260 294 144 216 -11 c 0
 205 -33 176 -47 152 -28 c 0
 135 -15 123 8 138 35 c 0
 174 108 207 171 236 229 c 1
 203 291 172 341 146 389 c 0
 107 460 66 518 42 583 c 0
 26 627 42 650 62 659 c 0
 83 670 118 667 133 618 c 0
 156 543 192 486 225 429 c 0
 247 391 265 355 280 320 c 1
 287 333 292 345 298 358 c 0
 330 429 364 488 391 554 c 0
 400 577 414 599 424 624 c 0
 441 669 471 674 492 665 c 0
 510 656 531 631 513 588 c 0
EndSplineSet
Validated: 33
EndChar

StartChar: Z
Encoding: 90 90 59
Width: 550
GlyphClass: 2
Flags: MW
HStem: -8 80 580 71
VStem: 44 469
LayerCount: 2
Fore
SplineSet
44 49 m 0
 44 60 50 82 83 141 c 0
 123 212 307 485 379 580 c 1
 279 577 161 578 97 575 c 0
 67 574 57 595 57 615 c 0
 56 637 81 662 113 662 c 0
 155 662 185 651 230 651 c 0
 321 650 410 658 466 661 c 0
 488 662 505 638 506 613 c 0
 507 596 459 556 442 528 c 0
 365 403 225 224 145 72 c 1
 286 81 409 81 466 73 c 0
 503 66 512 53 513 35 c 0
 514 14 505 -8 464 -8 c 0
 429 -8 202 0 85 -5 c 0
 60 -6 44 29 44 49 c 0
EndSplineSet
Validated: 33
EndChar

StartChar: bracketleft
Encoding: 91 91 60
Width: 550
GlyphClass: 2
Flags: MW
HStem: -76 72 716 79
VStem: 122 92
LayerCount: 2
Fore
SplineSet
173 792 m 0
 310 796 307 792 413 795 c 0
 445 796 455 775 456 757 c 0
 456 737 444 707 411 712 c 0
 362 719 291 718 220 716 c 1
 219 645 211 463 214 350 c 0
 217 232 212 72 213 -9 c 1
 308 -11 379 -4 418 -4 c 0
 450 -4 457 -21 458 -39 c 0
 458 -59 451 -85 418 -80 c 0
 346 -70 246 -83 167 -83 c 0
 134 -83 119 -69 119 -49 c 0
 119 -43 120 -37 122 -31 c 2
 122 -22 l 1
 126 28 133 251 128 405 c 0
 124 509 129 675 130 727 c 2
 130 733 l 2
 127 739 126 745 126 751 c 0
 125 771 139 791 173 792 c 0
EndSplineSet
Validated: 33
EndChar

StartChar: backslash
Encoding: 92 92 61
Width: 550
GlyphClass: 2
Flags: MW
HStem: -57 761
VStem: 39 467
LayerCount: 2
Fore
SplineSet
320 166 m 0
 270 261 94 540 47 632 c 0
 31 663 41 688 62 699 c 0
 84 710 116 705 132 674 c 0
 156 626 204 531 261 431 c 0
 349 273 456 96 495 32 c 0
 514 2 507 -42 489 -52 c 0
 466 -66 431 -51 411 -16 c 0
 394 14 351 107 320 166 c 0
EndSplineSet
Validated: 33
EndChar

StartChar: bracketright
Encoding: 93 93 62
Width: 550
GlyphClass: 2
Flags: MW
HStem: -83 79 -76 72 716 76
VStem: 356 90 362 84 362 92
LayerCount: 2
Fore
SplineSet
158 -4 m 0x70
 197 -4 268 -11 363 -9 c 1x68
 364 72 359 232 362 350 c 0
 365 463 357 645 356 716 c 1
 285 718 214 719 165 712 c 0
 132 707 120 737 120 757 c 0
 121 775 131 796 163 795 c 0
 269 792 266 796 403 792 c 0
 437 791 451 771 450 751 c 0
 450 745 449 739 446 733 c 2
 446 727 l 2x70
 447 675 452 509 448 405 c 0
 443 251 450 28 454 -22 c 1
 454 -31 l 2
 456 -37 457 -43 457 -49 c 0
 457 -69 442 -83 409 -83 c 0
 330 -83 230 -70 158 -80 c 0xa4
 125 -85 118 -59 118 -39 c 0
 119 -21 126 -4 158 -4 c 0x70
EndSplineSet
Validated: 33
EndChar

StartChar: asciicircum
Encoding: 94 94 63
Width: 550
GlyphClass: 2
Flags: MW
HStem: 557 326
VStem: 32 487
LayerCount: 2
Fore
SplineSet
235 866 m 0
 253 890 300 888 314 865 c 0
 413 730 424 731 506 641 c 0
 538 606 503 574 483 565 c 0
 462 554 448 572 412 609 c 0
 341 681 329 694 277 766 c 1
 204 667 194 675 128 602 c 0
 96 567 84 550 63 559 c 0
 45 568 15 598 44 636 c 0
 92 699 150 750 235 866 c 0
EndSplineSet
Validated: 33
EndChar

StartChar: underscore
Encoding: 95 95 64
Width: 550
GlyphClass: 2
Flags: MW
HStem: -93 80
VStem: 43 465<-60 -53>
LayerCount: 2
Fore
SplineSet
82 -14 m 0
 251 -17 405 -13 468 -13 c 0
 500 -13 507 -31 508 -50 c 0
 508 -70 501 -91 468 -91 c 0
 411 -91 193 -93 83 -93 c 0
 50 -93 43 -73 43 -53 c 0
 42 -34 48 -13 82 -14 c 0
EndSplineSet
Validated: 33
EndChar

StartChar: grave
Encoding: 96 96 65
Width: 550
GlyphClass: 2
Flags: MW
HStem: 560 248
VStem: 146 224
LayerCount: 2
Fore
SplineSet
293 581 m 0
 257 617 197 678 157 732 c 0
 140 755 145 786 157 799 c 0
 174 813 209 813 227 791 c 0
 262 743 304 677 348 637 c 0
 372 614 377 582 362 569 c 0
 348 555 318 556 293 581 c 0
EndSplineSet
Validated: 33
EndChar

StartChar: a
Encoding: 97 97 66
Width: 550
GlyphClass: 2
Flags: MW
HStem: -29 83<243 278.5 217 279> 402 84<283 329.5>
VStem: 64 97<168.5 276.5 168.5 291> 384 89
LayerCount: 2
Fore
SplineSet
488 408 m 1
 467 244 466 168 499 19 c 0
 509 -23 485 -35 461 -37 c 0
 438 -39 415 -33 404 9 c 0
 401 29 397 49 394 70 c 1
 363 18 315 -29 243 -29 c 0
 132 -27 64 83 64 168 c 0
 64 414 193 486 330 486 c 0
 399 486 440 462 488 408 c 1
161 198 m 0
 161 139 187 54 247 54 c 0
 310 54 362 130 384 190 c 1
 384 237 386 295 394 371 c 1
 368 392 350 402 309 402 c 0
 257 402 161 355 161 198 c 0
EndSplineSet
Validated: 33
EndChar

StartChar: b
Encoding: 98 98 67
Width: 550
GlyphClass: 2
Flags: MW
HStem: -13 80<271.5 321.5 251.5 353> 410 77
VStem: 73 90 73 91 415 90
LayerCount: 2
Fore
SplineSet
505 258 m 1xe8
 509 81 404 -13 302 -13 c 0
 241 -13 193 6 160 31 c 1
 157 -2 138 -9 119 -10 c 0
 97 -11 73 -3 73 41 c 0
 72 206 72 548 76 666 c 0xe8
 76 708 95 717 116 718 c 0
 140 720 166 710 165 666 c 0
 165 633 164 546 164 445 c 1xd8
 199 469 244 487 309 487 c 0
 434 485 507 390 505 258 c 1xe8
288 410 m 0
 236 412 193 387 163 361 c 1
 163 269 162 174 161 107 c 1
 190 77 227 67 276 67 c 0
 367 67 416 140 415 250 c 0
 413 333 369 407 288 410 c 0
EndSplineSet
Validated: 33
EndChar

StartChar: c
Encoding: 99 99 68
Width: 550
GlyphClass: 2
Flags: MW
HStem: -29 84 408 85<283.5 335.5>
VStem: 68 95
LayerCount: 2
Fore
SplineSet
471 372 m 0
 483 328 464 310 442 301 c 0
 418 292 390 294 377 334 c 0
 365 370 362 408 309 408 c 0
 258 408 172 363 163 205 c 0
 160 149 167 60 270 55 c 0
 343 52 384 79 392 99 c 0
 410 143 438 144 459 134 c 0
 480 125 496 107 476 66 c 0
 456 25 389 -31 259 -29 c 0
 134 -27 66 72 68 174 c 0
 71 392 195 493 330 493 c 0
 399 493 455 434 471 372 c 0
EndSplineSet
Validated: 33
EndChar

StartChar: d
Encoding: 100 100 69
Width: 550
GlyphClass: 2
Flags: MW
HStem: -13 83 396 82
VStem: 59 90 403 86<227 253 253 263.5> 406 83
LayerCount: 2
Fore
SplineSet
510 31 m 0xf0
 506 5 488 -4 468 -8 c 0
 427 -16 412 17 408 60 c 1xf0
 383 23 345 -13 269 -13 c 0
 167 -13 55 77 59 255 c 1
 57 381 137 476 262 478 c 0
 324 478 372 461 406 438 c 1
 407 539 409 626 412 661 c 0
 416 709 440 719 462 719 c 0xe8
 484 718 504 709 501 661 c 0
 497 593 489 337 489 227 c 0
 492 72 514 57 510 31 c 0xf0
278 70 m 0
 355 69 381 120 403 158 c 1
 403 188 402 220 403 253 c 0
 403 274 404 295 404 316 c 1
 378 358 331 398 276 396 c 0
 195 393 151 324 149 247 c 0
 148 136 195 69 278 70 c 0
EndSplineSet
Validated: 33
EndChar

StartChar: e
Encoding: 101 101 70
Width: 550
GlyphClass: 2
Flags: MW
HStem: -26 76 414 73<264.5 308.5>
VStem: 70 91
LayerCount: 2
Fore
SplineSet
479 56 m 4
 444 8 395 -28 265 -26 c 4
 140 -24 68 69 70 222 c 4
 73 392 175 487 310 487 c 4
 367 487 455 434 480 361 c 4
 488 326 450 283 431 269 c 4
 369 223 228 179 164 156 c 5
 173 99 200 53 270 50 c 4
 343 47 396 97 402 105 c 4
 431 144 455 142 474 129 c 4
 493 116 507 94 479 56 c 4
290 414 m 4
 239 414 168 368 161 249 c 5
 189 256 338 292 388 338 c 5
 358 397 327 414 290 414 c 4
EndSplineSet
Validated: 33
EndChar

StartChar: f
Encoding: 102 102 71
Width: 550
GlyphClass: 2
Flags: MW
HStem: -15 79<381 408.5> -15 86 377 81<123 130.5> 385 76<411 439 408.5 439.5> 634 81<383 441.5 360 449>
VStem: 167 88<494.5 534 488.5 578> 182 88
LayerCount: 2
Fore
SplineSet
125 71 m 0x5a
 146 70 166 70 186 69 c 1
 188 102 182 95 182 138 c 0
 182 177 175 280 170 378 c 1
 153 377 137 377 124 377 c 0
 91 377 84 397 84 417 c 0
 83 437 89 458 123 458 c 2x6a
 168 458 l 1x6c
 167 473 167 488 167 501 c 0
 167 655 291 715 429 715 c 0
 454 715 474 703 474 678 c 0
 474 653 459 634 439 634 c 0
 327 634 255 576 255 492 c 0
 255 485 255 473 256 459 c 1x5c
 330 460 394 461 423 461 c 0
 455 461 462 444 463 426 c 0
 463 406 456 385 423 385 c 0
 399 385 329 382 259 380 c 1
 262 303 267 200 270 112 c 0
 271 87 271 76 272 67 c 1
 326 65 369 64 393 64 c 0x9a
 427 64 439 47 439 28 c 0
 439 7 426 -15 391 -15 c 0
 352 -15 200 -19 124 -13 c 0
 88 -12 77 10 78 31 c 0
 78 52 89 72 125 71 c 0x5a
EndSplineSet
Validated: 33
EndChar

StartChar: g
Encoding: 103 103 72
Width: 550
GlyphClass: 2
Flags: MW
HStem: -273 78<194 246.5 180 277> -29 82 397 79
VStem: 73 89 398 82 402 63 402 78<361 365 320.5 384>
LayerCount: 2
Fore
SplineSet
450 456 m 0xf4
 468 446 468 420 461 408 c 0
 460 406 458 404 457 402 c 1
 473 398 480 385 480 366 c 0
 480 275 486 85 474 -39 c 0xf2
 459 -198 338 -273 216 -273 c 0
 172 -273 129 -257 110 -247 c 0
 88 -235 76 -231 76 -206 c 0
 76 -181 96 -162 116 -166 c 0
 134 -169 162 -195 198 -195 c 0
 295 -195 379 -129 393 -34 c 0
 396 -16 397 6 398 35 c 1xf8
 371 -2 327 -29 248 -29 c 0
 123 -27 73 57 73 210 c 0
 76 403 201 476 336 476 c 0
 405 476 423 471 450 456 c 0xf4
402 361 m 0
 402 369 404 376 408 383 c 1
 402 384 l 2
 378 391 341 398 311 397 c 0
 250 394 169 352 162 240 c 0
 156 143 174 50 259 53 c 0
 354 56 392 125 400 178 c 1
 401 229 401 290 402 361 c 0
EndSplineSet
Validated: 33
EndChar

StartChar: h
Encoding: 104 104 73
Width: 550
GlyphClass: 2
Flags: MW
HStem: 387 88<332 351>
VStem: 84 92 387 97<17.5 64>
LayerCount: 2
Fore
SplineSet
176 212 m 1
 176 213 l 1
 176 202 175 189 175 176 c 0
 174 110 176 68 170 23 c 0
 167 -5 140 -21 115 -20 c 0
 92 -20 71 -4 74 28 c 0
 76 56 86 240 84 296 c 0
 79 410 80 579 82 667 c 0
 83 703 105 718 128 718 c 0
 153 719 176 706 176 670 c 0
 176 645 177 473 178 380 c 1
 203 426 258 475 363 475 c 0
 448 475 476 392 475 297 c 0
 474 195 484 112 484 38 c 0
 484 -3 459 -22 435 -21 c 0
 413 -20 387 -1 387 30 c 0
 387 98 391 170 390 255 c 0
 389 339 370 387 332 387 c 0
 195 385 176 229 176 212 c 1
EndSplineSet
Validated: 33
EndChar

StartChar: i
Encoding: 105 105 74
Width: 550
GlyphClass: 2
Flags: MW
HStem: -16 81<106 144.5> 378 76<124.5 136 123 137 123 254> 521 144<281 281>
VStem: 203 152<575.5 613.5> 250 86
LayerCount: 2
Fore
SplineSet
281 521 m 0xf0
 233 516 203 555 203 594 c 0
 203 633 242 663 281 665 c 0
 326 667 355 634 355 595 c 0
 355 556 326 526 281 521 c 0xf0
106 65 m 2
 251 65 l 1
 251 88 251 108 250 138 c 0
 247 222 251 297 254 378 c 1
 221 382 185 376 137 378 c 0
 112 378 100 396 100 413 c 0
 99 434 110 454 136 454 c 0
 173 457 229 461 294 459 c 0
 335 460 342 416 342 405 c 0
 332 280 336 187 342 65 c 1xc8
 459 65 l 2
 491 65 497 47 497 28 c 0
 496 9 488 -11 457 -11 c 0
 415 -11 184 -16 105 -16 c 0
 72 -16 65 6 66 26 c 0
 66 46 73 65 106 65 c 2
EndSplineSet
Validated: 33
EndChar

StartChar: j
Encoding: 106 106 75
Width: 550
GlyphClass: 2
Flags: MW
HStem: -268 84<103.5 167 101 185> 371 86 517 144<360 360>
VStem: 285 149<578.5 610.5 571.5 617.5> 333 87<-74 8>
LayerCount: 2
Fore
SplineSet
360 517 m 0xf0
 310 517 285 559 285 598 c 0
 285 637 321 659 360 661 c 0
 405 663 434 630 434 591 c 0
 434 552 405 517 360 517 c 0xf0
333 -13 m 0xe8
 333 29 319 162 328 371 c 1
 298 369 177 371 136 371 c 0
 106 371 88 395 89 417 c 0
 89 435 107 451 135 452 c 0
 167 454 311 459 374 457 c 0
 415 458 422 414 422 403 c 0
 418 371 414 357 414 328 c 0
 414 266 420 102 420 -25 c 0
 420 -217 254 -268 116 -268 c 0
 91 -268 71 -256 71 -231 c 0
 71 -206 91 -184 111 -184 c 0
 223 -184 333 -135 333 -13 c 0xe8
EndSplineSet
Validated: 33
EndChar

StartChar: k
Encoding: 107 107 76
Width: 550
GlyphClass: 2
Flags: MW
HStem: -20 518
VStem: 83 95<633.5 688>
LayerCount: 2
Fore
SplineSet
419 4 m 0
 398 34 280 164 248 243 c 1
 219 218 192 194 172 176 c 0
 171 175 171 175 170 175 c 0
 169 109 177 64 175 30 c 0
 173 -11 149 -23 122 -21 c 0
 102 -20 75 -8 78 28 c 0
 88 150 83 534 83 671 c 0
 83 705 108 718 133 718 c 0
 156 718 178 706 178 672 c 0
 178 595 175 421 172 291 c 1
 265 375 367 456 391 479 c 0
 418 505 440 501 454 487 c 0
 468 472 470 451 446 422 c 0
 433 407 374 354 311 299 c 1
 356 219 501 53 502 35 c 0
 504 12 495 -3 481 -12 c 0
 462 -25 439 -25 419 4 c 0
EndSplineSet
Validated: 33
EndChar

StartChar: l
Encoding: 108 108 77
Width: 550
GlyphClass: 2
Flags: MW
HStem: -5 76 -5 84<78 115 78 133.5> 625 81<117.5 156.5>
VStem: 242 83
LayerCount: 2
Fore
SplineSet
94 79 m 0x70
 136 79 187 78 238 77 c 1
 238 95 238 114 237 138 c 0x70
 234 231 238 489 242 627 c 1
 212 625 181 625 132 625 c 0
 103 625 90 648 91 669 c 0
 91 688 103 706 131 706 c 0
 257 706 244 711 307 709 c 0
 315 709 321 704 324 695 c 1
 332 692 336 687 336 680 c 0
 328 634 325 372 325 331 c 0
 325 262 325 238 326 175 c 0
 326 136 327 107 328 74 c 1
 392 73 444 71 461 71 c 0
 499 71 507 53 508 35 c 0xb0
 509 14 500 -8 459 -8 c 0
 424 -8 174 -5 93 -5 c 0
 63 -5 53 15 53 35 c 0
 52 57 62 79 94 79 c 0x70
EndSplineSet
Validated: 33
EndChar

StartChar: m
Encoding: 109 109 78
Width: 550
GlyphClass: 2
Flags: MW
HStem: 389 88<218.5 229.5 411.5 416.5>
VStem: 49 85<7 37> 239 79 239 266
LayerCount: 2
Fore
SplineSet
134 28 m 0xe0
 134 -15 110 -22 89 -22 c 0
 69 -21 49 -14 49 28 c 0
 49 46 46 91 44 138 c 0
 40 245 42 350 44 430 c 0
 45 476 73 492 96 491 c 0
 118 491 139 476 133 431 c 0
 131 415 128 400 126 384 c 1
 149 432 187 477 250 477 c 0
 276 477 295 437 307 383 c 1
 331 427 374 477 449 477 c 0
 527 477 498 227 505 39 c 0
 507 -14 488 -21 468 -21 c 0
 446 -22 420 -15 417 39 c 0xd0
 411 140 430 389 403 389 c 0
 365 390 336 343 318 289 c 1
 323 190 311 99 315 32 c 0
 318 -15 294 -22 273 -21 c 0
 253 -21 235 -14 231 32 c 0
 227 89 239 163 239 253 c 0
 239 354 241 389 218 389 c 0
 186 389 150 336 129 285 c 1
 128 256 129 214 130 175 c 0
 130 116 134 58 134 28 c 0xe0
EndSplineSet
Validated: 33
EndChar

StartChar: n
Encoding: 110 110 79
Width: 600
GlyphClass: 2
Flags: MW
HStem: 390 87<316 367>
VStem: 93 91 105 92 170 14
LayerCount: 2
Fore
SplineSet
200 427 m 0xa0
 199 417 198 407 197 396 c 1xa0
 223 436 275 477 357 477 c 0
 446 477 487 407 490 297 c 0
 493 195 514 107 518 35 c 0
 520 -7 500 -21 478 -21 c 0
 454 -22 428 -8 425 35 c 0
 420 93 408 169 404 255 c 0
 399 358 390 390 344 390 c 0
 262 390 211 322 186 274 c 1
 184 242 183 209 184 175 c 0
 184 116 195 62 195 28 c 0
 195 -12 169 -23 144 -21 c 0
 124 -20 105 -8 103 28 c 0
 102 50 95 91 93 138 c 0xc0
 89 242 103 346 105 426 c 0
 106 468 135 482 159 481 c 0
 182 481 204 469 200 427 c 0xa0
170 229 m 1x90
 170 231 l 1
 170 229 l 1x90
EndSplineSet
Validated: 33
EndChar

StartChar: o
Encoding: 111 111 80
Width: 550
GlyphClass: 2
Flags: MW
HStem: -25 79 416 73<232.5 308>
VStem: 57 96 392 94
LayerCount: 2
Fore
SplineSet
255 -25 m 0
 130 -23 55 96 57 224 c 0
 57 373 135 489 283 489 c 4
 392 489 498 413 486 209 c 0
 477 61 413 -27 255 -25 c 0
275 54 m 0
 353 50 388 126 392 225 c 0
 397 363 346 416 270 416 c 0
 195 416 159 341 153 226 c 0
 150 129 172 59 275 54 c 0
EndSplineSet
Validated: 33
EndChar

StartChar: p
Encoding: 112 112 81
Width: 550
GlyphClass: 2
Flags: MW
HStem: -29 78 397 79<272 316.5>
VStem: 73 87<331 417> 73 88 390 97
LayerCount: 2
Fore
SplineSet
82 484 m 0xe8
 92 504 115 515 134 512 c 0xe8
 154 510 172 491 167 473 c 0
 165 465 163 457 161 430 c 1xd8
 206 461 249 476 295 476 c 0
 410 476 484 421 487 204 c 0
 489 102 420 -27 295 -29 c 0
 235 -30 195 -27 167 -18 c 1
 168 -110 170 -192 170 -230 c 0
 171 -263 150 -278 128 -278 c 0
 107 -277 83 -268 81 -229 c 0
 75 -107 72 246 73 386 c 0
 73 448 77 474 82 484 c 0xe8
160 331 m 2
 161 274 164 164 165 55 c 1
 193 44 235 47 284 49 c 0
 365 52 393 149 390 234 c 0
 384 369 342 397 291 397 c 0
 247 397 194 371 160 342 c 1
 160 331 l 2
EndSplineSet
Validated: 33
EndChar

StartChar: q
Encoding: 113 113 82
Width: 550
GlyphClass: 2
Flags: MW
HStem: -29 78 402 84<283.5 328>
VStem: 67 97 379 94 382 91
LayerCount: 2
Fore
SplineSet
482 430 m 0xe8
 501 407 501 383 492 373 c 0
 487 367 481 363 473 360 c 1
 472 182 473 -101 460 -224 c 0
 456 -261 431 -277 409 -277 c 0xe8
 388 -277 366 -261 369 -224 c 0
 372 -186 376 -107 379 -12 c 1xf0
 351 -24 313 -30 259 -29 c 0
 134 -27 65 96 67 194 c 0
 70 413 195 486 330 486 c 0
 399 486 456 461 482 430 c 0xe8
270 49 m 0
 315 47 354 54 382 69 c 1
 385 175 387 290 389 387 c 1
 365 401 347 402 309 402 c 0
 258 402 170 361 164 224 c 0
 161 144 189 52 270 49 c 0
EndSplineSet
Validated: 33
EndChar

StartChar: r
Encoding: 114 114 83
Width: 550
GlyphClass: 2
Flags: MW
HStem: 393 80
VStem: 86 91 99 92 99 378
LayerCount: 2
Fore
SplineSet
194 428 m 2xa0
 188 371 l 1xa0
 215 416 308 477 443 473 c 1
 472 466 483 366 473 327 c 0
 468 302 452 293 434 288 c 0
 412 283 390 301 387 323 c 0
 382 352 389 375 373 393 c 1x90
 265 393 190 283 178 249 c 1
 177 225 176 200 177 175 c 0
 177 116 186 58 188 21 c 0
 189 -16 164 -23 141 -22 c 0
 119 -21 101 -13 98 21 c 0
 96 45 88 91 86 138 c 0xc0
 82 242 98 346 99 427 c 0
 101 468 127 481 152 481 c 0
 175 481 196 469 194 428 c 2xa0
EndSplineSet
Validated: 33
EndChar

StartChar: s
Encoding: 115 115 84
Width: 550
GlyphClass: 2
Flags: MW
HStem: -33 82<215.5 267.5 215.5 297.5> 201.63 283.37 403 82<328 362>
VStem: 93 94<325 325> 400 93<142 142>
LayerCount: 2
Fore
SplineSet
72 62 m 0xb8
 62 101 72 121 92 131 c 0
 117 142 151 136 166 100 c 0
 181 65 189 49 242 49 c 0
 293 49 395 93 400 142 c 0
 404 187 284 193 185 226 c 0xd8
 113 250 93 272 93 325 c 0
 93 421 199 485 424 485 c 0
 448 485 462 386 463 372 c 0
 465 350 464 325 438 317 c 0
 411 308 389 327 383 342 c 0
 376 358 371 368 362 403 c 1
 294 403 181 379 187 325 c 0
 190 304 250 291 285 284 c 0
 402 261 504 225 493 141 c 0
 479 31 365 -33 230 -33 c 0
 161 -33 89 -4 72 62 c 0xb8
EndSplineSet
Validated: 33
EndChar

StartChar: t
Encoding: 116 116 85
Width: 550
GlyphClass: 2
Flags: MW
HStem: -26 80 375 76<405.5 434> 378 81<82.5 98 98 105.5 82.5 144>
VStem: 135 97 144 91<378 604>
LayerCount: 2
Fore
SplineSet
433 -8 m 0xc8
 394 -23 347 -27 308 -26 c 0
 215 -23 138 33 135 142 c 0xd0
 132 238 139 309 144 378 c 1
 98 378 l 2
 64 378 58 399 59 419 c 0
 59 439 66 459 99 459 c 0
 112 459 129 459 148 458 c 1xa8
 150 501 149 546 144 599 c 0
 142 616 154 641 177 641 c 0
 199 641 232 622 235 604 c 0
 238 575 237 520 235 456 c 1xc8
 313 454 393 451 418 451 c 0
 451 451 458 430 458 410 c 0
 457 392 450 375 418 375 c 0
 389 375 314 376 232 377 c 1
 228 282 223 187 225 149 c 0
 228 95 262 56 322 54 c 0xd0
 355 53 394 58 433 75 c 0
 452 83 469 71 474 47 c 0
 479 22 457 1 433 -8 c 0xc8
EndSplineSet
Validated: 33
EndChar

StartChar: u
Encoding: 117 117 86
Width: 550
GlyphClass: 2
Flags: MW
HStem: -15 86
VStem: 71 96 392 95<29 55 55 55> 393 86 393 94<10.5 274>
LayerCount: 2
Fore
SplineSet
392 29 m 2xe0
 392 55 l 1xe0
 350 20 275 -22 198 -15 c 0
 130 -9 79 62 76 120 c 0
 72 172 71 221 71 270 c 0
 71 331 76 387 75 426 c 0
 75 458 96 471 118 471 c 0
 142 471 167 458 167 426 c 0
 167 395 162 338 163 275 c 0
 163 226 163 179 170 128 c 0
 177 78 198 71 233 71 c 0
 292 71 354 106 393 135 c 1
 394 177 394 220 393 274 c 0
 393 323 392 390 389 427 c 0
 389 455 409 470 430 471 c 0
 453 471 479 456 479 427 c 1xd0
 483 402 482 348 484 311 c 0
 488 201 487 117 487 30 c 0xc8
 487 -9 466 -21 444 -22 c 0
 418 -24 392 -13 392 29 c 2xe0
EndSplineSet
Validated: 33
EndChar

StartChar: v
Encoding: 118 118 87
Width: 550
GlyphClass: 2
Flags: MW
HStem: -25 496
VStem: 53 453
LayerCount: 2
Fore
SplineSet
320 -7 m 0
 308 -33 255 -29 241 -6 c 0
 153 157 100 277 59 386 c 0
 43 430 62 453 82 462 c 0
 103 473 138 467 153 418 c 0
 190 296 239 190 278 102 c 1
 338 218 385 323 417 425 c 0
 431 470 461 477 482 468 c 0
 500 459 515 435 501 391 c 0
 475 309 425 220 320 -7 c 0
EndSplineSet
Validated: 33
EndChar

StartChar: w
Encoding: 119 119 88
Width: 550
GlyphClass: 2
Flags: MW
HStem: -34 500
VStem: 27 499
LayerCount: 2
Fore
SplineSet
448 9 m 0
 439 -19 414 -26 389 -25 c 0
 367 -25 347 -19 336 8 c 0
 302 96 292 245 279 330 c 1
 255 236 243 119 203 -3 c 0
 196 -24 176 -34 161 -34 c 0
 145 -34 123 -26 114 3 c 0
 70 147 38 287 28 413 c 0
 24 446 42 460 64 463 c 0
 86 466 111 457 116 422 c 0
 127 309 152 162 167 75 c 1
 187 177 217 363 237 430 c 0
 245 459 265 467 286 466 c 0
 303 465 321 459 331 429 c 0
 335 414 367 192 397 73 c 1
 415 161 433 317 445 422 c 0
 449 460 474 466 494 462 c 0
 513 458 529 444 525 405 c 0
 512 294 478 96 448 9 c 0
EndSplineSet
Validated: 33
EndChar

StartChar: x
Encoding: 120 120 89
Width: 550
GlyphClass: 2
Flags: MW
HStem: -23 492 -20 493
VStem: 47 451 66 418
LayerCount: 2
Fore
SplineSet
413 5 m 0x60
 373 48 320 107 270 171 c 1
 218 106 146 27 126 0 c 0
 102 -32 78 -25 61 -9 c 0
 47 4 38 24 59 59 c 0xa0
 85 102 167 166 219 239 c 1
 167 306 113 349 82 389 c 0
 58 421 64 445 81 459 c 0
 98 473 127 477 156 446 c 0x90
 185 416 245 343 282 295 c 1
 330 359 372 419 401 449 c 0
 427 476 450 478 467 465 c 0
 482 453 494 427 473 402 c 0x50
 436 357 393 305 334 231 c 1
 331 228 l 1
 387 153 443 109 479 61 c 0
 504 27 502 9 490 -5 c 0
 475 -22 447 -31 413 5 c 0x60
EndSplineSet
Validated: 33
EndChar

StartChar: y
Encoding: 121 121 90
Width: 550
GlyphClass: 2
Flags: MW
HStem: -297 775
VStem: 46 474
LayerCount: 2
Fore
SplineSet
513 397 m 0
 461 274 355 66 185 -271 c 0
 174 -293 145 -307 121 -288 c 0
 104 -275 92 -252 107 -225 c 0
 150 -139 191 -61 228 12 c 1
 151 157 89 293 52 392 c 0
 36 436 52 459 72 468 c 0
 93 479 128 476 143 427 c 0
 176 318 233 200 277 109 c 1
 335 226 384 330 424 433 c 0
 441 478 471 483 492 474 c 0
 510 465 531 440 513 397 c 0
EndSplineSet
Validated: 33
EndChar

StartChar: z
Encoding: 122 122 91
Width: 550
GlyphClass: 2
Flags: MW
HStem: -8 81<416.5 436 175 454.5> -8 477 378 80 381 77
VStem: 64 419
LayerCount: 2
Fore
SplineSet
64 49 m 0xa8
 64 60 67 74 115 123 c 0
 160 169 322 319 374 381 c 1
 276 377 176 375 117 385 c 0x98
 87 390 77 405 77 425 c 0
 76 447 86 472 118 469 c 0
 243 456 352 456 436 461 c 0
 458 462 475 438 476 413 c 0x48
 477 396 456 364 445 347 c 0
 366 230 269 169 175 73 c 1
 304 81 380 81 436 73 c 0
 473 66 482 53 483 35 c 0
 484 14 475 -8 434 -8 c 0
 399 -8 222 0 105 -5 c 0
 80 -6 64 29 64 49 c 0xa8
EndSplineSet
Validated: 33
EndChar

StartChar: braceleft
Encoding: 123 123 92
Width: 550
GlyphClass: 2
Flags: MW
HStem: -93 79<406 447 406 456> 299 94<105 148.5 97 164.5> 716 79<391.5 444.5>
VStem: 211 88<579.5 643.5 579.5 661> 211 89<29 90.5> 260 93<422 456> 266 87<224.5 261.5>
LayerCount: 2
Fore
SplineSet
353 263 m 0xe2
 353 186 300 142 300 51 c 0
 300 7 377 -14 435 -14 c 0
 459 -14 483 -28 483 -51 c 0
 483 -68 473 -93 439 -93 c 0
 322 -93 211 -49 211 44 c 0xe8
 211 137 266 183 266 256 c 0xe2
 266 267 211 299 118 299 c 0
 92 299 71 324 71 349 c 0
 71 373 83 393 111 393 c 0xe4
 186 393 260 400 260 444 c 0
 260 468 211 505 211 603 c 0
 211 719 295 795 439 795 c 0
 464 795 484 779 484 761 c 0
 484 739 454 716 435 716 c 0
 348 716 299 674 299 613 c 0xf0
 299 546 353 472 353 447 c 0xe4
 353 396 286 363 229 350 c 1
 300 329 353 291 353 263 c 0xe2
EndSplineSet
Validated: 1
EndChar

StartChar: bar
Encoding: 124 124 93
Width: 550
GlyphClass: 2
Flags: MW
HStem: -175 958<261.5 286>
VStem: 248 80
LayerCount: 2
Fore
SplineSet
328 735 m 0
 328 621 318 11 322 -132 c 0
 319 -160 298 -176 273 -175 c 0
 250 -175 237 -159 240 -127 c 0
 247 -43 246 603 248 732 c 0
 249 768 263 783 286 783 c 0
 311 784 328 771 328 735 c 0
EndSplineSet
Validated: 33
EndChar

StartChar: braceright
Encoding: 125 125 94
Width: 550
GlyphClass: 2
Flags: MW
HStem: -93 79<110.5 163.5 110.5 188> 319 94<406.5 450 390.5 458> 716 79<108 149>
VStem: 202 87<450.5 487.5> 202 93<256 290 256 290.5> 255 89<611.5 673> 256 88<58.5 122.5>
LayerCount: 2
Fore
SplineSet
202 449 m 0xf0
 202 526 255 560 255 651 c 0
 255 695 178 716 120 716 c 0
 96 716 72 730 72 753 c 0
 72 770 82 795 116 795 c 0
 233 795 344 751 344 658 c 0xe4
 344 565 289 529 289 456 c 0xf0
 289 445 344 413 437 413 c 0
 463 413 484 388 484 363 c 0
 484 339 472 319 444 319 c 0xe8
 369 319 295 312 295 268 c 0
 295 244 344 197 344 99 c 0
 344 -17 260 -93 116 -93 c 0
 91 -93 71 -77 71 -59 c 0
 71 -37 101 -14 120 -14 c 0
 207 -14 256 28 256 89 c 0xe2
 256 156 202 240 202 265 c 0xe8
 202 316 269 349 326 362 c 1
 255 383 202 421 202 449 c 0xf0
EndSplineSet
Validated: 1
EndChar

StartChar: asciitilde
Encoding: 126 126 95
Width: 550
GlyphClass: 2
Flags: MW
HStem: 247 98<340 368.5 340 378.5> 397 99<169 198.5>
VStem: 36 475
LayerCount: 2
Fore
SplineSet
496 478 m 0
 521 467 510 427 496 390 c 0
 449 274 399 247 358 247 c 0
 303 247 274 284 244 337 c 0
 221 376 213 397 184 397 c 0
 154 397 143 366 119 297 c 0
 110 273 78 248 58 253 c 0
 46 256 31 278 38 304 c 0
 71 429 132 496 181 496 c 0
 227 496 256 489 293 418 c 0
 314 378 326 345 354 345 c 0
 383 345 395 341 427 417 c 0
 438 444 466 491 496 478 c 0
EndSplineSet
Validated: 33
EndChar

StartChar: exclamdown
Encoding: 161 161 96
Width: 550
GlyphClass: 2
Flags: MW
HStem: -23 761 594 144<234 234>
VStem: 160 152<645.5 683.5> 182 92
LayerCount: 2
Fore
SplineSet
234 738 m 0x60
 282 743 312 704 312 665 c 0
 312 626 273 596 234 594 c 0
 189 592 160 625 160 664 c 0
 160 703 189 733 234 738 c 0x60
182 25 m 0x90
 182 81 191 213 188 335 c 0
 185 462 191 389 189 462 c 0
 192 490 214 506 239 505 c 0
 262 505 283 489 280 457 c 0
 276 407 269 434 274 280 c 0
 278 176 273 80 272 28 c 0
 271 -8 249 -23 226 -23 c 0
 201 -24 182 -11 182 25 c 0x90
EndSplineSet
Validated: 33
EndChar

StartChar: cent
Encoding: 162 162 97
Width: 550
GlyphClass: 2
Flags: MW
HStem: 74 82<321 321> 507 86
VStem: 48 93 252 69 255 70 256 72
LayerCount: 2
Fore
SplineSet
481 502 m 0xe8
 493 458 474 440 452 431 c 0
 430 423 405 424 392 464 c 0
 385 486 376 504 325 507 c 1xe8
 324 396 322 264 321 156 c 1
 375 161 407 177 412 189 c 0
 430 233 458 234 479 224 c 0
 500 215 516 197 496 156 c 0
 481 124 424 84 321 74 c 1
 321 28 321 -9 322 -32 c 0
 319 -60 298 -76 273 -75 c 0
 256 -75 246 -59 249 -27 c 0
 250 -12 251 23 252 71 c 1xf0
 118 76 46 169 48 264 c 0
 50 450 142 553 256 583 c 1
 256 651 257 705 257 732 c 0
 258 768 268 783 286 783 c 0
 311 784 328 771 328 735 c 0
 328 710 327 658 327 593 c 1
 330 593 l 2xe4
 404 593 469 550 481 502 c 0xe8
141 295 m 0
 138 245 145 169 253 156 c 1
 254 259 255 386 255 497 c 1
 203 474 148 417 141 295 c 0
EndSplineSet
Validated: 33
EndChar

StartChar: sterling
Encoding: 163 163 98
Width: 550
GlyphClass: 2
Flags: MW
HStem: -25 79<347.5 408> 15 79<195.5 259.5 195.5 259.5> 221 84<82.5 142 134.5 142 134.5 144> 223 80<372 382> 598 77<254.5 303.5>
VStem: 86 93<462.5 538 462.5 551>
LayerCount: 2
Fore
SplineSet
144 219 m 1x6c
 144 221 l 1
 99 221 l 2
 66 221 53 243 53 263 c 0
 52 283 64 307 98 306 c 0
 112 306 127 305 142 305 c 1x6c
 129 385 86 398 86 488 c 0
 86 614 159 675 292 675 c 0
 374 675 451 591 465 530 c 0
 473 494 473 475 453 465 c 0
 428 454 391 444 389 484 c 0
 386 544 327 598 280 598 c 0
 229 598 179 572 179 504 c 0
 179 421 227 395 238 304 c 1
 303 303 362 303 382 303 c 0
 414 303 421 284 422 266 c 0
 422 246 415 220 382 223 c 0
 364 225 302 224 238 223 c 0
 238 220 237 217 237 214 c 0
 228 133 170 112 149 74 c 1
 171 84 178 94 213 94 c 0x5c
 306 94 305 54 389 54 c 0
 438 54 507 105 507 74 c 0
 507 62 513 35 509 25 c 0
 492 -16 437 -25 379 -25 c 0x9c
 316 -25 297 15 222 15 c 0
 157 15 164 -9 97 -15 c 0
 69 -18 59 21 59 78 c 0
 59 126 138 145 144 219 c 1x6c
EndSplineSet
Validated: 33
EndChar

StartChar: currency
Encoding: 164 164 99
Width: 550
GlyphClass: 2
Flags: MW
HStem: 97 509 99 512 177 87 459 80<281.5 303>
VStem: 29 493 31 492 104 87 376 75
LayerCount: 2
Fore
SplineSet
261 181 m 0x33
 238 186 214 195 192 208 c 1x38
 174 184 138 144 89 106 c 0
 75 95 51 93 39 109 c 0
 25 124 26 159 39 168 c 0x88
 68 189 110 235 136 258 c 1
 116 285 104 317 104 355 c 0
 104 398 114 435 135 464 c 1x83
 108 483 67 512 41 535 c 0
 28 546 27 579 41 594 c 0
 53 610 79 609 91 597 c 0x84
 128 560 171 534 191 514 c 1
 221 530 259 539 304 539 c 0
 326 539 353 532 377 517 c 1x34
 396 538 428 567 463 602 c 0
 475 614 501 615 513 599 c 0
 527 584 526 551 513 540 c 0x44
 487 516 452 482 428 462 c 1
 444 432 454 393 451 343 c 0
 450 311 441 282 428 257 c 1x43
 452 236 486 194 512 170 c 0
 525 159 526 126 512 111 c 0
 500 95 474 96 462 108 c 0x48
 427 143 395 178 377 201 c 1
 345 180 305 172 261 181 c 0x33
281 264 m 0
 338 260 375 286 376 355 c 0
 376 446 330 459 276 459 c 0
 222 459 192 439 191 358 c 0
 190 303 227 269 281 264 c 0
EndSplineSet
Validated: 33
EndChar

StartChar: yen
Encoding: 165 165 100
Width: 550
GlyphClass: 2
Flags: MW
HStem: 111 67<111 123> 115 66<441.5 452> 244 68 248 66<443.5 452>
VStem: 36 472 232 91<100.5 113 100.5 186.5>
LayerCount: 2
Fore
SplineSet
111 178 m 0x94
 148 177 190 177 232 178 c 1
 232 195 233 215 234 233 c 0
 232 238 229 242 227 246 c 1xa4
 181 245 139 244 113 244 c 0
 80 244 63 258 63 273 c 0
 62 293 74 315 108 314 c 0
 133 313 161 313 189 312 c 1
 174 339 159 365 146 389 c 0
 107 460 66 518 42 583 c 0
 26 627 42 650 62 659 c 0
 83 670 118 667 133 618 c 0
 156 543 192 486 225 429 c 0
 243 398 258 367 272 338 c 1
 286 367 301 398 319 429 c 0
 352 486 388 543 411 618 c 0
 426 667 461 670 482 659 c 0
 502 650 518 627 502 583 c 0
 478 518 437 460 398 389 c 0xa8
 385 365 370 340 355 313 c 1
 399 313 435 314 452 314 c 0
 484 314 491 297 492 279 c 0
 492 264 485 245 452 248 c 0
 434 250 384 249 327 248 c 1
 325 227 324 204 323 179 c 1
 382 180 431 181 452 181 c 0
 484 181 491 169 492 156 c 0
 492 136 485 112 452 115 c 0
 434 117 382 116 323 115 c 1
 323 86 323 55 325 21 c 0
 325 -9 235 -7 235 21 c 0x54
 231 57 232 81 232 113 c 1
 182 112 137 111 109 111 c 0
 76 111 63 131 63 151 c 0
 62 166 77 179 111 178 c 0x94
EndSplineSet
Validated: 33
EndChar

StartChar: brokenbar
Encoding: 166 166 101
Width: 550
GlyphClass: 2
Flags: MW
HStem: -14 736
VStem: 230 92 233 89
LayerCount: 2
Fore
SplineSet
329 680 m 0xc0
 330 640 328 510 322 461 c 0xc0
 318 434 295 416 277 417 c 0
 256 418 232 428 233 457 c 0xa0
 229 515 232 641 230 685 c 0
 228 718 262 723 282 722 c 0
 302 722 328 714 329 680 c 0xc0
329 249 m 0
 330 209 328 72 322 23 c 0xc0
 318 -4 295 -15 277 -14 c 0
 256 -13 232 2 233 31 c 0xa0
 232 81 229 201 230 254 c 0
 231 287 262 292 282 291 c 0
 302 291 328 283 329 249 c 0
EndSplineSet
Validated: 33
EndChar

StartChar: dieresis
Encoding: 168 168 102
Width: 550
GlyphClass: 2
Flags: MW
HStem: 609 120<186 186 363 363>
VStem: 126 118<654.5 686> 302 118<654 686>
LayerCount: 2
Fore
SplineSet
363 609 m 0
 325 605 302 637 302 670 c 0
 302 702 332 727 363 729 c 0
 398 730 420 703 420 670 c 0
 420 638 398 613 363 609 c 0
186 609 m 0
 149 605 126 637 126 670 c 0
 126 702 156 727 186 729 c 0
 222 730 244 703 244 670 c 0
 244 639 222 613 186 609 c 0
EndSplineSet
Validated: 33
EndChar

StartChar: guillemotleft
Encoding: 171 171 103
Width: 550
GlyphClass: 2
Flags: MW
HStem: 85 435 85 437 87 435
VStem: 24 506
LayerCount: 2
Fore
SplineSet
38 345 m 0x50
 119 402 209 484 256 513 c 0
 293 536 309 510 318 490 c 0
 325 474 316 460 283 438 c 0
 225 402 189 356 119 303 c 1
 172 264 218 217 278 176 c 0
 312 150 323 135 315 117 c 0
 306 99 288 74 252 95 c 0x30
 179 139 133 198 39 265 c 0
 20 276 18 329 38 345 c 0x50
248 343 m 0
 329 400 419 482 466 511 c 0
 503 534 519 508 528 488 c 0
 535 472 526 458 493 436 c 0
 435 400 399 354 329 301 c 1
 382 262 428 215 488 174 c 0
 522 148 533 133 525 115 c 0
 516 97 498 72 462 93 c 0x90
 389 137 343 196 249 263 c 0
 230 274 228 327 248 343 c 0
EndSplineSet
Validated: 33
EndChar

StartChar: logicalnot
Encoding: 172 172 104
Width: 550
GlyphClass: 2
Flags: MW
HStem: 341 85<99 99>
VStem: 428 79
LayerCount: 2
Fore
SplineSet
98 426 m 0
 205 422 372 423 440 423 c 1
 447 430 457 433 467 433 c 0
 487 434 511 421 509 388 c 0
 506 267 506 229 507 184 c 0
 507 152 488 145 470 144 c 0
 449 143 427 150 429 183 c 0
 432 218 429 279 428 344 c 1
 347 345 165 341 99 341 c 0
 66 341 53 363 53 383 c 0
 52 403 64 427 98 426 c 0
EndSplineSet
Validated: 33
EndChar

StartChar: macron
Encoding: 175 175 105
Width: 550
GlyphClass: 2
Flags: MW
HStem: 541 82
VStem: 70 409<576 583 573 586>
LayerCount: 2
Fore
SplineSet
110 623 m 0
 157 623 306 622 434 626 c 0
 468 627 480 603 479 583 c 0
 479 563 466 541 433 541 c 0
 350 541 156 541 110 543 c 0
 77 544 70 566 70 586 c 0
 71 604 78 623 110 623 c 0
EndSplineSet
Validated: 33
EndChar

StartChar: degree
Encoding: 176 176 106
Width: 550
GlyphClass: 2
Flags: MW
HStem: 502 62<248 278 248 292.5> 675 62<249 288.5>
VStem: 137 77 316 72<602.5 622.5>
LayerCount: 2
Fore
SplineSet
259 502 m 0
 181 502 137 552 137 618 c 0
 137 667 165 737 275 737 c 0
 369 737 388 679 388 605 c 0
 388 555 326 502 259 502 c 0
266 564 m 0
 290 564 316 591 316 614 c 0
 316 631 309 675 268 675 c 0
 230 675 213 646 214 616 c 0
 215 590 230 564 266 564 c 0
EndSplineSet
Validated: 33
EndChar

StartChar: plusminus
Encoding: 177 177 107
Width: 550
GlyphClass: 2
Flags: MW
HStem: 11 85<99 99> 301 82 304 79<316 316>
VStem: 237 80<184 194.5 168 303 383 403>
LayerCount: 2
Fore
SplineSet
98 386 m 0xb0
 139 385 188 384 237 383 c 1
 237 430 236 474 235 503 c 0
 233 536 257 543 277 543 c 0
 297 544 322 538 320 504 c 0
 318 465 317 423 317 383 c 1
 462 383 l 2
 494 383 501 364 502 346 c 0
 502 326 495 300 462 303 c 0
 443 305 383 305 316 304 c 1xb0
 316 250 317 205 317 184 c 0
 317 152 298 145 280 144 c 0
 260 144 237 151 237 184 c 2
 237 303 l 1
 181 302 129 301 99 301 c 0
 66 301 53 323 53 343 c 0xd0
 52 363 64 387 98 386 c 0xb0
98 96 m 0
 219 92 417 93 462 93 c 0
 494 93 501 74 502 56 c 0
 502 36 495 10 462 13 c 0
 420 17 178 11 99 11 c 0
 66 11 53 33 53 53 c 0
 52 73 64 97 98 96 c 0
EndSplineSet
Validated: 33
EndChar

StartChar: acute
Encoding: 180 180 108
Width: 550
GlyphClass: 2
Flags: MW
HStem: 560 248
VStem: 147 224
LayerCount: 2
Fore
SplineSet
360 732 m 0
 320 678 260 617 224 581 c 0
 199 556 169 555 155 569 c 0
 140 582 145 614 169 637 c 0
 213 677 255 743 290 791 c 0
 308 813 343 813 360 799 c 0
 372 786 377 755 360 732 c 0
EndSplineSet
Validated: 33
EndChar

StartChar: cedilla
Encoding: 184 184 109
Width: 550
GlyphClass: 2
Flags: MW
HStem: -250 59<264 299 264 324.5>
VStem: 238 73 331 71<-159.5 -114>
LayerCount: 2
Fore
SplineSet
308 3 m 0
 292 -56 402 -78 402 -135 c 0
 402 -189 374 -250 275 -250 c 0
 208 -250 182 -222 164 -190 c 0
 151 -167 159 -138 174 -131 c 0
 192 -123 209 -124 221 -148 c 0
 231 -169 247 -191 281 -191 c 0
 317 -191 331 -175 331 -144 c 0
 331 -84 219 -90 241 -2 c 0
 248 26 256 50 285 49 c 0
 316 48 313 23 308 3 c 0
EndSplineSet
Validated: 33
EndChar

StartChar: guillemotright
Encoding: 187 187 110
Width: 550
GlyphClass: 2
Flags: MW
HStem: 85 435 85 437 87 435
VStem: -18 506
LayerCount: 2
Fore
SplineSet
474 345 m 0x50
 494 329 492 276 473 265 c 0
 379 198 333 139 260 95 c 0
 224 74 206 99 197 117 c 0
 189 135 200 150 234 176 c 0
 294 217 340 264 393 303 c 1
 323 356 287 402 229 438 c 0
 196 460 187 474 194 490 c 0
 203 510 219 536 256 513 c 0x30
 303 484 393 402 474 345 c 0x50
264 343 m 0
 284 327 282 274 263 263 c 0
 169 196 123 137 50 93 c 0
 14 72 -4 97 -13 115 c 0
 -21 133 -10 148 24 174 c 0
 84 215 130 262 183 301 c 1
 113 354 77 400 19 436 c 0
 -14 458 -23 472 -16 488 c 0
 -7 508 9 534 46 511 c 0x90
 93 482 183 400 264 343 c 0
EndSplineSet
Validated: 33
EndChar

StartChar: onequarter
Encoding: 188 188 111
Width: 550
GlyphClass: 2
Flags: MW
HStem: 55 60<412 427 412 427.5> 57 60<277 288> 329 64 433 54 433 59<140 164.5 139.5 178.5>
VStem: 248 74 285 82 293 75
LayerCount: 2
Fore
SplineSet
151 492 m 0x69
 178 492 212 491 245 491 c 1
 247 501 249 510 248 523 c 0x6c
 246 556 252 618 255 679 c 1
 239 667 213 649 195 644 c 0
 178 640 160 660 162 676 c 0
 162 687 167 694 183 703 c 0
 242 738 257 764 276 764 c 0
 299 764 329 747 329 740 c 0
 328 713 321 599 321 577 c 0
 321 562 322 557 322 543 c 0
 322 522 323 506 324 489 c 1
 363 488 395 487 406 487 c 0x74
 433 487 439 478 439 468 c 0
 440 450 433 431 405 431 c 0
 380 431 206 433 151 433 c 0
 129 433 123 450 123 468 c 0
 122 480 128 492 151 492 c 0x69
86 392 m 0
 251 389 405 393 468 393 c 0
 497 393 504 380 505 367 c 0
 505 349 498 331 468 331 c 0
 413 331 195 329 87 329 c 0
 57 329 50 347 50 364 c 0
 49 378 55 393 86 392 c 0
322 -17 m 0xaa
 306 -17 286 -5 285 5 c 0xaa
 285 12 286 31 288 57 c 1
 235 57 179 55 145 50 c 0
 110 45 93 87 106 116 c 0x6a
 119 143 199 222 248 277 c 0
 263 294 288 296 308 296 c 0
 328 297 358 293 362 277 c 0
 373 231 370 174 368 116 c 1
 391 115 408 115 416 115 c 0
 438 115 443 107 443 97 c 0
 443 77 439 55 416 55 c 0xa9
 408 55 390 55 367 56 c 1
 368 39 368 22 370 6 c 0
 371 -3 359 -17 322 -17 c 0xaa
294 222 m 1x69
 262 191 225 151 201 116 c 1
 230 117 262 117 292 117 c 1
 294 151 295 188 294 222 c 1x69
EndSplineSet
Validated: 33
EndChar

StartChar: questiondown
Encoding: 191 191 112
Width: 550
GlyphClass: 2
Flags: MW
HStem: -13 79<257 313.5 257 342.5> 531 144<269 269>
VStem: 191 152<582.5 620.5 581.5 621.5> 389 93<124.5 201.5>
LayerCount: 2
Fore
SplineSet
269 675 m 0
 314 670 343 640 343 601 c 0
 343 562 314 529 269 531 c 0
 230 533 191 563 191 602 c 0
 191 641 221 680 269 675 c 0
317 417 m 0
 336 294 482 299 482 174 c 0
 482 48 409 -13 276 -13 c 0
 186 -13 127 56 103 102 c 0
 86 135 95 157 115 167 c 0
 140 178 156 182 179 148 c 0
 200 116 234 66 280 66 c 0
 347 66 389 91 389 158 c 0
 389 245 258 263 226 389 c 0
 216 429 226 452 261 461 c 0
 297 470 313 446 317 417 c 0
EndSplineSet
Validated: 33
EndChar

StartChar: Agrave
Encoding: 192 192 113
Width: 550
GlyphClass: 2
Flags: MW
HStem: 235 62 235 75 740 248
VStem: 33 498 169 224
LayerCount: 2
Fore
SplineSet
316 761 m 0x68
 280 797 220 858 180 912 c 0
 163 935 168 966 180 979 c 0
 197 993 232 993 250 971 c 0
 285 923 327 857 371 817 c 0
 395 794 400 762 385 749 c 0
 371 735 341 736 316 761 c 0x68
503 -2 m 0x50
 482 -11 455 -4 439 38 c 0
 429 63 412 140 392 235 c 1
 345 233 254 227 178 215 c 1
 148 132 125 62 117 38 c 0
 104 -4 77 -11 56 -2 c 0
 36 7 27 30 36 69 c 0
 40 89 61 145 90 215 c 1
 79 222 73 232 73 242 c 0
 72 259 92 277 118 285 c 1
 175 418 247 573 295 642 c 0
 312 666 325 678 343 678 c 0
 364 680 388 672 393 642 c 0
 414 515 497 116 523 69 c 0
 542 34 523 7 503 -2 c 0x50
325 563 m 1
 293 514 248 404 208 297 c 1x90
 276 305 336 309 377 310 c 1
 359 396 341 487 325 563 c 1
EndSplineSet
Validated: 33
EndChar

StartChar: Aacute
Encoding: 193 193 114
Width: 550
GlyphClass: 2
Flags: MW
HStem: 235 62 235 75 740 248
VStem: 33 498 170 224
LayerCount: 2
Fore
SplineSet
383 912 m 0x68
 343 858 283 797 247 761 c 0
 222 736 192 735 178 749 c 0
 163 762 168 794 192 817 c 0
 236 857 278 923 313 971 c 0
 331 993 366 993 383 979 c 0
 395 966 400 935 383 912 c 0x68
503 -2 m 0x70
 482 -11 455 -4 439 38 c 0
 429 63 412 140 392 235 c 1
 345 233 254 227 178 215 c 1
 148 132 125 62 117 38 c 0
 104 -4 77 -11 56 -2 c 0
 36 7 27 30 36 69 c 0
 40 89 61 145 90 215 c 1
 79 222 73 232 73 242 c 0
 72 259 92 277 118 285 c 1
 175 418 247 573 295 642 c 0
 312 666 325 678 343 678 c 0
 364 680 388 672 393 642 c 0
 414 515 497 116 523 69 c 0
 542 34 523 7 503 -2 c 0x70
325 563 m 1
 293 514 248 404 208 297 c 1xb0
 276 305 336 309 377 310 c 1
 359 396 341 487 325 563 c 1
EndSplineSet
Validated: 33
EndChar

StartChar: Acircumflex
Encoding: 194 194 115
Width: 550
GlyphClass: 2
Flags: MW
HStem: 235 62 235 75
VStem: 33 498 67 429
LayerCount: 2
Fore
SplineSet
431 744 m 0x50
 417 747 345 900 283 971 c 1
 228 903 149 749 132 744 c 0
 100 736 82 743 72 760 c 0
 61 776 68 793 87 820 c 0
 119 866 217 1008 251 1058 c 0
 257 1067 270 1067 281 1067 c 0
 291 1067 302 1066 309 1058 c 0
 344 1013 428 874 460 826 c 0
 479 798 504 773 493 757 c 0
 483 740 465 737 431 744 c 0x50
503 -2 m 0x60
 482 -11 455 -4 439 38 c 0
 429 63 412 140 392 235 c 1
 345 233 254 227 178 215 c 1
 148 132 125 62 117 38 c 0
 104 -4 77 -11 56 -2 c 0
 36 7 27 30 36 69 c 0
 40 89 61 145 90 215 c 1
 79 222 73 232 73 242 c 0
 72 259 92 277 118 285 c 1
 175 418 247 573 295 642 c 0
 312 666 325 678 343 678 c 0
 364 680 388 672 393 642 c 0
 414 515 497 116 523 69 c 0
 542 34 523 7 503 -2 c 0x60
325 563 m 1
 293 514 248 404 208 297 c 1xa0
 276 305 336 309 377 310 c 1
 359 396 341 487 325 563 c 1
EndSplineSet
Validated: 33
EndChar

StartChar: Atilde
Encoding: 195 195 116
Width: 550
GlyphClass: 2
Flags: MW
HStem: 235 62 235 75 740 81<329 351 329 364.5> 824 81<204 225 188 227>
VStem: 33 498
LayerCount: 2
Fore
SplineSet
446 888 m 0x68
 464 882 465 855 455 833 c 0
 419 766 381 740 348 740 c 0x68
 307 740 285 761 262 792 c 0
 245 816 238 824 216 824 c 0
 192 824 190 811 166 768 c 0
 158 754 134 751 119 754 c 0
 110 756 99 768 103 783 c 0
 128 856 169 905 207 905 c 0x58
 243 905 265 904 293 862 c 0
 309 839 318 821 340 821 c 0
 362 821 371 818 396 862 c 0
 404 877 422 896 446 888 c 0x68
503 -2 m 0x58
 482 -11 455 -4 439 38 c 0
 429 63 412 140 392 235 c 1
 345 233 254 227 178 215 c 1
 148 132 125 62 117 38 c 0
 104 -4 77 -11 56 -2 c 0
 36 7 27 30 36 69 c 0
 40 89 61 145 90 215 c 1
 79 222 73 232 73 242 c 0
 72 259 92 277 118 285 c 1
 175 418 247 573 295 642 c 0
 312 666 325 678 343 678 c 0
 364 680 388 672 393 642 c 0
 414 515 497 116 523 69 c 0
 542 34 523 7 503 -2 c 0x58
325 563 m 1
 293 514 248 404 208 297 c 1x98
 276 305 336 309 377 310 c 1
 359 396 341 487 325 563 c 1
EndSplineSet
Validated: 33
EndChar

StartChar: Adieresis
Encoding: 196 196 117
Width: 550
GlyphClass: 2
Flags: MW
HStem: 235 62 235 75 740 120<195 195 372 372>
VStem: 33 498 135 118<785.5 817> 311 118<785 817>
LayerCount: 2
Fore
SplineSet
372 740 m 0x6c
 334 736 311 768 311 801 c 0
 311 833 341 858 372 860 c 0
 407 861 429 834 429 801 c 0
 429 769 407 744 372 740 c 0x6c
195 740 m 0
 158 736 135 768 135 801 c 0
 135 833 165 858 195 860 c 0
 231 861 253 834 253 801 c 0
 253 770 231 744 195 740 c 0
503 -2 m 0x70
 482 -11 455 -4 439 38 c 0
 429 63 412 140 392 235 c 1
 345 233 254 227 178 215 c 1
 148 132 125 62 117 38 c 0
 104 -4 77 -11 56 -2 c 4
 36 7 27 30 36 69 c 0
 40 89 61 145 90 215 c 1
 79 222 73 232 73 242 c 0
 72 259 92 277 118 285 c 1
 175 418 247 573 295 642 c 0
 312 666 325 678 343 678 c 0
 364 680 388 672 393 642 c 0
 414 515 497 116 523 69 c 0
 542 34 523 7 503 -2 c 0x70
325 563 m 1
 293 514 248 404 208 297 c 1xb0
 276 305 336 309 377 310 c 1
 359 396 341 487 325 563 c 1
EndSplineSet
Validated: 33
EndChar

StartChar: Aring
Encoding: 197 197 118
Width: 550
VWidth: 2048
GlyphClass: 2
Flags: HMW
LayerCount: 2
Fore
SplineSet
290 794 m 0
 256 794 229.166666667 803.833333333 209.5 823.5 c 128
 189.833333333 843.166666667 180 868.333333333 180 899 c 0
 180 909 181 918.666666667 183 928 c 128
 185 937.333333333 189 946.833333333 195 956.5 c 128
 201 966.166666667 208.5 974.666666667 217.5 982 c 128
 226.5 989.333333333 238.5 995.333333333 253.5 1000 c 128
 268.5 1004.66666667 285.333333333 1007 304 1007 c 0
 320 1007 334.333333333 1005 347 1001 c 128
 359.666666667 997 369.666666667 991.666666667 377 985 c 128
 384.333333333 978.333333333 390.166666667 969.666666667 394.5 959 c 128
 398.833333333 948.333333333 401.833333333 937.333333333 403.5 926 c 128
 405.166666667 914.666666667 406 901.666666667 406 887 c 0
 406 863.666666667 394.166666667 842.333333333 370.5 823 c 128
 346.833333333 803.666666667 320 794 290 794 c 0
298 849 m 0
 309.333333333 849 320.166666667 854.166666667 330.5 864.5 c 128
 340.833333333 874.833333333 346 885.666666667 346 897 c 0
 346 902.333333333 345.333333333 907.833333333 344 913.5 c 128
 342.666666667 919.166666667 340.5 925.333333333 337.5 932 c 128
 334.5 938.666666667 329.833333333 944.166666667 323.5 948.5 c 128
 317.166666667 952.833333333 309.333333333 955 300 955 c 0
 282.666666667 955 269.5 949.333333333 260.5 938 c 128
 251.5 926.666666667 247.333333333 913.333333333 248 898 c 0
 248 884 252.333333333 872.333333333 261 863 c 128
 269.666666667 853.666666667 282 849 298 849 c 0
531 -2 m 0
 518.333333333 -7.33333333333 505.666666667 -6.83333333333 493 -0.5 c 128
 480.333333333 5.83333333333 470 19.3333333333 462 40 c 0
 453.333333333 60.6666666667 436.666666667 131.333333333 412 252 c 1
 326.666666667 248.666666667 250 241.333333333 182 230 c 1
 164 179.333333333 142 116 116 40 c 0
 110 19.3333333333 100.833333333 5.66666666667 88.5 -1 c 128
 76.1666666667 -7.66666666667 63.6666666667 -8 51 -2 c 0
 27.6666666667 8.66666666667 20.3333333333 34 29 74 c 0
 33 95.3333333333 52.3333333333 147.333333333 87 230 c 1
 75 238 69 247.666666667 69 259 c 0
 68.3333333333 268.333333333 72.6666666667 277.333333333 82 286 c 128
 91.3333333333 294.666666667 103.333333333 301 118 305 c 1
 199.333333333 496.333333333 262.333333333 624 307 688 c 0
 317 702 325.833333333 712 333.5 718 c 128
 341.166666667 724 349.666666667 727 359 727 c 0
 372.333333333 728.333333333 384 726 394 720 c 128
 404 714 410.333333333 703.333333333 413 688 c 0
 427 605.333333333 450.5 488 483.5 336 c 128
 516.5 184 539.333333333 96.6666666667 552 74 c 0
 558.666666667 61.3333333333 561.333333333 49.8333333333 560 39.5 c 128
 558.666666667 29.1666666667 555.5 20.5 550.5 13.5 c 128
 545.5 6.5 539 1.33333333333 531 -2 c 0
340 604 m 1
 310.666666667 559.333333333 268.666666667 464.333333333 214 319 c 1
 282 327 342.666666667 331.333333333 396 332 c 1
 390 362.666666667 380.666666667 408.833333333 368 470.5 c 128
 355.333333333 532.166666667 346 576.666666667 340 604 c 1
EndSplineSet
EndChar

StartChar: AE
Encoding: 198 198 119
Width: 550
VWidth: 2048
GlyphClass: 2
Flags: HMW
LayerCount: 2
Fore
SplineSet
322 -15 m 4
 314 -21 304.333333333 -20.6666666667 293 -14 c 132
 281.666666667 -7.33333333333 273.666666667 6.33333333333 269 27 c 4
 263.666666667 47.6666666667 253.333333333 118.333333333 238 239 c 5
 209.333333333 237 171.333333333 229.666666667 124 217 c 5
 112.666666667 166.333333333 99 103 83 27 c 4
 81.6666666667 18.3333333333 79.1666666667 10.8333333333 75.5 4.5 c 132
 71.8333333333 -1.83333333333 67.8333333333 -6.66666666667 63.5 -10 c 132
 59.1666666667 -13.3333333333 54.6666666667 -15.8333333333 50 -17.5 c 132
 45.3333333333 -19.1666666667 41 -19.6666666667 37 -19 c 132
 33 -18.3333333333 29.6666666667 -17 27 -15 c 4
 12.3333333333 -4.33333333333 8 21 14 61 c 4
 16.6666666667 82.3333333333 28.6666666667 134.333333333 50 217 c 5
 42.6666666667 225 38.6666666667 234.666666667 38 246 c 4
 38 255.333333333 40.8333333333 264.333333333 46.5 273 c 132
 52.1666666667 281.666666667 59.3333333333 288 68 292 c 5
 118.666666667 483.333333333 157.666666667 611.333333333 185 676 c 4
 191 690 196.333333333 699.833333333 201 705.5 c 132
 205.666666667 711.166666667 210.666666667 714 216 714 c 4
 224 715.333333333 231.166666667 713 237.5 707 c 132
 243.833333333 701 247.666666667 690.666666667 249 676 c 4
 257.666666667 593.333333333 272.166666667 475.833333333 292.5 323.5 c 132
 312.833333333 171.166666667 327 83.6666666667 335 61 c 4
 339 48.3333333333 340.666666667 36.8333333333 340 26.5 c 132
 339.333333333 16.1666666667 337.333333333 7.5 334 0.5 c 132
 330.666666667 -6.5 326.666666667 -11.6666666667 322 -15 c 4
210 591 m 5
 204 575 197.5 552.833333333 190.5 524.5 c 132
 183.5 496.166666667 175.333333333 459 166 413 c 132
 156.666666667 367 149 331.333333333 143 306 c 5
 151 307.333333333 160.333333333 309 171 311 c 132
 181.666666667 313 189 314.333333333 193 315 c 132
 197 315.666666667 202.333333333 316.5 209 317.5 c 132
 215.666666667 318.5 222 319 228 319 c 5
 224 351 220.833333333 397.833333333 218.5 459.5 c 132
 216.166666667 521.166666667 213.333333333 565 210 591 c 5
547 -20 m 4
 539.666666667 -19.3333333333 521.833333333 -20.3333333333 493.5 -23 c 132
 465.166666667 -25.6666666667 434.166666667 -28.3333333333 400.5 -31 c 132
 366.833333333 -33.6666666667 340.333333333 -34 321 -32 c 4
 310.333333333 -30.6666666667 298 -22.6666666667 284 -8 c 132
 270 6.66666666667 261.333333333 23.6666666667 258 43 c 4
 254.666666667 60.3333333333 250.833333333 89.8333333333 246.5 131.5 c 132
 242.166666667 173.166666667 237 225 231 287 c 132
 225 349 218.666666667 404.666666667 212 454 c 4
 208.666666667 482.666666667 205.833333333 507.666666667 203.5 529 c 132
 201.166666667 550.333333333 199.333333333 572.166666667 198 594.5 c 132
 196.666666667 616.833333333 195.666666667 631.333333333 195 638 c 4
 193.666666667 655.333333333 196.833333333 668.833333333 204.5 678.5 c 132
 212.166666667 688.166666667 220.666666667 693 230 693 c 4
 240.666666667 694.333333333 249.666666667 688.666666667 257 676 c 5
 279.666666667 681.333333333 306.666666667 684.666666667 338 686 c 132
 369.333333333 687.333333333 397.166666667 687.333333333 421.5 686 c 132
 445.833333333 684.666666667 465.333333333 682.666666667 480 680 c 4
 490 678 497.166666667 673.833333333 501.5 667.5 c 132
 505.833333333 661.166666667 509 652.666666667 511 642 c 4
 511 634.666666667 510.833333333 627.5 510.5 620.5 c 132
 510.166666667 613.5 508.166666667 607.833333333 504.5 603.5 c 132
 500.833333333 599.166666667 495.666666667 597.666666667 489 599 c 4
 449.666666667 603 410.5 604.166666667 371.5 602.5 c 132
 332.5 600.833333333 299 597 271 591 c 5
 276.333333333 521 282.666666667 452.666666667 290 386 c 5
 320.666666667 386 361.666666667 388.5 413 393.5 c 132
 464.333333333 398.5 493 401 499 401 c 4
 515.666666667 401 526 388.333333333 530 363 c 4
 532.666666667 333.666666667 525.333333333 319 508 319 c 4
 500.666666667 319 469.166666667 315.833333333 413.5 309.5 c 132
 357.833333333 303.166666667 320 299.666666667 300 299 c 5
 302 284.333333333 304.166666667 265.166666667 306.5 241.5 c 132
 308.833333333 217.833333333 311 197.5 313 180.5 c 132
 315 163.5 317.166666667 146 319.5 128 c 132
 321.833333333 110 323.833333333 95.1666666667 325.5 83.5 c 132
 327.166666667 71.8333333333 329 63.6666666667 331 59 c 5
 342.333333333 54.3333333333 374.5 53.6666666667 427.5 57 c 132
 480.5 60.3333333333 514.333333333 64.3333333333 529 69 c 4
 535 70.3333333333 540 71 544 71 c 132
 548 71 551.833333333 69.8333333333 555.5 67.5 c 132
 559.166666667 65.1666666667 562 62.6666666667 564 60 c 132
 566 57.3333333333 567.666666667 53.8333333333 569 49.5 c 132
 570.333333333 45.1666666667 571.5 41.3333333333 572.5 38 c 132
 573.5 34.6666666667 574 31 574 27 c 4
 575.333333333 14.3333333333 574 3 570 -7 c 132
 566 -17 558.333333333 -21.3333333333 547 -20 c 4
EndSplineSet
EndChar

StartChar: Ccedilla
Encoding: 199 199 120
Width: 550
GlyphClass: 2
Flags: MW
HStem: -250 59<264 299 264 324.5> -26 81 591 76<316.5 370.5 288.5 378>
VStem: 38 93<182.5 323 182.5 334> 331 71<-159.5 -117.5> 423 96<511 557.5>
LayerCount: 2
Fore
SplineSet
359 667 m 0
 382 667 404 664 422 659 c 1
 427 678 444 690 460 692 c 0
 478 695 505 683 511 656 c 0
 522 607 519 568 519 547 c 0
 519 520 495 487 475 485 c 0
 455 482 423 497 423 525 c 0
 423 535 424 548 425 564 c 1
 410 574 390 591 366 591 c 0
 267 591 131 422 131 224 c 0
 131 141 186 55 258 55 c 0
 343 55 405 92 438 118 c 0
 459 133 479 143 498 129 c 0
 515 116 524 94 494 60 c 0
 465 26 411 -15 310 -26 c 1
 329 -65 402 -88 402 -135 c 0
 402 -189 374 -250 275 -250 c 0
 208 -250 182 -222 164 -190 c 0
 151 -167 159 -138 174 -131 c 0
 192 -123 209 -124 221 -148 c 0
 231 -169 247 -191 281 -191 c 0
 317 -191 331 -175 331 -144 c 0
 331 -91 243 -89 238 -29 c 1
 112 -24 38 89 38 194 c 0
 38 474 218 667 359 667 c 0
EndSplineSet
Validated: 33
EndChar

StartChar: Egrave
Encoding: 200 200 121
Width: 550
GlyphClass: 2
Flags: MW
HStem: -17 80 310 76<428.5 465 427 465.5> 574 79 740 248
VStem: 39 91 39 92 159 224
LayerCount: 2
Fore
SplineSet
306 761 m 0xba
 270 797 210 858 170 912 c 0
 153 935 158 966 170 979 c 0
 187 993 222 993 240 971 c 0
 275 923 317 857 361 817 c 0
 385 794 390 762 375 749 c 0
 361 735 331 736 306 761 c 0xba
455 -6 m 0
 413 -2 211 -24 111 -17 c 0
 84 -15 48 13 43 53 c 0
 35 110 45 269 39 435 c 0
 36 524 40 563 41 607 c 0
 42 643 64 658 87 658 c 0
 102 659 116 654 125 642 c 1
 239 658 405 653 464 646 c 0
 496 642 503 629 504 611 c 0
 504 591 497 567 464 570 c 0
 351 579 215 574 134 563 c 1
 132 514 130 452 130 372 c 1xe8
 250 373 405 386 449 386 c 0
 481 386 488 369 489 351 c 0
 489 331 482 310 449 310 c 0
 408 310 215 292 131 291 c 1
 133 204 131 91 140 67 c 1xe4
 167 57 401 69 442 77 c 0
 495 87 503 56 504 38 c 0
 504 18 491 -9 455 -6 c 0
EndSplineSet
Validated: 33
EndChar

StartChar: Eacute
Encoding: 201 201 122
Width: 550
GlyphClass: 2
Flags: MW
HStem: -17 80 310 76<428.5 465 427 465.5> 574 79 740 248
VStem: 39 91 39 92 159 224
LayerCount: 2
Fore
SplineSet
372 912 m 0xba
 332 858 272 797 236 761 c 0
 211 736 181 735 167 749 c 0
 152 762 157 794 181 817 c 0
 225 857 267 923 302 971 c 0
 320 993 355 993 372 979 c 0
 384 966 389 935 372 912 c 0xba
455 -6 m 0
 413 -2 211 -24 111 -17 c 0
 84 -15 48 13 43 53 c 0
 35 110 45 269 39 435 c 0
 36 524 40 563 41 607 c 0
 42 643 64 658 87 658 c 0
 102 659 116 654 125 642 c 1
 239 658 405 653 464 646 c 0
 496 642 503 629 504 611 c 0
 504 591 497 567 464 570 c 0
 351 579 215 574 134 563 c 1
 132 514 130 452 130 372 c 1xe8
 250 373 405 386 449 386 c 0
 481 386 488 369 489 351 c 0
 489 331 482 310 449 310 c 0
 408 310 215 292 131 291 c 1
 133 204 131 91 140 67 c 1xe4
 167 57 401 69 442 77 c 0
 495 87 503 56 504 38 c 0
 504 18 491 -9 455 -6 c 0
EndSplineSet
Validated: 33
EndChar

StartChar: Ecircumflex
Encoding: 202 202 123
Width: 550
GlyphClass: 2
Flags: MW
HStem: -17 80 310 76<428.5 465 427 465.5> 574 79
VStem: 39 91 39 92 57 429
LayerCount: 2
Fore
SplineSet
421 744 m 0xa4
 407 747 335 900 273 971 c 1
 218 903 139 749 122 744 c 0
 90 736 72 743 62 760 c 0
 51 776 58 793 77 820 c 0
 109 866 207 1008 241 1058 c 0
 247 1067 260 1067 271 1067 c 0
 281 1067 292 1066 299 1058 c 0
 334 1013 418 874 450 826 c 0
 469 798 494 773 483 757 c 0
 473 740 455 737 421 744 c 0xa4
455 -6 m 0
 413 -2 211 -24 111 -17 c 0
 84 -15 48 13 43 53 c 0
 35 110 45 269 39 435 c 0
 36 524 40 563 41 607 c 0
 42 643 64 658 87 658 c 0
 102 659 116 654 125 642 c 1
 239 658 405 653 464 646 c 0
 496 642 503 629 504 611 c 0
 504 591 497 567 464 570 c 0
 351 579 215 574 134 563 c 1
 132 514 130 452 130 372 c 1xf0
 250 373 405 386 449 386 c 0
 481 386 488 369 489 351 c 0
 489 331 482 310 449 310 c 0
 408 310 215 292 131 291 c 1
 133 204 131 91 140 67 c 1xe8
 167 57 401 69 442 77 c 0
 495 87 503 56 504 38 c 0
 504 18 491 -9 455 -6 c 0
EndSplineSet
Validated: 33
EndChar

StartChar: Edieresis
Encoding: 203 203 124
Width: 550
GlyphClass: 2
Flags: MW
HStem: -17 80 310 76<428.5 465 427 465.5> 574 79 740 120<184 184 361 361>
VStem: 39 91 39 92 124 118<785.5 817> 300 118<785 817>
LayerCount: 2
Fore
SplineSet
361 740 m 0xb9
 323 736 300 768 300 801 c 0
 300 833 330 858 361 860 c 0
 396 861 418 834 418 801 c 0
 418 769 396 744 361 740 c 0xb9
184 740 m 0xb3
 147 736 124 768 124 801 c 0
 124 833 154 858 184 860 c 0
 220 861 242 834 242 801 c 0
 242 770 220 744 184 740 c 0xb3
455 -6 m 0
 413 -2 211 -24 111 -17 c 0
 84 -15 48 13 43 53 c 0
 35 110 45 269 39 435 c 0
 36 524 40 563 41 607 c 0
 42 643 64 658 87 658 c 0
 102 659 116 654 125 642 c 1
 239 658 405 653 464 646 c 0
 496 642 503 629 504 611 c 0
 504 591 497 567 464 570 c 0
 351 579 215 574 134 563 c 1
 132 514 130 452 130 372 c 1xf9
 250 373 405 386 449 386 c 0
 481 386 488 369 489 351 c 0
 489 331 482 310 449 310 c 0
 408 310 215 292 131 291 c 1
 133 204 131 91 140 67 c 1xf5
 167 57 401 69 442 77 c 0
 495 87 503 56 504 38 c 0
 504 18 491 -9 455 -6 c 0
EndSplineSet
Validated: 33
EndChar

StartChar: Igrave
Encoding: 204 204 125
Width: 550
GlyphClass: 2
Flags: MW
HStem: -6 72 582 80 584 78<94 94> 740 248
VStem: 161 224 228 95
LayerCount: 2
Fore
SplineSet
308 761 m 0xb8
 272 797 212 858 172 912 c 0
 155 935 160 966 172 979 c 0
 189 993 224 993 242 971 c 0
 277 923 319 857 363 817 c 0
 387 794 392 762 377 749 c 0
 363 735 333 736 308 761 c 0xb8
85 62 m 0
 124 64 173 65 223 66 c 1
 227 129 232 266 228 405 c 0
 224 500 228 538 230 584 c 1
 176 585 126 585 94 584 c 0
 61 583 46 601 46 621 c 0
 45 641 59 661 93 662 c 0
 230 666 355 666 463 655 c 0
 495 652 505 635 506 617 c 0xa4
 506 597 494 566 461 572 c 0
 436 576 383 579 324 582 c 1
 323 528 320 459 323 350 c 0
 326 236 318 138 318 67 c 1xc4
 387 67 447 66 468 66 c 0
 500 66 507 49 508 31 c 0
 508 11 501 -15 468 -10 c 0
 396 0 166 -13 87 -13 c 0
 54 -13 39 1 39 21 c 0
 38 41 50 60 85 62 c 0
EndSplineSet
Validated: 33
EndChar

StartChar: Iacute
Encoding: 205 205 126
Width: 550
GlyphClass: 2
Flags: MW
HStem: -6 72 582 80 584 78<94 94> 740 248
VStem: 162 224 228 95
LayerCount: 2
Fore
SplineSet
375 912 m 0xb8
 335 858 275 797 239 761 c 0
 214 736 184 735 170 749 c 0
 155 762 160 794 184 817 c 0
 228 857 270 923 305 971 c 0
 323 993 358 993 375 979 c 0
 387 966 392 935 375 912 c 0xb8
85 62 m 0
 124 64 173 65 223 66 c 1
 227 129 232 266 228 405 c 0
 224 500 228 538 230 584 c 1
 176 585 126 585 94 584 c 0
 61 583 46 601 46 621 c 0
 45 641 59 661 93 662 c 0
 230 666 355 666 463 655 c 0
 495 652 505 635 506 617 c 0xa4
 506 597 494 566 461 572 c 0
 436 576 383 579 324 582 c 1
 323 528 320 459 323 350 c 0
 326 236 318 138 318 67 c 1xc4
 387 67 447 66 468 66 c 0
 500 66 507 49 508 31 c 0
 508 11 501 -15 468 -10 c 0
 396 0 166 -13 87 -13 c 0
 54 -13 39 1 39 21 c 0
 38 41 50 60 85 62 c 0
EndSplineSet
Validated: 33
EndChar

StartChar: Icircumflex
Encoding: 206 206 127
Width: 550
GlyphClass: 2
Flags: MW
HStem: -6 72 582 80 584 78<94 94>
VStem: 59 429 228 95
LayerCount: 2
Fore
SplineSet
423 744 m 0xb0
 409 747 337 900 275 971 c 1
 220 903 141 749 124 744 c 0
 92 736 74 743 64 760 c 0
 53 776 60 793 79 820 c 0
 111 866 209 1008 243 1058 c 0
 249 1067 262 1067 273 1067 c 0
 283 1067 294 1066 301 1058 c 0
 336 1013 420 874 452 826 c 0
 471 798 496 773 485 757 c 0
 475 740 457 737 423 744 c 0xb0
85 62 m 0
 124 64 173 65 223 66 c 1
 227 129 232 266 228 405 c 0
 224 500 228 538 230 584 c 1
 176 585 126 585 94 584 c 0
 61 583 46 601 46 621 c 0
 45 641 59 661 93 662 c 0
 230 666 355 666 463 655 c 0
 495 652 505 635 506 617 c 0xa8
 506 597 494 566 461 572 c 0
 436 576 383 579 324 582 c 1
 323 528 320 459 323 350 c 0
 326 236 318 138 318 67 c 1xc8
 387 67 447 66 468 66 c 0
 500 66 507 49 508 31 c 0
 508 11 501 -15 468 -10 c 0
 396 0 166 -13 87 -13 c 0
 54 -13 39 1 39 21 c 0
 38 41 50 60 85 62 c 0
EndSplineSet
Validated: 33
EndChar

StartChar: Idieresis
Encoding: 207 207 128
Width: 550
GlyphClass: 2
Flags: MW
HStem: -6 72 582 80 584 78<94 94> 740 120<186 186 363 363>
VStem: 126 118<785.5 817> 228 95 302 118<785 817>
LayerCount: 2
Fore
SplineSet
363 740 m 0xba
 325 736 302 768 302 801 c 0
 302 833 332 858 363 860 c 0
 398 861 420 834 420 801 c 0
 420 769 398 744 363 740 c 0xba
186 740 m 0
 149 736 126 768 126 801 c 0
 126 833 156 858 186 860 c 0
 222 861 244 834 244 801 c 0
 244 770 222 744 186 740 c 0
85 62 m 0
 124 64 173 65 223 66 c 1
 227 129 232 266 228 405 c 0
 224 500 228 538 230 584 c 1
 176 585 126 585 94 584 c 0
 61 583 46 601 46 621 c 0
 45 641 59 661 93 662 c 0
 230 666 355 666 463 655 c 0
 495 652 505 635 506 617 c 0xa4
 506 597 494 566 461 572 c 0
 436 576 383 579 324 582 c 1
 323 528 320 459 323 350 c 0
 326 236 318 138 318 67 c 1xc4
 387 67 447 66 468 66 c 0
 500 66 507 49 508 31 c 0
 508 11 501 -15 468 -10 c 0
 396 0 166 -13 87 -13 c 0
 54 -13 39 1 39 21 c 0
 38 41 50 60 85 62 c 0
EndSplineSet
Validated: 33
EndChar

StartChar: Ntilde
Encoding: 209 209 129
Width: 550
GlyphClass: 2
Flags: MW
HStem: 740 81<322 344 322 357.5> 824 81<197 218 181 220>
VStem: 45 80 426 62
LayerCount: 2
Fore
SplineSet
439 888 m 0
 457 882 458 855 448 833 c 0
 412 766 374 740 341 740 c 0
 300 740 278 761 255 792 c 0
 238 816 231 824 209 824 c 0
 185 824 183 811 159 768 c 0
 151 754 127 751 112 754 c 0
 103 756 92 768 96 783 c 0
 121 856 162 905 200 905 c 0
 236 905 258 904 286 862 c 0
 302 839 311 821 333 821 c 0
 355 821 364 818 389 862 c 0
 397 877 415 896 439 888 c 0
488 10 m 0
 480 -8 457 -13 436 -13 c 0
 411 -14 396 -2 390 12 c 0
 361 76 188 350 125 526 c 1
 137 350 120 103 123 46 c 0
 125 4 102 -12 79 -11 c 0
 52 -10 45 14 45 51 c 0
 45 119 57 476 50 598 c 0
 47 650 85 662 116 658 c 0
 134 658 158 653 167 624 c 0
 196 533 359 239 426 129 c 1
 430 252 429 529 419 606 c 0
 415 637 434 659 458 659 c 0
 494 659 497 643 502 608 c 0
 506 583 509 61 488 10 c 0
EndSplineSet
Validated: 33
EndChar

StartChar: Ograve
Encoding: 210 210 130
Width: 550
GlyphClass: 2
Flags: MW
HStem: -23 79<245 277 205.5 305> 595 76<254 322.5> 740 248
VStem: 48 91 164 224 416 85 416 89
LayerCount: 2
Fore
SplineSet
311 761 m 0xfa
 275 797 215 858 175 912 c 0
 158 935 163 966 175 979 c 0
 192 993 227 993 245 971 c 0
 280 923 322 857 366 817 c 0
 390 794 395 762 380 749 c 0
 366 735 336 736 311 761 c 0xfa
245 -23 m 0xd4
 128 -21 46 92 48 230 c 0
 48 311 45 429 84 532 c 0
 115 612 199 671 300 671 c 0
 399 671 489 594 501 452 c 0
 508 364 508 224 490 157 c 0
 450 9 365 -23 245 -23 c 0xd4
245 56 m 0
 309 56 377 87 402 170 c 0
 408 190 423 334 413 451 c 0xd2
 406 532 356 595 289 595 c 0
 219 595 175 540 155 455 c 0
 139 388 136 317 139 245 c 0
 143 153 166 56 245 56 c 0
EndSplineSet
Validated: 33
EndChar

StartChar: Oacute
Encoding: 211 211 131
Width: 550
GlyphClass: 2
Flags: MW
HStem: -23 79<245 277 205.5 305> 595 76<254 322.5> 740 248
VStem: 48 91 165 224 416 85 416 89
LayerCount: 2
Fore
SplineSet
378 912 m 0xfa
 338 858 278 797 242 761 c 0
 217 736 187 735 173 749 c 0
 158 762 163 794 187 817 c 0
 231 857 273 923 308 971 c 0
 326 993 361 993 378 979 c 0
 390 966 395 935 378 912 c 0xfa
245 -23 m 0xd4
 128 -21 46 92 48 230 c 0
 48 311 45 429 84 532 c 0
 115 612 199 671 300 671 c 0
 399 671 489 594 501 452 c 0
 508 364 508 224 490 157 c 0
 450 9 365 -23 245 -23 c 0xd4
245 56 m 0
 309 56 377 87 402 170 c 0
 408 190 423 334 413 451 c 0xd2
 406 532 356 595 289 595 c 0
 219 595 175 540 155 455 c 0
 139 388 136 317 139 245 c 0
 143 153 166 56 245 56 c 0
EndSplineSet
Validated: 33
EndChar

StartChar: Ocircumflex
Encoding: 212 212 132
Width: 550
GlyphClass: 2
Flags: MW
HStem: -23 79<245 277 205.5 305> 595 76<254 322.5>
VStem: 48 91 62 429 416 85 416 89
LayerCount: 2
Fore
SplineSet
426 744 m 0xd0
 412 747 340 900 278 971 c 1
 223 903 144 749 127 744 c 0
 95 736 77 743 67 760 c 0
 56 776 63 793 82 820 c 0
 114 866 212 1008 246 1058 c 0
 252 1067 265 1067 276 1067 c 0
 286 1067 297 1066 304 1058 c 0
 339 1013 423 874 455 826 c 0
 474 798 499 773 488 757 c 0
 478 740 460 737 426 744 c 0xd0
245 -23 m 0xe8
 128 -21 46 92 48 230 c 0
 48 311 45 429 84 532 c 0
 115 612 199 671 300 671 c 0
 399 671 489 594 501 452 c 0
 508 364 508 224 490 157 c 0
 450 9 365 -23 245 -23 c 0xe8
245 56 m 0
 309 56 377 87 402 170 c 0
 408 190 423 334 413 451 c 0xe4
 406 532 356 595 289 595 c 0
 219 595 175 540 155 455 c 0
 139 388 136 317 139 245 c 0
 143 153 166 56 245 56 c 0
EndSplineSet
Validated: 33
EndChar

StartChar: Otilde
Encoding: 213 213 133
Width: 550
GlyphClass: 2
Flags: MW
HStem: -23 79<245 277 205.5 305> 595 76<254 322.5> 740 81<324 346 324 359.5> 824 81<199 220 183 222>
VStem: 48 91 416 85 416 89
LayerCount: 2
Fore
SplineSet
441 888 m 0xea
 459 882 460 855 450 833 c 0
 414 766 376 740 343 740 c 0xea
 302 740 280 761 257 792 c 0
 240 816 233 824 211 824 c 0
 187 824 185 811 161 768 c 0
 153 754 129 751 114 754 c 0
 105 756 94 768 98 783 c 0
 123 856 164 905 202 905 c 0xda
 238 905 260 904 288 862 c 0
 304 839 313 821 335 821 c 0
 357 821 366 818 391 862 c 0
 399 877 417 896 441 888 c 0xea
245 -23 m 0xdc
 128 -21 46 92 48 230 c 0
 48 311 45 429 84 532 c 0
 115 612 199 671 300 671 c 0
 399 671 489 594 501 452 c 0
 508 364 508 224 490 157 c 0
 450 9 365 -23 245 -23 c 0xdc
245 56 m 0
 309 56 377 87 402 170 c 0
 408 190 423 334 413 451 c 0xda
 406 532 356 595 289 595 c 0
 219 595 175 540 155 455 c 0
 139 388 136 317 139 245 c 0
 143 153 166 56 245 56 c 0
EndSplineSet
Validated: 33
EndChar

StartChar: Odieresis
Encoding: 214 214 134
Width: 550
GlyphClass: 2
Flags: MW
HStem: -23 79<245 277 205.5 305> 595 76<254 322.5> 740 120<190 190 367 367>
VStem: 48 91 130 118<785.5 817> 306 118<785 817> 416 85 416 89
LayerCount: 2
Fore
SplineSet
367 740 m 0xec
 329 736 306 768 306 801 c 0
 306 833 336 858 367 860 c 0
 402 861 424 834 424 801 c 0
 424 769 402 744 367 740 c 0xec
190 740 m 0
 153 736 130 768 130 801 c 0
 130 833 160 858 190 860 c 0
 226 861 248 834 248 801 c 0
 248 770 226 744 190 740 c 0
245 -23 m 0xd2
 128 -21 46 92 48 230 c 0
 48 311 45 429 84 532 c 0
 115 612 199 671 300 671 c 0
 399 671 489 594 501 452 c 0
 508 364 508 224 490 157 c 0
 450 9 365 -23 245 -23 c 0xd2
245 56 m 0
 309 56 377 87 402 170 c 0
 408 190 423 334 413 451 c 0xd1
 406 532 356 595 289 595 c 0
 219 595 175 540 155 455 c 0
 139 388 136 317 139 245 c 0
 143 153 166 56 245 56 c 0
EndSplineSet
Validated: 33
EndChar

StartChar: multiply
Encoding: 215 215 135
Width: 550
GlyphClass: 2
Flags: MW
HStem: 27 398 27 399
VStem: 72 415 74 411
LayerCount: 2
Fore
SplineSet
85 99 m 0x60
 101 114 158 167 222 227 c 1
 165 280 113 329 90 352 c 0
 67 375 72 398 86 412 c 0
 99 427 127 434 151 410 c 0x50
 183 377 231 330 281 283 c 1
 330 329 377 375 408 408 c 0
 432 432 460 427 473 412 c 0
 487 398 492 375 469 352 c 0x90
 447 330 395 281 338 228 c 1
 402 168 458 116 474 101 c 0
 497 78 485 56 473 43 c 0
 458 28 437 16 415 42 c 0xa0
 403 57 344 112 279 173 c 1
 215 112 156 57 144 42 c 0
 122 16 101 28 86 43 c 0
 74 56 62 76 85 99 c 0x60
EndSplineSet
Validated: 33
EndChar

StartChar: Ugrave
Encoding: 217 217 136
Width: 550
GlyphClass: 2
Flags: MW
HStem: -27 85<223 315.5 222.5 316> 740 248
VStem: 44 86 169 224 432 88
LayerCount: 2
Fore
SplineSet
316 761 m 0
 280 797 220 858 180 912 c 0
 163 935 168 966 180 979 c 0
 197 993 232 993 250 971 c 0
 285 923 327 857 371 817 c 0
 395 794 400 762 385 749 c 0
 371 735 341 736 316 761 c 0
517 243 m 0
 510 38 366 -27 266 -27 c 0
 180 -27 53 32 47 223 c 0
 43 374 40 520 44 610 c 0
 45 645 68 663 91 663 c 0
 113 663 130 651 130 615 c 0
 130 560 131 285 135 232 c 0
 140 151 172 58 273 58 c 0
 358 58 421 112 429 238 c 0
 437 353 432 551 432 602 c 0
 432 661 453 664 475 664 c 0
 498 664 516 645 517 612 c 0
 521 533 522 394 517 243 c 0
EndSplineSet
Validated: 33
EndChar

StartChar: Uacute
Encoding: 218 218 137
Width: 550
GlyphClass: 2
Flags: MW
HStem: -27 85<223 315.5 222.5 316> 740 248
VStem: 44 86 170 224 432 88
LayerCount: 2
Fore
SplineSet
383 912 m 0
 343 858 283 797 247 761 c 0
 222 736 192 735 178 749 c 0
 163 762 168 794 192 817 c 0
 236 857 278 923 313 971 c 0
 331 993 366 993 383 979 c 0
 395 966 400 935 383 912 c 0
517 243 m 0
 510 38 366 -27 266 -27 c 0
 180 -27 53 32 47 223 c 0
 43 374 40 520 44 610 c 0
 45 645 68 663 91 663 c 0
 113 663 130 651 130 615 c 0
 130 560 131 285 135 232 c 0
 140 151 172 58 273 58 c 0
 358 58 421 112 429 238 c 0
 437 353 432 551 432 602 c 0
 432 661 453 664 475 664 c 0
 498 664 516 645 517 612 c 0
 521 533 522 394 517 243 c 0
EndSplineSet
Validated: 33
EndChar

StartChar: Ucircumflex
Encoding: 219 219 138
Width: 550
GlyphClass: 2
Flags: MW
HStem: -27 85<223 315.5 222.5 316>
VStem: 44 86 67 429 432 88
LayerCount: 2
Fore
SplineSet
431 764 m 0xa0
 417 766 345 920 283 991 c 1
 228 922 149 768 132 764 c 0
 100 756 82 763 72 780 c 0
 61 796 68 813 87 840 c 0
 119 886 217 1028 251 1078 c 0
 257 1087 270 1087 281 1087 c 0
 291 1087 302 1086 309 1078 c 0
 344 1033 428 894 460 846 c 0
 479 818 504 793 493 777 c 0
 483 760 465 757 431 764 c 0xa0
517 243 m 0xd0
 510 38 366 -27 266 -27 c 0
 180 -27 53 32 47 223 c 0
 43 374 40 520 44 610 c 0
 45 645 68 663 91 663 c 0
 113 663 130 651 130 615 c 0
 130 560 131 285 135 232 c 0
 140 151 172 58 273 58 c 0
 358 58 421 112 429 238 c 0
 437 353 432 551 432 602 c 0
 432 661 453 664 475 664 c 0
 498 664 516 645 517 612 c 0
 521 533 522 394 517 243 c 0xd0
EndSplineSet
Validated: 33
EndChar

StartChar: Udieresis
Encoding: 220 220 139
Width: 550
GlyphClass: 2
Flags: MW
HStem: -27 85<223 315.5 222.5 316> 740 120<194 194 371 371>
VStem: 44 86 134 118<785.5 817> 310 118<785 817> 432 88
LayerCount: 2
Fore
SplineSet
371 740 m 0
 333 736 310 768 310 801 c 0
 310 833 340 858 371 860 c 0
 406 861 428 834 428 801 c 0
 428 769 406 744 371 740 c 0
194 740 m 0
 157 736 134 768 134 801 c 0
 134 833 164 858 194 860 c 0
 230 861 252 834 252 801 c 0
 252 770 230 744 194 740 c 0
517 243 m 0
 510 38 366 -27 266 -27 c 0
 180 -27 53 32 47 223 c 0
 43 374 40 520 44 610 c 0
 45 645 68 663 91 663 c 0
 113 663 130 651 130 615 c 0
 130 560 131 285 135 232 c 0
 140 151 172 58 273 58 c 0
 358 58 421 112 429 238 c 0
 437 353 432 551 432 602 c 0
 432 661 453 664 475 664 c 0
 498 664 516 645 517 612 c 0
 521 533 522 394 517 243 c 0
EndSplineSet
Validated: 33
EndChar

StartChar: Yacute
Encoding: 221 221 140
Width: 550
GlyphClass: 2
Flags: MW
HStem: -37 1025 740 248
VStem: 36 484 166 224
LayerCount: 2
Fore
SplineSet
379 912 m 0x50
 339 858 279 797 243 761 c 0
 218 736 188 735 174 749 c 0
 159 762 164 794 188 817 c 0
 232 857 274 923 309 971 c 0
 327 993 362 993 379 979 c 0
 391 966 396 935 379 912 c 0x50
513 588 m 0xa0
 502 562 486 538 473 506 c 0
 455 464 425 418 397 356 c 0
 354 260 294 144 216 -11 c 0
 205 -33 176 -47 152 -28 c 0
 135 -15 123 8 138 35 c 0
 174 108 207 171 236 229 c 1
 203 291 172 341 146 389 c 0
 107 460 66 518 42 583 c 0
 26 627 42 650 62 659 c 0
 83 670 118 667 133 618 c 0
 156 543 192 486 225 429 c 0
 247 391 265 355 280 320 c 1
 287 333 292 345 298 358 c 0
 330 429 364 488 391 554 c 0
 400 577 414 599 424 624 c 0
 441 669 471 674 492 665 c 0
 510 656 531 631 513 588 c 0xa0
EndSplineSet
Validated: 33
EndChar

StartChar: Thorn
Encoding: 222 222 141
Width: 550
GlyphClass: 2
Flags: MW
HStem: 156 76<231.5 312.5 207.5 326> 530 76<258.046 289.5>
VStem: 56 87 61 96 401 86<380 407 337 459>
LayerCount: 2
Fore
SplineSet
56 368 m 1xe8
 143 166 l 1xe8
 147 77 155.032226562 78.1103515625 157 23 c 0
 158 -5 129 -19 104 -18 c 0
 81 -17 58.5810546875 -4.048828125 61 28 c 0xd8
 65 81 59 204 56 368 c 1xe8
258 156 m 0
 205 156 168 160 143 166 c 1xe8
 147 77 155.032226562 78.1103515625 157 23 c 0
 158 -5 129 -19 104 -18 c 0
 81 -17 58.5810546875 -4.048828125 61 28 c 0xd8
 65 81 59 204 56 368 c 0
 54 456 56 487 57 529 c 0
 55 531 53 532 52 534 c 0
 40.052734375 550.426757812 48.177734375 570.756835938 60.5537109375 581.66796875 c 1
 59.1171875 661.256835938 53.8515625 665.318359375 53.7958984375 716.858398438 c 0
 53.765625 744.875976562 83.232421875 757.864257812 108.18359375 756 c 0
 131.134765625 754.204101562 153.670898438 740.416015625 149.565429688 708.5390625 c 0
 146.138671875 681.935546875 144.608398438 672.438476562 143.588867188 598.857421875 c 1
 195.553710938 603.8125 252.092773438 606 264 606 c 0
 391 606 485 536 487 407 c 0
 487 267 394 156 258 156 c 0
264 530 m 0
 241 530 189 526 146 522 c 1
 145 460 140 360 141 246 c 1
 160 239 185 232 230 232 c 0
 395 232 401 347 401 413 c 0
 401 505 315 530 264 530 c 0
EndSplineSet
Validated: 37
EndChar

StartChar: agrave
Encoding: 224 224 142
Width: 550
GlyphClass: 2
Flags: MW
HStem: -29 83<243 278.5 217 279> 402 84<283 329.5> 530 248
VStem: 64 97<168.5 276.5 168.5 291> 170 224 384 89
LayerCount: 2
Fore
SplineSet
317 551 m 0xf8
 281 587 221 648 181 702 c 0
 164 725 169 756 181 769 c 0
 198 783 233 783 251 761 c 0
 286 713 328 647 372 607 c 0
 396 584 401 552 386 539 c 0
 372 525 342 526 317 551 c 0xf8
488 408 m 1xd4
 467 244 466 168 499 19 c 0
 509 -23 485 -35 461 -37 c 0
 438 -39 415 -33 404 9 c 0
 401 29 397 49 394 70 c 1
 363 18 315 -29 243 -29 c 0
 132 -27 64 83 64 168 c 0
 64 414 193 486 330 486 c 0
 399 486 440 462 488 408 c 1xd4
161 198 m 0
 161 139 187 54 247 54 c 0
 310 54 362 130 384 190 c 1
 384 237 386 295 394 371 c 1
 368 392 350 402 309 402 c 0
 257 402 161 355 161 198 c 0
EndSplineSet
Validated: 33
EndChar

StartChar: aacute
Encoding: 225 225 143
Width: 550
GlyphClass: 2
Flags: MW
HStem: -29 83<243 278.5 217 279> 402 84<283 329.5> 530 248
VStem: 64 97<168.5 276.5 168.5 291> 171 224 384 89
LayerCount: 2
Fore
SplineSet
384 702 m 0xf8
 344 648 284 587 248 551 c 0
 223 526 193 525 179 539 c 0
 164 552 169 584 193 607 c 0
 237 647 279 713 314 761 c 0
 332 783 367 783 384 769 c 0
 396 756 401 725 384 702 c 0xf8
488 408 m 1xd4
 467 244 466 168 499 19 c 0
 509 -23 485 -35 461 -37 c 0
 438 -39 415 -33 404 9 c 0
 401 29 397 49 394 70 c 1
 363 18 315 -29 243 -29 c 0
 132 -27 64 83 64 168 c 0
 64 414 193 486 330 486 c 0
 399 486 440 462 488 408 c 1xd4
161 198 m 0
 161 139 187 54 247 54 c 0
 310 54 362 130 384 190 c 1
 384 237 386 295 394 371 c 1
 368 392 350 402 309 402 c 0
 257 402 161 355 161 198 c 0
EndSplineSet
Validated: 33
EndChar

StartChar: acircumflex
Encoding: 226 226 144
Width: 550
GlyphClass: 2
Flags: MW
HStem: -29 83<243 278.5 217 279> 402 84<283 329.5>
VStem: 64 97<168.5 276.5 168.5 291> 68 429 384 89
LayerCount: 2
Fore
SplineSet
432 534 m 0xd0
 418 537 346 690 284 761 c 1
 229 693 150 539 133 534 c 0
 101 526 83 533 73 550 c 0
 62 566 69 583 88 610 c 0
 120 656 218 798 252 848 c 0
 258 857 271 857 282 857 c 0
 292 857 303 856 310 848 c 0
 345 803 429 664 461 616 c 0
 480 588 505 563 494 547 c 0
 484 530 466 527 432 534 c 0xd0
488 408 m 1xe8
 467 244 466 168 499 19 c 0
 509 -23 485 -35 461 -37 c 0
 438 -39 415 -33 404 9 c 0
 401 29 397 49 394 70 c 1
 363 18 315 -29 243 -29 c 0
 132 -27 64 83 64 168 c 0
 64 414 193 486 330 486 c 0
 399 486 440 462 488 408 c 1xe8
161 198 m 0
 161 139 187 54 247 54 c 0
 310 54 362 130 384 190 c 1
 384 237 386 295 394 371 c 1
 368 392 350 402 309 402 c 0
 257 402 161 355 161 198 c 0
EndSplineSet
Validated: 33
EndChar

StartChar: atilde
Encoding: 227 227 145
Width: 550
GlyphClass: 2
Flags: MW
HStem: -29 83<243 278.5 217 279> 402 84<283 329.5> 530 81<330 352 330 365.5> 614 81<205 226 189 228>
VStem: 64 97<168.5 276.5 168.5 291> 384 89
LayerCount: 2
Fore
SplineSet
447 678 m 0
 465 672 466 645 456 623 c 0
 420 556 382 530 349 530 c 0
 308 530 286 551 263 582 c 0
 246 606 239 614 217 614 c 0
 193 614 191 601 167 558 c 0
 159 544 135 541 120 544 c 0
 111 546 100 558 104 573 c 0
 129 646 170 695 208 695 c 0
 244 695 266 694 294 652 c 0
 310 629 319 611 341 611 c 0
 363 611 372 608 397 652 c 0
 405 667 423 686 447 678 c 0
488 408 m 1
 467 244 466 168 499 19 c 0
 509 -23 485 -35 461 -37 c 0
 438 -39 415 -33 404 9 c 0
 401 29 397 49 394 70 c 1
 363 18 315 -29 243 -29 c 0
 132 -27 64 83 64 168 c 0
 64 414 193 486 330 486 c 0
 399 486 440 462 488 408 c 1
161 198 m 0
 161 139 187 54 247 54 c 0
 310 54 362 130 384 190 c 1
 384 237 386 295 394 371 c 1
 368 392 350 402 309 402 c 0
 257 402 161 355 161 198 c 0
EndSplineSet
Validated: 33
EndChar

StartChar: adieresis
Encoding: 228 228 146
Width: 550
GlyphClass: 2
Flags: MW
HStem: -29 83<243 278.5 217 279> 402 84<283 329.5> 530 120<196 196 373 373>
VStem: 64 97<168.5 276.5 168.5 291> 136 118<575.5 607> 312 118<575 607> 384 89
LayerCount: 2
Fore
SplineSet
373 530 m 0xec
 335 526 312 558 312 591 c 0
 312 623 342 648 373 650 c 0
 408 651 430 624 430 591 c 0
 430 559 408 534 373 530 c 0xec
196 530 m 0
 159 526 136 558 136 591 c 0
 136 623 166 648 196 650 c 0
 232 651 254 624 254 591 c 0
 254 560 232 534 196 530 c 0
488 408 m 1xd2
 467 244 466 168 499 19 c 0
 509 -23 485 -35 461 -37 c 0
 438 -39 415 -33 404 9 c 0
 401 29 397 49 394 70 c 1
 363 18 315 -29 243 -29 c 0
 132 -27 64 83 64 168 c 0
 64 414 193 486 330 486 c 0
 399 486 440 462 488 408 c 1xd2
161 198 m 0
 161 139 187 54 247 54 c 0
 310 54 362 130 384 190 c 1
 384 237 386 295 394 371 c 1
 368 392 350 402 309 402 c 0
 257 402 161 355 161 198 c 0
EndSplineSet
Validated: 33
EndChar

StartChar: aring
Encoding: 229 229 147
Width: 550
VWidth: 2048
GlyphClass: 2
Flags: HMW
LayerCount: 2
Fore
SplineSet
294 595 m 4
 259.333333333 595 232.166666667 604.833333333 212.5 624.5 c 132
 192.833333333 644.166666667 183 669.666666667 183 701 c 4
 183 711 184.166666667 720.5 186.5 729.5 c 132
 188.833333333 738.5 192.833333333 748 198.5 758 c 132
 204.166666667 768 211.5 776.666666667 220.5 784 c 132
 229.5 791.333333333 241.5 797.333333333 256.5 802 c 132
 271.5 806.666666667 288.333333333 809 307 809 c 4
 323.666666667 809 338.166666667 807 350.5 803 c 132
 362.833333333 799 372.666666667 793.5 380 786.5 c 132
 387.333333333 779.5 393.166666667 770.666666667 397.5 760 c 132
 401.833333333 749.333333333 404.833333333 738.333333333 406.5 727 c 132
 408.166666667 715.666666667 409 703 409 689 c 4
 409 665.666666667 397.166666667 644.166666667 373.5 624.5 c 132
 349.833333333 604.833333333 323.333333333 595 294 595 c 4
301 650 m 4
 312.333333333 650 323.166666667 655.333333333 333.5 666 c 132
 343.833333333 676.666666667 349 687.333333333 349 698 c 4
 349 702.666666667 348.5 708 347.5 714 c 132
 346.5 720 344.333333333 726.333333333 341 733 c 132
 337.666666667 739.666666667 332.833333333 745.333333333 326.5 750 c 132
 320.166666667 754.666666667 312.333333333 757 303 757 c 4
 285.666666667 757 272.5 751.333333333 263.5 740 c 132
 254.5 728.666666667 250.333333333 715.333333333 251 700 c 4
 251.666666667 686 256.166666667 674.166666667 264.5 664.5 c 132
 272.833333333 654.833333333 285 650 301 650 c 4
517 464 m 5
 505 378.666666667 499.666666667 307.166666667 501 249.5 c 132
 502.333333333 191.833333333 511.333333333 124.333333333 528 47 c 4
 532.666666667 26.3333333333 531 11.5 523 2.5 c 132
 515 -6.5 503.333333333 -11.6666666667 488 -13 c 4
 473.333333333 -14.3333333333 460.833333333 -11.6666666667 450.5 -5 c 132
 440.166666667 1.66666666667 432 15.3333333333 426 36 c 4
 425.333333333 42.6666666667 423.833333333 53.3333333333 421.5 68 c 132
 419.166666667 82.6666666667 417.333333333 93.6666666667 416 101 c 5
 374 30.3333333333 320 -5 254 -5 c 4
 230.666666667 -4.33333333333 208.666666667 0.333333333333 188 9 c 132
 167.333333333 17.6666666667 149.5 29.3333333333 134.5 44 c 132
 119.5 58.6666666667 106.5 75.1666666667 95.5 93.5 c 132
 84.5 111.833333333 76 130.666666667 70 150 c 132
 64 169.333333333 61 188.333333333 61 207 c 4
 61 243.666666667 63.8333333333 277.5 69.5 308.5 c 132
 75.1666666667 339.5 82.8333333333 366.666666667 92.5 390 c 132
 102.166666667 413.333333333 114 434 128 452 c 132
 142 470 157 485 173 497 c 132
 189 509 206.666666667 518.833333333 226 526.5 c 132
 245.333333333 534.166666667 264.833333333 539.666666667 284.5 543 c 132
 304.166666667 546.333333333 325 548 347 548 c 4
 383 548 413.666666667 541.5 439 528.5 c 132
 464.333333333 515.5 490.333333333 494 517 464 c 5
166 239 m 4
 166 222.333333333 167.833333333 205.333333333 171.5 188 c 132
 175.166666667 170.666666667 180.5 154.166666667 187.5 138.5 c 132
 194.5 122.833333333 204.166666667 109.833333333 216.5 99.5 c 132
 228.833333333 89.1666666667 242.666666667 84 258 84 c 4
 274 84 289.833333333 88.5 305.5 97.5 c 132
 321.166666667 106.5 335.333333333 118.333333333 348 133 c 132
 360.666666667 147.666666667 371.833333333 163.333333333 381.5 180 c 132
 391.166666667 196.666666667 399 213.333333333 405 230 c 5
 405 292 408.666666667 357 416 425 c 5
 400.666666667 437 386.833333333 445.5 374.5 450.5 c 132
 362.166666667 455.5 345.666666667 458 325 458 c 4
 313 458 300.333333333 455.833333333 287 451.5 c 132
 273.666666667 447.166666667 259.666666667 439.666666667 245 429 c 132
 230.333333333 418.333333333 217.166666667 405 205.5 389 c 132
 193.833333333 373 184.333333333 352 177 326 c 132
 169.666666667 300 166 271 166 239 c 4
EndSplineSet
EndChar

StartChar: ae
Encoding: 230 230 148
Width: 550
VWidth: 2048
GlyphClass: 2
Flags: HMW
LayerCount: 2
Fore
SplineSet
310.9765625 442 m 5
 309.695963542 427.333333333 307.615234375 404 304.734375 372 c 132
 301.853515625 340 299.932942708 317.833333333 298.97265625 305.5 c 132
 298.012369792 293.166666667 296.732096354 274.5 295.131835938 249.5 c 132
 293.530924479 224.5 292.73046875 204.666666667 292.73046875 190 c 4
 292.73046875 43.3333333333 238.953776042 -29.3333333333 131.400390625 -28 c 4
 112.834635417 -28 94.9091796875 -20.6666666667 77.6240234375 -6 c 4
 60.9781901042 7.33333333333 47.0537109375 24.3333333333 35.8505859375 45 c 132
 24.6474609375 65.6666666667 16.0048828125 88.1666666667 9.9228515625 112.5 c 132
 3.8408203125 136.833333333 0.7998046875 160.666666667 0.7998046875 184 c 4
 0.7998046875 235.333333333 4.48079427083 281 11.8427734375 321 c 132
 19.2054036458 361 28.8082682292 393.666666667 40.6513671875 419 c 132
 52.4957682292 444.333333333 66.900390625 465.166666667 83.865234375 481.5 c 132
 100.830729167 497.833333333 118.436197917 509.333333333 136.681640625 516 c 132
 154.927083333 522.666666667 174.61328125 526 195.740234375 526 c 4
 220.067708333 526 240.874348958 519.5 258.16015625 506.5 c 132
 275.4453125 493.5 293.05078125 472 310.9765625 442 c 5
71.861328125 216 m 4
 71.861328125 199.333333333 73.1416015625 182.333333333 75.7021484375 165 c 132
 78.2639973958 147.666666667 81.9456380208 131.166666667 86.7470703125 115.5 c 132
 91.5485026042 99.8333333333 98.1103515625 87 106.432617188 77 c 132
 114.755533854 67 124.358723958 62 135.2421875 62 c 132
 146.125651042 62 157.008789062 66.5 167.891601562 75.5 c 132
 178.775065104 84.5 188.377929688 96.3333333333 196.700195312 111 c 132
 205.023111979 125.666666667 212.385742188 141.166666667 218.788085938 157.5 c 132
 225.189778646 173.833333333 230.631510417 190.666666667 235.11328125 208 c 5
 235.11328125 270 237.353841146 334.666666667 241.834960938 402 c 5
 231.592122396 414 222.309244792 422.5 213.986328125 427.5 c 132
 205.663411458 432.5 194.459635417 435 180.375 435 c 4
 172.052734375 435 163.410481771 433 154.448242188 429 c 132
 145.484700521 425 135.881510417 417.5 125.638671875 406.5 c 132
 115.395833333 395.5 106.432942708 382 98.75 366 c 132
 91.0677083333 350 84.666015625 329 79.544921875 303 c 132
 74.4225260417 277 71.861328125 248 71.861328125 216 c 4
537.607421875 64 m 4
 530.565104167 49.3333333333 523.04296875 37.1666666667 515.041015625 27.5 c 132
 507.038411458 17.8333333333 497.114908854 8.66666666667 485.270507812 0 c 132
 473.427408854 -8.66666666667 458.862955729 -15 441.577148438 -19 c 132
 424.291992188 -23 403.805664062 -24.6666666667 380.118164062 -24 c 4
 334.663736979 -23.3333333333 299.452799479 0.5 274.485351562 47.5 c 132
 249.517252604 94.5 237.353515625 159.333333333 237.994140625 242 c 4
 238.634114583 286.666666667 243.435221354 327 252.397460938 363 c 132
 261.361002604 399 273.685221354 428.833333333 289.370117188 452.5 c 132
 305.054361979 476.166666667 323.459960938 494.5 344.586914062 507.5 c 132
 365.713216146 520.5 388.760416667 527 413.728515625 527 c 4
 427.813151042 527 443.177734375 521.166666667 459.822265625 509.5 c 132
 476.468098958 497.833333333 492.153320312 481.5 506.877929688 460.5 c 132
 521.602539062 439.5 532.165690104 416.333333333 538.567382812 391 c 5
 541.128580729 374.333333333 538.087565104 356.333333333 529.444335938 337 c 132
 520.801757812 317.666666667 511.679036458 302.666666667 502.076171875 292 c 4
 493.753255208 282.666666667 483.029947917 273.166666667 469.90625 263.5 c 132
 456.781901042 253.833333333 442.057291667 244.333333333 425.732421875 235 c 132
 409.406901042 225.666666667 395.322591146 217.666666667 383.479492188 211 c 132
 371.635742188 204.333333333 356.911132812 196.666666667 339.305664062 188 c 132
 321.699544271 179.333333333 310.655924479 173.666666667 306.174804688 171 c 5
 313.857096354 97.6666666667 339.78515625 60 383.958984375 58 c 4
 396.123046875 57.3333333333 408.286783854 59.3333333333 420.450195312 64 c 132
 432.614257812 68.6666666667 442.857747396 74.8333333333 451.180664062 82.5 c 132
 459.503580729 90.1666666667 466.065755208 97 470.8671875 103 c 132
 475.66796875 109 479.028645833 113.333333333 480.94921875 116 c 4
 498.875 150.666666667 516.48046875 159.333333333 533.765625 142 c 4
 552.972005208 122.666666667 554.252604167 96.6666666667 537.607421875 64 c 4
399.32421875 448 m 4
 391.641276042 448 383.638997396 446 375.317382812 442 c 132
 366.994466146 438 358.831705729 431.333333333 350.829101562 422 c 132
 342.826497396 412.666666667 335.624023438 401.5 329.221679688 388.5 c 132
 322.820638021 375.5 317.37890625 358.833333333 312.896484375 338.5 c 132
 308.415364583 318.166666667 305.854817708 295.666666667 305.21484375 271 c 5
 392.281901042 303 447.339192708 334.666666667 470.38671875 366 c 5
 459.503255208 396.666666667 448.619791667 418 437.736328125 430 c 132
 426.852864583 442 414.048828125 448 399.32421875 448 c 4
EndSplineSet
EndChar

StartChar: ccedilla
Encoding: 231 231 149
Width: 550
GlyphClass: 2
Flags: MW
HStem: -250 59<264 299 264 324.5> 408 85<283.5 335.5>
VStem: 68 95 331 71<-159.5 -117.5>
LayerCount: 2
Fore
SplineSet
471 372 m 0
 483 328 464 310 442 301 c 0
 418 292 390 294 377 334 c 0
 365 370 362 408 309 408 c 0
 258 408 172 363 163 205 c 0
 160 149 167 60 270 55 c 0
 343 52 384 79 392 99 c 0
 410 143 438 144 459 134 c 0
 480 125 496 107 476 66 c 0
 459 31 407 -15 311 -27 c 1
 329 -65 402 -89 402 -135 c 0
 402 -189 374 -250 275 -250 c 0
 208 -250 182 -222 164 -190 c 0
 151 -167 159 -138 174 -131 c 0
 192 -123 209 -124 221 -148 c 0
 231 -169 247 -191 281 -191 c 0
 317 -191 331 -175 331 -144 c 0
 331 -91 243 -89 238 -28 c 1
 127 -16 66 78 68 174 c 0
 71 392 195 493 330 493 c 0
 399 493 455 434 471 372 c 0
EndSplineSet
Validated: 33
EndChar

StartChar: egrave
Encoding: 232 232 150
Width: 550
GlyphClass: 2
Flags: MW
HStem: -26 76 414 73<264.5 308.5> 530 248
VStem: 70 91 170 224
LayerCount: 2
Fore
SplineSet
317 551 m 0
 281 587 221 648 181 702 c 0
 164 725 169 756 181 769 c 0
 198 783 233 783 251 761 c 0
 286 713 328 647 372 607 c 0
 396 584 401 552 386 539 c 0
 372 525 342 526 317 551 c 0
479 56 m 0
 444 8 395 -28 265 -26 c 0
 140 -24 68 69 70 222 c 0
 73 392 175 487 310 487 c 0
 367 487 455 434 480 361 c 0
 488 326 450 283 431 269 c 0
 369 223 228 179 164 156 c 1
 173 99 200 53 270 50 c 0
 343 47 396 97 402 105 c 0
 431 144 455 142 474 129 c 0
 493 116 507 94 479 56 c 0
290 414 m 0
 239 414 168 368 161 249 c 1
 189 256 338 292 388 338 c 1
 358 397 327 414 290 414 c 0
EndSplineSet
Validated: 33
EndChar

StartChar: eacute
Encoding: 233 233 151
Width: 550
GlyphClass: 2
Flags: MW
HStem: -26 76 414 73<264.5 308.5> 530 248
VStem: 70 91 171 224
LayerCount: 2
Fore
SplineSet
384 702 m 0
 344 648 284 587 248 551 c 0
 223 526 193 525 179 539 c 0
 164 552 169 584 193 607 c 0
 237 647 279 713 314 761 c 0
 332 783 367 783 384 769 c 0
 396 756 401 725 384 702 c 0
479 56 m 0
 444 8 395 -28 265 -26 c 0
 140 -24 68 69 70 222 c 0
 73 392 175 487 310 487 c 0
 367 487 455 434 480 361 c 0
 488 326 450 283 431 269 c 0
 369 223 228 179 164 156 c 1
 173 99 200 53 270 50 c 0
 343 47 396 97 402 105 c 0
 431 144 455 142 474 129 c 0
 493 116 507 94 479 56 c 0
290 414 m 0
 239 414 168 368 161 249 c 1
 189 256 338 292 388 338 c 1
 358 397 327 414 290 414 c 0
EndSplineSet
Validated: 33
EndChar

StartChar: ecircumflex
Encoding: 234 234 152
Width: 550
GlyphClass: 2
Flags: MW
HStem: -26 76 414 73<264.5 308.5>
VStem: 68 429 70 91
LayerCount: 2
Fore
SplineSet
432 534 m 0xe0
 418 537 346 690 284 761 c 1
 229 693 150 539 133 534 c 0
 101 526 83 533 73 550 c 0
 62 566 69 583 88 610 c 0
 120 656 218 798 252 848 c 0
 258 857 271 857 282 857 c 0
 292 857 303 856 310 848 c 0
 345 803 429 664 461 616 c 0
 480 588 505 563 494 547 c 0
 484 530 466 527 432 534 c 0xe0
479 56 m 0
 444 8 395 -28 265 -26 c 0
 140 -24 68 69 70 222 c 0xd0
 73 392 175 487 310 487 c 0
 367 487 455 434 480 361 c 0
 488 326 450 283 431 269 c 0
 369 223 228 179 164 156 c 1
 173 99 200 53 270 50 c 0
 343 47 396 97 402 105 c 0
 431 144 455 142 474 129 c 0
 493 116 507 94 479 56 c 0
290 414 m 0
 239 414 168 368 161 249 c 1
 189 256 338 292 388 338 c 1
 358 397 327 414 290 414 c 0
EndSplineSet
Validated: 33
EndChar

StartChar: edieresis
Encoding: 235 235 153
Width: 550
GlyphClass: 2
Flags: MW
HStem: -26 76 414 73<264.5 308.5> 530 120<195 195 372 372>
VStem: 70 91 135 118<575.5 607> 311 118<575 607>
LayerCount: 2
Fore
SplineSet
372 530 m 0xf4
 334 526 311 558 311 591 c 0
 311 623 341 648 372 650 c 0
 407 651 429 624 429 591 c 0
 429 559 407 534 372 530 c 0xf4
195 530 m 0xec
 158 526 135 558 135 591 c 0
 135 623 165 648 195 650 c 0
 231 651 253 624 253 591 c 0
 253 560 231 534 195 530 c 0xec
479 56 m 0
 444 8 395 -28 265 -26 c 0
 140 -24 68 69 70 222 c 0xf4
 73 392 175 487 310 487 c 0
 367 487 455 434 480 361 c 0
 488 326 450 283 431 269 c 0
 369 223 228 179 164 156 c 1
 173 99 200 53 270 50 c 0
 343 47 396 97 402 105 c 0
 431 144 455 142 474 129 c 0
 493 116 507 94 479 56 c 0
290 414 m 0
 239 414 168 368 161 249 c 1
 189 256 338 292 388 338 c 1
 358 397 327 414 290 414 c 0
EndSplineSet
Validated: 33
EndChar

StartChar: igrave
Encoding: 236 236 154
Width: 540
GlyphClass: 2
Flags: MW
HStem: -16 81<106 144.5> 378 76<124.5 136 123 137 123 254> 530 248
VStem: 129 224 250 86
LayerCount: 2
Fore
SplineSet
276 551 m 0xf0
 240 587 180 648 140 702 c 0
 123 725 128 756 140 769 c 0
 157 783 192 783 210 761 c 0
 245 713 287 647 331 607 c 0
 355 584 360 552 345 539 c 0
 331 525 301 526 276 551 c 0xf0
106 65 m 2
 251 65 l 1
 251 88 251 108 250 138 c 0
 247 222 251 297 254 378 c 1
 221 382 185 376 137 378 c 0
 112 378 100 396 100 413 c 0
 99 434 110 454 136 454 c 0
 173 457 229 461 294 459 c 0
 335 460 342 416 342 405 c 0
 332 280 336 187 342 65 c 1xc8
 459 65 l 2
 491 65 497 47 497 28 c 0
 496 9 488 -11 457 -11 c 0
 415 -11 184 -16 105 -16 c 0
 72 -16 65 6 66 26 c 0
 66 46 73 65 106 65 c 2
EndSplineSet
Validated: 33
EndChar

StartChar: iacute
Encoding: 237 237 155
Width: 540
GlyphClass: 2
Flags: MW
HStem: -16 81<106 144.5> 378 76<124.5 136 123 137 123 254> 530 248
VStem: 186 224 250 86
LayerCount: 2
Fore
SplineSet
399 702 m 0xf0
 359 648 299 587 263 551 c 0
 238 526 208 525 194 539 c 0
 179 552 184 584 208 607 c 0
 252 647 294 713 329 761 c 0
 347 783 382 783 399 769 c 0
 411 756 416 725 399 702 c 0xf0
106 65 m 2
 251 65 l 1
 251 88 251 108 250 138 c 0
 247 222 251 297 254 378 c 1
 221 382 185 376 137 378 c 0
 112 378 100 396 100 413 c 0
 99 434 110 454 136 454 c 0
 173 457 229 461 294 459 c 0
 335 460 342 416 342 405 c 0
 332 280 336 187 342 65 c 1xc8
 459 65 l 2
 491 65 497 47 497 28 c 0
 496 9 488 -11 457 -11 c 0
 415 -11 184 -16 105 -16 c 0
 72 -16 65 6 66 26 c 0
 66 46 73 65 106 65 c 2
EndSplineSet
Validated: 33
EndChar

StartChar: icircumflex
Encoding: 238 238 156
Width: 540
GlyphClass: 2
Flags: MW
HStem: -16 81<106 144.5> 378 76<124.5 136 123 137 123 254>
VStem: 45 429 250 86
LayerCount: 2
Fore
SplineSet
409 534 m 0xe0
 395 537 323 690 261 761 c 1
 206 693 127 539 110 534 c 0
 78 526 60 533 50 550 c 0
 39 566 46 583 65 610 c 0
 97 656 195 798 229 848 c 0
 235 857 248 857 259 857 c 0
 269 857 280 856 287 848 c 0
 322 803 406 664 438 616 c 0
 457 588 482 563 471 547 c 0
 461 530 443 527 409 534 c 0xe0
106 65 m 2
 251 65 l 1
 251 88 251 108 250 138 c 0
 247 222 251 297 254 378 c 1
 221 382 185 376 137 378 c 0
 112 378 100 396 100 413 c 0
 99 434 110 454 136 454 c 0
 173 457 229 461 294 459 c 0
 335 460 342 416 342 405 c 0
 332 280 336 187 342 65 c 1xd0
 459 65 l 2
 491 65 497 47 497 28 c 0
 496 9 488 -11 457 -11 c 0
 415 -11 184 -16 105 -16 c 0
 72 -16 65 6 66 26 c 0
 66 46 73 65 106 65 c 2
EndSplineSet
Validated: 33
EndChar

StartChar: idieresis
Encoding: 239 239 157
Width: 540
GlyphClass: 2
Flags: MW
HStem: -16 81<106 144.5> 378 76<124.5 136 123 137 123 254> 530 120<193 193 370 370>
VStem: 133 118<575.5 607> 250 86 309 118<575 607>
LayerCount: 2
Fore
SplineSet
370 530 m 0xf4
 332 526 309 558 309 591 c 0
 309 623 339 648 370 650 c 0
 405 651 427 624 427 591 c 0
 427 559 405 534 370 530 c 0xf4
193 530 m 0
 156 526 133 558 133 591 c 0
 133 623 163 648 193 650 c 0
 229 651 251 624 251 591 c 0
 251 560 229 534 193 530 c 0
106 65 m 2
 251 65 l 1
 251 88 251 108 250 138 c 0
 247 222 251 297 254 378 c 1
 221 382 185 376 137 378 c 0
 112 378 100 396 100 413 c 0
 99 434 110 454 136 454 c 0
 173 457 229 461 294 459 c 0
 335 460 342 416 342 405 c 0
 332 280 336 187 342 65 c 1xc8
 459 65 l 2
 491 65 497 47 497 28 c 0
 496 9 488 -11 457 -11 c 0
 415 -11 184 -16 105 -16 c 0
 72 -16 65 6 66 26 c 0
 66 46 73 65 106 65 c 2
EndSplineSet
Validated: 33
EndChar

StartChar: ntilde
Encoding: 241 241 158
Width: 600
GlyphClass: 2
Flags: MW
HStem: 390 87<316 367> 530 81<352 374 352 387.5> 614 81<227 248 211 250>
VStem: 93 91 105 92 170 14
LayerCount: 2
Fore
SplineSet
469 678 m 0xd0
 487 672 488 645 478 623 c 0
 442 556 404 530 371 530 c 0xd0
 330 530 308 551 285 582 c 0
 268 606 261 614 239 614 c 0
 215 614 213 601 189 558 c 0
 181 544 157 541 142 544 c 0
 133 546 122 558 126 573 c 0
 151 646 192 695 230 695 c 0xb0
 266 695 288 694 316 652 c 0
 332 629 341 611 363 611 c 0
 385 611 394 608 419 652 c 0
 427 667 445 686 469 678 c 0xd0
200 427 m 0xa8
 199 417 198 407 197 396 c 1xa8
 223 436 275 477 357 477 c 0
 446 477 487 407 490 297 c 0
 493 195 514 107 518 35 c 0
 520 -7 500 -21 478 -21 c 0
 454 -22 428 -8 425 35 c 0
 420 93 408 169 404 255 c 0
 399 358 390 390 344 390 c 0
 262 390 211 322 186 274 c 1
 184 242 183 209 184 175 c 0
 184 116 195 62 195 28 c 0
 195 -12 169 -23 144 -21 c 0
 124 -20 105 -8 103 28 c 0
 102 50 95 91 93 138 c 0xb0
 89 242 103 346 105 426 c 0
 106 468 135 482 159 481 c 0
 182 481 204 469 200 427 c 0xa8
170 229 m 1xa4
 170 231 l 1
 170 229 l 1xa4
EndSplineSet
Validated: 33
EndChar

StartChar: ograve
Encoding: 242 242 159
Width: 550
GlyphClass: 2
Flags: MW
HStem: -25 79 416 73<232.5 308> 530 248
VStem: 57 96 160 224 392 94
LayerCount: 2
Fore
SplineSet
307 551 m 0
 271 587 211 648 171 702 c 0
 154 725 159 756 171 769 c 0
 188 783 223 783 241 761 c 0
 276 713 318 647 362 607 c 0
 386 584 391 552 376 539 c 0
 362 525 332 526 307 551 c 0
255 -25 m 0
 130 -23 55 96 57 224 c 0
 57 373 135 489 283 489 c 0
 392 489 498 413 486 209 c 0
 477 61 413 -27 255 -25 c 0
275 54 m 0
 353 50 388 126 392 225 c 0
 397 363 346 416 270 416 c 0
 195 416 159 341 153 226 c 0
 150 129 172 59 275 54 c 0
EndSplineSet
Validated: 33
EndChar

StartChar: oacute
Encoding: 243 243 160
Width: 550
GlyphClass: 2
Flags: MW
HStem: -25 79 416 73<232.5 308> 530 248
VStem: 57 96 160 224 392 94
LayerCount: 2
Fore
SplineSet
373 702 m 0
 333 648 273 587 237 551 c 0
 212 526 182 525 168 539 c 0
 153 552 158 584 182 607 c 0
 226 647 268 713 303 761 c 0
 321 783 356 783 373 769 c 0
 385 756 390 725 373 702 c 0
255 -25 m 0
 130 -23 55 96 57 224 c 0
 57 373 135 489 283 489 c 0
 392 489 498 413 486 209 c 0
 477 61 413 -27 255 -25 c 0
275 54 m 0
 353 50 388 126 392 225 c 0
 397 363 346 416 270 416 c 0
 195 416 159 341 153 226 c 0
 150 129 172 59 275 54 c 0
EndSplineSet
Validated: 33
EndChar

StartChar: ocircumflex
Encoding: 244 244 161
Width: 550
GlyphClass: 2
Flags: MW
HStem: -25 79 416 73<232.5 308>
VStem: 57 96 58 429 392 94
LayerCount: 2
Fore
SplineSet
422 534 m 0xd0
 408 537 336 690 274 761 c 1
 219 693 140 539 123 534 c 0
 91 526 73 533 63 550 c 0
 52 566 59 583 78 610 c 0
 110 656 208 798 242 848 c 0
 248 857 261 857 272 857 c 0
 282 857 293 856 300 848 c 0
 335 803 419 664 451 616 c 0
 470 588 495 563 484 547 c 0
 474 530 456 527 422 534 c 0xd0
255 -25 m 0xe8
 130 -23 55 96 57 224 c 0
 57 373 135 489 283 489 c 0
 392 489 498 413 486 209 c 0
 477 61 413 -27 255 -25 c 0xe8
275 54 m 0
 353 50 388 126 392 225 c 0
 397 363 346 416 270 416 c 0
 195 416 159 341 153 226 c 0
 150 129 172 59 275 54 c 0
EndSplineSet
Validated: 33
EndChar

StartChar: otilde
Encoding: 245 245 162
Width: 550
GlyphClass: 2
Flags: MW
HStem: -25 79 416 73<232.5 308> 530 81<319 341 319 354.5> 614 81<194 215 178 217>
VStem: 57 96 392 94
LayerCount: 2
Fore
SplineSet
436 678 m 0
 454 672 455 645 445 623 c 0
 409 556 371 530 338 530 c 0
 297 530 275 551 252 582 c 0
 235 606 228 614 206 614 c 0
 182 614 180 601 156 558 c 0
 148 544 124 541 109 544 c 0
 100 546 89 558 93 573 c 0
 118 646 159 695 197 695 c 0
 233 695 255 694 283 652 c 0
 299 629 308 611 330 611 c 0
 352 611 361 608 386 652 c 0
 394 667 412 686 436 678 c 0
255 -25 m 0
 130 -23 55 96 57 224 c 0
 57 373 135 489 283 489 c 0
 392 489 498 413 486 209 c 0
 477 61 413 -27 255 -25 c 0
275 54 m 0
 353 50 388 126 392 225 c 0
 397 363 346 416 270 416 c 0
 195 416 159 341 153 226 c 0
 150 129 172 59 275 54 c 0
EndSplineSet
Validated: 33
EndChar

StartChar: odieresis
Encoding: 246 246 163
Width: 550
GlyphClass: 2
Flags: MW
HStem: -25 79 416 73<232.5 308> 530 120<185 185 362 362>
VStem: 57 96 125 118<575.5 607> 301 118<575 607> 392 94
LayerCount: 2
Fore
SplineSet
362 530 m 0xec
 324 526 301 558 301 591 c 0
 301 623 331 648 362 650 c 0
 397 651 419 624 419 591 c 0
 419 559 397 534 362 530 c 0xec
185 530 m 0
 148 526 125 558 125 591 c 0
 125 623 155 648 185 650 c 0
 221 651 243 624 243 591 c 0
 243 560 221 534 185 530 c 0
255 -25 m 0xd2
 130 -23 55 96 57 224 c 0
 57 373 135 489 283 489 c 0
 392 489 498 413 486 209 c 0
 477 61 413 -27 255 -25 c 0xd2
275 54 m 0
 353 50 388 126 392 225 c 0
 397 363 346 416 270 416 c 0
 195 416 159 341 153 226 c 0
 150 129 172 59 275 54 c 0
EndSplineSet
Validated: 33
EndChar

StartChar: divide
Encoding: 247 247 164
Width: 550
GlyphClass: 2
Flags: MW
HStem: 49 128<278 278> 231 85<99 99> 375 128<278 278>
VStem: 208 136<96.5 130.5 422.5 456.5>
LayerCount: 2
Fore
SplineSet
278 375 m 0
 235 371 208 405 208 439 c 0
 208 474 243 501 278 503 c 0
 318 504 344 475 344 440 c 0
 344 405 318 380 278 375 c 0
98 316 m 0
 219 312 417 313 462 313 c 0
 494 313 501 294 502 276 c 0
 502 256 495 230 462 233 c 0
 420 237 178 231 99 231 c 0
 66 231 53 253 53 273 c 0
 52 293 64 317 98 316 c 0
278 49 m 0
 235 45 208 79 208 113 c 0
 208 148 243 175 278 177 c 0
 318 178 344 149 344 114 c 0
 344 79 318 54 278 49 c 0
EndSplineSet
Validated: 33
EndChar

StartChar: ugrave
Encoding: 249 249 165
Width: 550
GlyphClass: 2
Flags: MW
HStem: -15 86 530 248
VStem: 71 96 167 224 392 95<29 55 55 55> 393 86 393 94<10.5 274>
LayerCount: 2
Fore
SplineSet
314 551 m 0xd0
 278 587 218 648 178 702 c 0
 161 725 166 756 178 769 c 0
 195 783 230 783 248 761 c 0
 283 713 325 647 369 607 c 0
 393 584 398 552 383 539 c 0
 369 525 339 526 314 551 c 0xd0
392 29 m 2xe8
 392 55 l 1xe8
 350 20 275 -22 198 -15 c 0
 130 -9 79 62 76 120 c 0
 72 172 71 221 71 270 c 0
 71 331 76 387 75 426 c 0
 75 458 96 471 118 471 c 0
 142 471 167 458 167 426 c 0
 167 395 162 338 163 275 c 0
 163 226 163 179 170 128 c 0
 177 78 198 71 233 71 c 0
 292 71 354 106 393 135 c 1
 394 177 394 220 393 274 c 0
 393 323 392 390 389 427 c 0
 389 455 409 470 430 471 c 0
 453 471 479 456 479 427 c 1xe4
 483 402 482 348 484 311 c 0
 488 201 487 117 487 30 c 0xe2
 487 -9 466 -21 444 -22 c 0
 418 -24 392 -13 392 29 c 2xe8
EndSplineSet
Validated: 33
EndChar

StartChar: uacute
Encoding: 250 250 166
Width: 550
GlyphClass: 2
Flags: MW
HStem: -15 86 530 248
VStem: 71 96 167 224 392 95<29 55 55 55> 393 86 393 94<10.5 274>
LayerCount: 2
Fore
SplineSet
380 702 m 0xd0
 340 648 280 587 244 551 c 0
 219 526 189 525 175 539 c 0
 160 552 165 584 189 607 c 0
 233 647 275 713 310 761 c 0
 328 783 363 783 380 769 c 0
 392 756 397 725 380 702 c 0xd0
392 29 m 2xe8
 392 55 l 1xe8
 350 20 275 -22 198 -15 c 0
 130 -9 79 62 76 120 c 0
 72 172 71 221 71 270 c 0
 71 331 76 387 75 426 c 0
 75 458 96 471 118 471 c 0
 142 471 167 458 167 426 c 0
 167 395 162 338 163 275 c 0
 163 226 163 179 170 128 c 0
 177 78 198 71 233 71 c 0
 292 71 354 106 393 135 c 1
 394 177 394 220 393 274 c 0
 393 323 392 390 389 427 c 0
 389 455 409 470 430 471 c 0
 453 471 479 456 479 427 c 1xe4
 483 402 482 348 484 311 c 0
 488 201 487 117 487 30 c 0xe2
 487 -9 466 -21 444 -22 c 0
 418 -24 392 -13 392 29 c 2xe8
EndSplineSet
Validated: 33
EndChar

StartChar: ucircumflex
Encoding: 251 251 167
Width: 550
GlyphClass: 2
Flags: MW
HStem: -15 86
VStem: 65 429 71 96 392 95<29 55 55 55> 393 86 393 94<10.5 274>
LayerCount: 2
Fore
SplineSet
429 534 m 0xc0
 415 537 343 690 281 761 c 1
 226 693 147 539 130 534 c 0
 98 526 80 533 70 550 c 0
 59 566 66 583 85 610 c 0
 117 656 215 798 249 848 c 0
 255 857 268 857 279 857 c 0
 289 857 300 856 307 848 c 0
 342 803 426 664 458 616 c 0
 477 588 502 563 491 547 c 0
 481 530 463 527 429 534 c 0xc0
392 29 m 2xb0
 392 55 l 1xb0
 350 20 275 -22 198 -15 c 0
 130 -9 79 62 76 120 c 0
 72 172 71 221 71 270 c 0
 71 331 76 387 75 426 c 0
 75 458 96 471 118 471 c 0
 142 471 167 458 167 426 c 0
 167 395 162 338 163 275 c 0
 163 226 163 179 170 128 c 0
 177 78 198 71 233 71 c 0
 292 71 354 106 393 135 c 1
 394 177 394 220 393 274 c 0
 393 323 392 390 389 427 c 0
 389 455 409 470 430 471 c 0
 453 471 479 456 479 427 c 1xa8
 483 402 482 348 484 311 c 0
 488 201 487 117 487 30 c 0xa4
 487 -9 466 -21 444 -22 c 0
 418 -24 392 -13 392 29 c 2xb0
EndSplineSet
Validated: 33
EndChar

StartChar: udieresis
Encoding: 252 252 168
Width: 550
GlyphClass: 2
Flags: MW
HStem: -15 86 530 120<192 192 369 369>
VStem: 71 96 132 118<575.5 607> 308 118<575 607> 392 95<29 55 55 55> 393 86 393 94<10.5 274>
LayerCount: 2
Fore
SplineSet
369 530 m 0xd8
 331 526 308 558 308 591 c 0
 308 623 338 648 369 650 c 0
 404 651 426 624 426 591 c 0
 426 559 404 534 369 530 c 0xd8
192 530 m 0
 155 526 132 558 132 591 c 0
 132 623 162 648 192 650 c 0
 228 651 250 624 250 591 c 0
 250 560 228 534 192 530 c 0
392 29 m 2xe4
 392 55 l 1xe4
 350 20 275 -22 198 -15 c 0
 130 -9 79 62 76 120 c 0
 72 172 71 221 71 270 c 0
 71 331 76 387 75 426 c 0
 75 458 96 471 118 471 c 0
 142 471 167 458 167 426 c 0
 167 395 162 338 163 275 c 0
 163 226 163 179 170 128 c 0
 177 78 198 71 233 71 c 0
 292 71 354 106 393 135 c 1
 394 177 394 220 393 274 c 0
 393 323 392 390 389 427 c 0
 389 455 409 470 430 471 c 0
 453 471 479 456 479 427 c 1xe2
 483 402 482 348 484 311 c 0
 488 201 487 117 487 30 c 0xe1
 487 -9 466 -21 444 -22 c 0
 418 -24 392 -13 392 29 c 2xe4
EndSplineSet
Validated: 33
EndChar

StartChar: yacute
Encoding: 253 253 169
Width: 550
GlyphClass: 2
Flags: MW
HStem: -297 1075 530 248
VStem: 46 474 171 224
LayerCount: 2
Fore
SplineSet
384 702 m 0x50
 344 648 284 587 248 551 c 0
 223 526 193 525 179 539 c 0
 164 552 169 584 193 607 c 0
 237 647 279 713 314 761 c 0
 332 783 367 783 384 769 c 0
 396 756 401 725 384 702 c 0x50
513 397 m 0xa0
 461 274 355 66 185 -271 c 0
 174 -293 145 -307 121 -288 c 0
 104 -275 92 -252 107 -225 c 0
 150 -139 191 -61 228 12 c 1
 151 157 89 293 52 392 c 0
 36 436 52 459 72 468 c 0
 93 479 128 476 143 427 c 0
 176 318 233 200 277 109 c 1
 335 226 384 330 424 433 c 0
 441 478 471 483 492 474 c 0
 510 465 531 440 513 397 c 0xa0
EndSplineSet
Validated: 33
EndChar

StartChar: thorn
Encoding: 254 254 170
Width: 550
GlyphClass: 2
Flags: MW
HStem: -29 78 397 79<272 316.5>
VStem: 73 87<331 331 331 342 331 417> 81 86 390 97
LayerCount: 2
Fore
SplineSet
82 711 m 0xe8
 92 731 115 742 134 739 c 0
 154 737 172 718 167 700 c 0
 165 692 163 457 161 430 c 1
 206 461 249 476 295 476 c 0
 410 476 484 421 487 204 c 0
 489 102 420 -27 295 -29 c 0
 235 -30 195 -27 167 -18 c 1
 168 -110 170 -192 170 -230 c 0
 171 -263 150 -278 128 -278 c 0
 107 -277 83 -268 81 -229 c 0xd8
 75 -107 73 245.99609375 73 386 c 0
 73 448 77 701 82 711 c 0xe8
160 331 m 2xe8
 161 274 164 164 165 55 c 1
 193 44 235 47 284 49 c 0
 365 52 393 149 390 234 c 0
 384 369 342 397 291 397 c 0
 247 397 194 371 160 342 c 1
 160 331 l 2xe8
EndSplineSet
Validated: 33
EndChar

StartChar: ydieresis
Encoding: 255 255 171
Width: 550
GlyphClass: 2
Flags: MW
HStem: 530 120<196 196 373 373>
VStem: 46 474 136 118<575.5 607> 312 118<575 607>
LayerCount: 2
Fore
SplineSet
373 530 m 0xb0
 335 526 312 558 312 591 c 0
 312 623 342 648 373 650 c 0
 408 651 430 624 430 591 c 0
 430 559 408 534 373 530 c 0xb0
196 530 m 0
 159 526 136 558 136 591 c 0
 136 623 166 648 196 650 c 0
 232 651 254 624 254 591 c 0
 254 560 232 534 196 530 c 0
513 397 m 0xc0
 461 274 355 66 185 -271 c 0
 174 -293 145 -307 121 -288 c 0
 104 -275 92 -252 107 -225 c 0
 150 -139 191 -61 228 12 c 1
 151 157 89 293 52 392 c 0
 36 436 52 459 72 468 c 0
 93 479 128 476 143 427 c 0
 176 318 233 200 277 109 c 1
 335 226 384 330 424 433 c 0
 441 478 471 483 492 474 c 0
 510 465 531 440 513 397 c 0xc0
EndSplineSet
Validated: 33
EndChar

StartChar: Amacron
Encoding: 256 256 172
Width: 550
GlyphClass: 2
Flags: MW
HStem: 235 62 235 75 740 82
VStem: 33 498
LayerCount: 2
Fore
SplineSet
117 822 m 0x70
 164 822 313 821 441 825 c 0
 475 826 487 802 486 782 c 0
 486 762 473 740 440 740 c 0
 357 740 163 740 117 742 c 0
 84 743 77 765 77 785 c 0
 78 803 85 822 117 822 c 0x70
503 -2 m 0
 482 -11 455 -4 439 38 c 0
 429 63 412 140 392 235 c 1
 345 233 254 227 178 215 c 1
 148 132 125 62 117 38 c 0
 104 -4 77 -11 56 -2 c 0
 36 7 27 30 36 69 c 0
 40 89 61 145 90 215 c 1
 79 222 73 232 73 242 c 0
 72 259 92 277 118 285 c 1
 175 418 247 573 295 642 c 0
 312 666 325 678 343 678 c 0
 364 680 388 672 393 642 c 0
 414 515 497 116 523 69 c 0
 542 34 523 7 503 -2 c 0
325 563 m 1
 293 514 248 404 208 297 c 1xb0
 276 305 336 309 377 310 c 1
 359 396 341 487 325 563 c 1
EndSplineSet
Validated: 33
EndChar

StartChar: amacron
Encoding: 257 257 173
Width: 550
GlyphClass: 2
Flags: MW
HStem: -29 83<243 278.5 217 279> 402 84<283 329.5> 530 82
VStem: 64 97<168.5 276.5 168.5 291> 384 89
LayerCount: 2
Fore
SplineSet
118 612 m 0
 165 612 314 611 442 615 c 0
 476 616 488 592 487 572 c 0
 487 552 474 530 441 530 c 0
 358 530 164 530 118 532 c 0
 85 533 78 555 78 575 c 0
 79 593 86 612 118 612 c 0
488 408 m 1
 467 244 466 168 499 19 c 0
 509 -23 485 -35 461 -37 c 0
 438 -39 415 -33 404 9 c 0
 401 29 397 49 394 70 c 1
 363 18 315 -29 243 -29 c 0
 132 -27 64 83 64 168 c 0
 64 414 193 486 330 486 c 0
 399 486 440 462 488 408 c 1
161 198 m 0
 161 139 187 54 247 54 c 0
 310 54 362 130 384 190 c 1
 384 237 386 295 394 371 c 1
 368 392 350 402 309 402 c 0
 257 402 161 355 161 198 c 0
EndSplineSet
Validated: 33
EndChar

StartChar: Abreve
Encoding: 258 258 174
Width: 550
GlyphClass: 2
Flags: MW
HStem: 235 62 235 75 740 72<243.5 314.5 243.5 325>
VStem: 33 498
LayerCount: 2
Fore
SplineSet
123 886 m 0x70
 155 881 208 812 279 812 c 0
 350 812 372 839 431 879 c 0
 460 898 482 876 481 856 c 0
 481 836 475 822 451 799 c 0
 419 768 370 740 280 740 c 0
 190 740 135 785 114 801 c 0
 88 821 83 836 83 856 c 0
 84 874 92 891 123 886 c 0x70
503 -2 m 0
 482 -11 455 -4 439 38 c 0
 429 63 412 140 392 235 c 1
 345 233 254 227 178 215 c 1
 148 132 125 62 117 38 c 0
 104 -4 77 -11 56 -2 c 0
 36 7 27 30 36 69 c 0
 40 89 61 145 90 215 c 1
 79 222 73 232 73 242 c 0
 72 259 92 277 118 285 c 1
 175 418 247 573 295 642 c 0
 312 666 325 678 343 678 c 0
 364 680 388 672 393 642 c 0
 414 515 497 116 523 69 c 0
 542 34 523 7 503 -2 c 0
325 563 m 1
 293 514 248 404 208 297 c 1xb0
 276 305 336 309 377 310 c 1
 359 396 341 487 325 563 c 1
EndSplineSet
Validated: 33
EndChar

StartChar: abreve
Encoding: 259 259 175
Width: 550
GlyphClass: 2
Flags: MW
HStem: -29 83<243 278.5 217 279> 402 84<283 329.5> 530 72<244.5 315.5 244.5 326>
VStem: 64 97<168.5 276.5 168.5 291> 384 89
LayerCount: 2
Fore
SplineSet
124 676 m 0
 156 671 209 602 280 602 c 0
 351 602 373 629 432 669 c 0
 461 688 483 666 482 646 c 0
 482 626 476 612 452 589 c 0
 420 558 371 530 281 530 c 0
 191 530 136 575 115 591 c 0
 89 611 84 626 84 646 c 0
 85 664 93 681 124 676 c 0
488 408 m 1
 467 244 466 168 499 19 c 0
 509 -23 485 -35 461 -37 c 0
 438 -39 415 -33 404 9 c 0
 401 29 397 49 394 70 c 1
 363 18 315 -29 243 -29 c 0
 132 -27 64 83 64 168 c 0
 64 414 193 486 330 486 c 0
 399 486 440 462 488 408 c 1
161 198 m 0
 161 139 187 54 247 54 c 0
 310 54 362 130 384 190 c 1
 384 237 386 295 394 371 c 1
 368 392 350 402 309 402 c 0
 257 402 161 355 161 198 c 0
EndSplineSet
Validated: 33
EndChar

StartChar: Aogonek
Encoding: 260 260 176
Width: 550
GlyphClass: 2
Flags: MW
HStem: -263 83<477.5 506.5> 235 62 235 75
VStem: 365 84<-118 -104> 365 243
LayerCount: 2
Fore
SplineSet
518 8 m 0xb0
 517 8 517 7 516 7 c 0
 512 3 507 0 504 -2 c 0
 473 -25 449 -62 449 -101 c 0
 449 -135 461 -180 494 -180 c 0xb0
 542 -180 548 -159 584 -155 c 0
 613 -152 615 -196 593 -219 c 0xa8
 571 -242 536 -263 477 -263 c 0
 424 -263 365 -223 365 -131 c 0
 365 -77 375 -38 409 -2 c 0
 421 11 432 21 443 29 c 0
 442 32 440 35 439 38 c 0
 429 63 412 140 392 235 c 1
 345 233 254 227 178 215 c 1
 148 132 125 62 117 38 c 0
 104 -4 77 -11 56 -2 c 0
 36 7 27 30 36 69 c 0
 40 89 61 145 90 215 c 1
 79 222 73 232 73 242 c 0
 72 259 92 277 118 285 c 1
 175 418 247 573 295 642 c 0
 312 666 325 678 343 678 c 0
 364 680 388 672 393 642 c 0
 414 515 497 116 523 69 c 0
 535 48 532 29 524 16 c 0
 523 13 522 10 518 8 c 0xb0
325 563 m 1
 293 514 248 404 208 297 c 1xd0
 276 305 336 309 377 310 c 1
 359 396 341 487 325 563 c 1
EndSplineSet
Validated: 33
EndChar

StartChar: aogonek
Encoding: 261 261 177
Width: 550
GlyphClass: 2
Flags: MW
HStem: -264 83<452.5 481.5> -29 83<243 278.5 217 279> 402 84<283 329.5>
VStem: 64 97<168.5 276.5 168.5 291> 340 84<-119 -105> 340 243 384 89
LayerCount: 2
Fore
SplineSet
488 408 m 1xf2
 467 244 466 168 499 19 c 0
 509 -23 485 -35 461 -37 c 2xf2
 446 -37 l 1
 433 -56 424 -79 424 -102 c 0
 424 -136 436 -181 469 -181 c 0xf8
 517 -181 523 -160 559 -156 c 0
 588 -153 590 -197 568 -220 c 0xf4
 546 -243 511 -264 452 -264 c 0
 399 -264 340 -224 340 -132 c 0
 340 -78 350 -39 384 -3 c 2
 403 16 l 1
 400 34 397 51 394 70 c 1xf8
 363 18 315 -29 243 -29 c 0
 132 -27 64 83 64 168 c 0
 64 414 193 486 330 486 c 0
 399 486 440 462 488 408 c 1xf2
161 198 m 0
 161 139 187 54 247 54 c 0
 310 54 362 130 384 190 c 1
 384 237 386 295 394 371 c 1
 368 392 350 402 309 402 c 0
 257 402 161 355 161 198 c 0
EndSplineSet
Validated: 33
EndChar

StartChar: Cacute
Encoding: 262 262 178
Width: 550
GlyphClass: 2
Flags: MW
HStem: -29 84<222 247> 591 76<316.5 370.5 288.5 378> 740 248
VStem: 38 93<182.5 323 182.5 334> 167 224 423 96<511 557.5>
LayerCount: 2
Fore
SplineSet
380 912 m 0
 340 858 280 797 244 761 c 0
 219 736 189 735 175 749 c 0
 160 762 165 794 189 817 c 0
 233 857 275 923 310 971 c 0
 328 993 363 993 380 979 c 0
 392 966 397 935 380 912 c 0
359 667 m 0
 382 667 404 664 422 659 c 1
 427 678 444 690 460 692 c 0
 478 695 505 683 511 656 c 0
 522 607 519 568 519 547 c 0
 519 520 495 487 475 485 c 0
 455 482 423 497 423 525 c 0
 423 535 424 548 425 564 c 1
 410 574 390 591 366 591 c 0
 267 591 131 422 131 224 c 0
 131 141 186 55 258 55 c 0
 343 55 405 92 438 118 c 0
 459 133 479 143 498 129 c 0
 515 116 524 94 494 60 c 0
 459 20 389 -31 247 -29 c 0
 115 -29 38 87 38 194 c 0
 38 474 218 667 359 667 c 0
EndSplineSet
Validated: 33
EndChar

StartChar: cacute
Encoding: 263 263 179
Width: 550
GlyphClass: 2
Flags: MW
HStem: -29 84 408 85<283.5 335.5> 530 248
VStem: 68 95 165 224
LayerCount: 2
Fore
SplineSet
378 702 m 0
 338 648 278 587 242 551 c 0
 217 526 187 525 173 539 c 0
 158 552 163 584 187 607 c 0
 231 647 273 713 308 761 c 0
 326 783 361 783 378 769 c 0
 390 756 395 725 378 702 c 0
471 372 m 0
 483 328 464 310 442 301 c 0
 418 292 390 294 377 334 c 0
 365 370 362 408 309 408 c 0
 258 408 172 363 163 205 c 0
 160 149 167 60 270 55 c 0
 343 52 384 79 392 99 c 0
 410 143 438 144 459 134 c 0
 480 125 496 107 476 66 c 0
 456 25 389 -31 259 -29 c 0
 134 -27 66 72 68 174 c 0
 71 392 195 493 330 493 c 0
 399 493 455 434 471 372 c 0
EndSplineSet
Validated: 33
EndChar

StartChar: Ccircumflex
Encoding: 264 264 180
Width: 550
GlyphClass: 2
Flags: MW
HStem: -29 84<222 247> 591 76<316.5 370.5 288.5 378>
VStem: 38 93<182.5 323 182.5 334> 86 429 423 96<511 557.5>
LayerCount: 2
Fore
SplineSet
450 744 m 0xd0
 436 747 364 900 302 971 c 1
 247 903 168 749 151 744 c 0
 119 736 101 743 91 760 c 0
 80 776 87 793 106 820 c 0
 138 866 236 1008 270 1058 c 0
 276 1067 289 1067 300 1067 c 0
 310 1067 321 1066 328 1058 c 0
 363 1013 447 874 479 826 c 0
 498 798 523 773 512 757 c 0
 502 740 484 737 450 744 c 0xd0
359 667 m 0
 382 667 404 664 422 659 c 1
 427 678 444 690 460 692 c 0
 478 695 505 683 511 656 c 0
 522 607 519 568 519 547 c 0
 519 520 495 487 475 485 c 0
 455 482 423 497 423 525 c 0
 423 535 424 548 425 564 c 1
 410 574 390 591 366 591 c 0
 267 591 131 422 131 224 c 0
 131 141 186 55 258 55 c 0
 343 55 405 92 438 118 c 0
 459 133 479 143 498 129 c 0
 515 116 524 94 494 60 c 0
 459 20 389 -31 247 -29 c 0
 115 -29 38 87 38 194 c 0xe8
 38 474 218 667 359 667 c 0
EndSplineSet
Validated: 33
EndChar

StartChar: ccircumflex
Encoding: 265 265 181
Width: 550
GlyphClass: 2
Flags: MW
HStem: -29 84 408 85<283.5 335.5>
VStem: 62 429 68 95
LayerCount: 2
Fore
SplineSet
426 534 m 0xe0
 412 537 340 690 278 761 c 1
 223 693 144 539 127 534 c 0
 95 526 77 533 67 550 c 0
 56 566 63 583 82 610 c 0
 114 656 212 798 246 848 c 0
 252 857 265 857 276 857 c 0
 286 857 297 856 304 848 c 0
 339 803 423 664 455 616 c 0
 474 588 499 563 488 547 c 0
 478 530 460 527 426 534 c 0xe0
471 372 m 0
 483 328 464 310 442 301 c 0
 418 292 390 294 377 334 c 0
 365 370 362 408 309 408 c 0
 258 408 172 363 163 205 c 0
 160 149 167 60 270 55 c 0
 343 52 384 79 392 99 c 0
 410 143 438 144 459 134 c 0
 480 125 496 107 476 66 c 0
 456 25 389 -31 259 -29 c 0
 134 -27 66 72 68 174 c 0xd0
 71 392 195 493 330 493 c 0
 399 493 455 434 471 372 c 0
EndSplineSet
Validated: 33
EndChar

StartChar: Cdotaccent
Encoding: 266 266 182
Width: 550
GlyphClass: 2
Flags: MW
HStem: -29 84<222 247> 591 76<316.5 370.5 288.5 378> 743 160<281 281>
VStem: 38 93<182.5 323 182.5 334> 195 168<804 846> 423 96<511 557.5>
LayerCount: 2
Fore
SplineSet
281 743 m 0
 228 738 195 781 195 824 c 0
 195 868 238 900 281 903 c 0
 331 905 363 869 363 826 c 0
 363 782 331 749 281 743 c 0
359 667 m 0
 382 667 404 664 422 659 c 1
 427 678 444 690 460 692 c 0
 478 695 505 683 511 656 c 0
 522 607 519 568 519 547 c 0
 519 520 495 487 475 485 c 0
 455 482 423 497 423 525 c 0
 423 535 424 548 425 564 c 1
 410 574 390 591 366 591 c 0
 267 591 131 422 131 224 c 0
 131 141 186 55 258 55 c 0
 343 55 405 92 438 118 c 0
 459 133 479 143 498 129 c 0
 515 116 524 94 494 60 c 0
 459 20 389 -31 247 -29 c 0
 115 -29 38 87 38 194 c 0
 38 474 218 667 359 667 c 0
EndSplineSet
Validated: 33
EndChar

StartChar: cdotaccent
Encoding: 267 267 183
Width: 550
GlyphClass: 2
Flags: MW
HStem: -29 84 408 85<283.5 335.5> 533 160<279 279>
VStem: 68 95 193 168<594 636>
LayerCount: 2
Fore
SplineSet
279 533 m 0
 226 528 193 571 193 614 c 0
 193 658 236 690 279 693 c 0
 329 695 361 659 361 616 c 0
 361 572 329 539 279 533 c 0
471 372 m 0
 483 328 464 310 442 301 c 0
 418 292 390 294 377 334 c 0
 365 370 362 408 309 408 c 0
 258 408 172 363 163 205 c 0
 160 149 167 60 270 55 c 0
 343 52 384 79 392 99 c 0
 410 143 438 144 459 134 c 0
 480 125 496 107 476 66 c 0
 456 25 389 -31 259 -29 c 0
 134 -27 66 72 68 174 c 0
 71 392 195 493 330 493 c 0
 399 493 455 434 471 372 c 0
EndSplineSet
Validated: 33
EndChar

StartChar: Ccaron
Encoding: 268 268 184
Width: 550
GlyphClass: 2
Flags: MW
HStem: -29 84<222 247> 591 76<316.5 370.5 288.5 378>
VStem: 38 93<182.5 323 182.5 334> 67 424 423 96<511 557.5>
LayerCount: 2
Fore
SplineSet
418 750 m 0xd0
 385 769 338 800 279 846 c 1
 220 800 173 769 140 750 c 0
 110 733 81 740 71 757 c 0
 60 773 73 803 102 819 c 0
 152 845 205 899 250 935 c 0
 259 942 269 944 280 944 c 0
 290 944 300 941 308 935 c 0
 353 899 406 845 456 819 c 0
 485 803 498 773 487 757 c 0
 477 740 448 733 418 750 c 0xd0
359 667 m 0
 382 667 404 664 422 659 c 1
 427 678 444 690 460 692 c 0
 478 695 505 683 511 656 c 0
 522 607 519 568 519 547 c 0
 519 520 495 487 475 485 c 0
 455 482 423 497 423 525 c 0
 423 535 424 548 425 564 c 1
 410 574 390 591 366 591 c 0
 267 591 131 422 131 224 c 0
 131 141 186 55 258 55 c 0
 343 55 405 92 438 118 c 0
 459 133 479 143 498 129 c 0
 515 116 524 94 494 60 c 0
 459 20 389 -31 247 -29 c 0
 115 -29 38 87 38 194 c 0xe8
 38 474 218 667 359 667 c 0
EndSplineSet
Validated: 33
EndChar

StartChar: ccaron
Encoding: 269 269 185
Width: 550
GlyphClass: 2
Flags: MW
HStem: -29 84 408 85<283.5 335.5>
VStem: 65 424 68 95
LayerCount: 2
Fore
SplineSet
416 540 m 0xe0
 383 559 336 590 277 636 c 1
 218 590 171 559 138 540 c 0
 108 523 79 530 69 547 c 0
 58 563 71 593 100 609 c 0
 150 635 203 689 248 725 c 0
 257 732 267 734 278 734 c 0
 288 734 298 731 306 725 c 0
 351 689 404 635 454 609 c 0
 483 593 496 563 485 547 c 0
 475 530 446 523 416 540 c 0xe0
471 372 m 0
 483 328 464 310 442 301 c 0
 418 292 390 294 377 334 c 0
 365 370 362 408 309 408 c 0
 258 408 172 363 163 205 c 0
 160 149 167 60 270 55 c 0
 343 52 384 79 392 99 c 0
 410 143 438 144 459 134 c 0
 480 125 496 107 476 66 c 0
 456 25 389 -31 259 -29 c 0
 134 -27 66 72 68 174 c 0xd0
 71 392 195 493 330 493 c 0
 399 493 455 434 471 372 c 0
EndSplineSet
Validated: 33
EndChar

StartChar: Dcaron
Encoding: 270 270 186
Width: 550
GlyphClass: 2
Flags: MW
HStem: -29 80<315 350 279.5 381>
VStem: 39 92 69 424 434 90<197.5 356>
LayerCount: 2
Fore
SplineSet
420 750 m 0xa0
 387 769 340 800 281 846 c 1
 222 800 175 769 142 750 c 0
 112 733 83 740 73 757 c 0
 62 773 75 803 104 819 c 0
 154 845 207 899 252 935 c 0
 261 942 271 944 282 944 c 0
 292 944 302 941 310 935 c 0
 355 899 408 845 458 819 c 0
 487 803 500 773 489 757 c 0
 479 740 450 733 420 750 c 0xa0
315 -29 m 0
 179 -31 97 0 84 0 c 0
 61 0 40 16 43 48 c 0
 47 105 45 280 39 455 c 0
 36 535 40 577 41 617 c 0
 42 653 64 668 87 668 c 0
 147 668 524 627 524 216 c 0xd0
 524 109 447 -29 315 -29 c 0
131 325 m 0
 134 238 135 161 138 82 c 1
 191 59 245 51 314 51 c 0
 386 51 434 156 434 239 c 0
 434 473 248 537 130 580 c 1
 128 500 128 424 131 325 c 0
EndSplineSet
Validated: 33
EndChar

StartChar: dcaron
Encoding: 271 271 187
Width: 550
GlyphClass: 2
Flags: MW
HStem: -13 83 396 82
VStem: 59 90 403 86<227 253 253 263.5> 406 91
LayerCount: 2
Fore
SplineSet
510 31 m 0xf0
 506 5 488 -4 468 -8 c 0
 427 -16 412 17 408 60 c 1xf0
 383 23 345 -13 269 -13 c 0
 167 -13 55 77 59 255 c 1
 57 381 137 476 262 478 c 0
 324 478 372 461 406 438 c 1
 406 478 407 516 408 550 c 1xe8
 376 569 335 598 285 636 c 1
 226 590 179 559 146 540 c 0
 116 523 87 530 77 547 c 0
 66 563 79 593 108 609 c 0
 158 635 211 689 256 725 c 0
 265 732 275 734 286 734 c 0
 296 734 306 731 314 725 c 0
 344 701 377 669 411 643 c 1
 411 650 412 656 412 661 c 0
 416 709 440 719 462 719 c 0
 484 718 504 709 501 661 c 0
 500 641 498 606 497 562 c 2
 497 557 l 1
 493 452 489 304 489 227 c 0
 492 72 514 57 510 31 c 0xf0
278 70 m 0
 355 69 381 120 403 158 c 1
 403 188 402 220 403 253 c 0
 403 274 404 295 404 316 c 1
 378 358 331 398 276 396 c 0
 195 393 151 324 149 247 c 0
 148 136 195 69 278 70 c 0
EndSplineSet
Validated: 33
EndChar

StartChar: Emacron
Encoding: 274 274 188
Width: 550
GlyphClass: 2
Flags: MW
HStem: -17 80 310 76<428.5 465 427 465.5> 574 79 740 82
VStem: 39 91 39 92
LayerCount: 2
Fore
SplineSet
106 822 m 0xb8
 153 822 302 821 430 825 c 0
 464 826 476 802 475 782 c 0
 475 762 462 740 429 740 c 0
 346 740 152 740 106 742 c 0
 73 743 66 765 66 785 c 0
 67 803 74 822 106 822 c 0xb8
455 -6 m 0
 413 -2 211 -24 111 -17 c 0
 84 -15 48 13 43 53 c 0
 35 110 45 269 39 435 c 0
 36 524 40 563 41 607 c 0
 42 643 64 658 87 658 c 0
 102 659 116 654 125 642 c 1
 239 658 405 653 464 646 c 0
 496 642 503 629 504 611 c 0
 504 591 497 567 464 570 c 0
 351 579 215 574 134 563 c 1
 132 514 130 452 130 372 c 1xf8
 250 373 405 386 449 386 c 0
 481 386 488 369 489 351 c 0
 489 331 482 310 449 310 c 0
 408 310 215 292 131 291 c 1
 133 204 131 91 140 67 c 1xf4
 167 57 401 69 442 77 c 0
 495 87 503 56 504 38 c 0
 504 18 491 -9 455 -6 c 0
EndSplineSet
Validated: 33
EndChar

StartChar: emacron
Encoding: 275 275 189
Width: 550
GlyphClass: 2
Flags: MW
HStem: -26 76 414 73<264.5 308.5> 530 82
VStem: 70 91
LayerCount: 2
Fore
SplineSet
118 612 m 0
 165 612 314 611 442 615 c 0
 476 616 488 592 487 572 c 0
 487 552 474 530 441 530 c 0
 358 530 164 530 118 532 c 0
 85 533 78 555 78 575 c 0
 79 593 86 612 118 612 c 0
479 56 m 0
 444 8 395 -28 265 -26 c 0
 140 -24 68 69 70 222 c 0
 73 392 175 487 310 487 c 0
 367 487 455 434 480 361 c 0
 488 326 450 283 431 269 c 0
 369 223 228 179 164 156 c 1
 173 99 200 53 270 50 c 0
 343 47 396 97 402 105 c 0
 431 144 455 142 474 129 c 0
 493 116 507 94 479 56 c 0
290 414 m 0
 239 414 168 368 161 249 c 1
 189 256 338 292 388 338 c 1
 358 397 327 414 290 414 c 0
EndSplineSet
Validated: 33
EndChar

StartChar: Ebreve
Encoding: 276 276 190
Width: 550
GlyphClass: 2
Flags: MW
HStem: -17 80 310 76<428.5 465 427 465.5> 574 79 740 72<232.5 303.5 232.5 314>
VStem: 39 91 39 92
LayerCount: 2
Fore
SplineSet
112 886 m 0xf8
 144 881 197 812 268 812 c 0
 339 812 361 839 420 879 c 0
 449 898 471 876 470 856 c 0
 470 836 464 822 440 799 c 0
 408 768 359 740 269 740 c 0
 179 740 124 785 103 801 c 0
 77 821 72 836 72 856 c 0
 73 874 81 891 112 886 c 0xf8
455 -6 m 0
 413 -2 211 -24 111 -17 c 0
 84 -15 48 13 43 53 c 0
 35 110 45 269 39 435 c 0
 36 524 40 563 41 607 c 0
 42 643 64 658 87 658 c 0
 102 659 116 654 125 642 c 1
 239 658 405 653 464 646 c 0
 496 642 503 629 504 611 c 0
 504 591 497 567 464 570 c 0
 351 579 215 574 134 563 c 1
 132 514 130 452 130 372 c 1xf8
 250 373 405 386 449 386 c 0
 481 386 488 369 489 351 c 0
 489 331 482 310 449 310 c 0
 408 310 215 292 131 291 c 1
 133 204 131 91 140 67 c 1xf4
 167 57 401 69 442 77 c 0
 495 87 503 56 504 38 c 0
 504 18 491 -9 455 -6 c 0
EndSplineSet
Validated: 33
EndChar

StartChar: ebreve
Encoding: 277 277 191
Width: 550
GlyphClass: 2
Flags: MW
HStem: -26 76 414 73<264.5 308.5> 530 72<243.5 314.5 243.5 325>
VStem: 70 91
LayerCount: 2
Fore
SplineSet
123 676 m 0
 155 671 208 602 279 602 c 0
 350 602 372 629 431 669 c 0
 460 688 482 666 481 646 c 0
 481 626 475 612 451 589 c 0
 419 558 370 530 280 530 c 0
 190 530 135 575 114 591 c 0
 88 611 83 626 83 646 c 0
 84 664 92 681 123 676 c 0
479 56 m 0
 444 8 395 -28 265 -26 c 0
 140 -24 68 69 70 222 c 0
 73 392 175 487 310 487 c 0
 367 487 455 434 480 361 c 0
 488 326 450 283 431 269 c 0
 369 223 228 179 164 156 c 1
 173 99 200 53 270 50 c 0
 343 47 396 97 402 105 c 0
 431 144 455 142 474 129 c 0
 493 116 507 94 479 56 c 0
290 414 m 0
 239 414 168 368 161 249 c 1
 189 256 338 292 388 338 c 1
 358 397 327 414 290 414 c 0
EndSplineSet
Validated: 33
EndChar

StartChar: Edotaccent
Encoding: 278 278 192
Width: 550
GlyphClass: 2
Flags: MW
HStem: -17 80 310 76<428.5 465 427 465.5> 574 79 743 160<273 273>
VStem: 39 91 39 92 187 168<804 846>
LayerCount: 2
Fore
SplineSet
273 743 m 0xba
 220 738 187 781 187 824 c 0
 187 868 230 900 273 903 c 0
 323 905 355 869 355 826 c 0
 355 782 323 749 273 743 c 0xba
455 -6 m 0
 413 -2 211 -24 111 -17 c 0
 84 -15 48 13 43 53 c 0
 35 110 45 269 39 435 c 0
 36 524 40 563 41 607 c 0
 42 643 64 658 87 658 c 0
 102 659 116 654 125 642 c 1
 239 658 405 653 464 646 c 0
 496 642 503 629 504 611 c 0
 504 591 497 567 464 570 c 0
 351 579 215 574 134 563 c 1
 132 514 130 452 130 372 c 1xfa
 250 373 405 386 449 386 c 0
 481 386 488 369 489 351 c 0
 489 331 482 310 449 310 c 0
 408 310 215 292 131 291 c 1
 133 204 131 91 140 67 c 1xf6
 167 57 401 69 442 77 c 0
 495 87 503 56 504 38 c 0
 504 18 491 -9 455 -6 c 0
EndSplineSet
Validated: 33
EndChar

StartChar: edotaccent
Encoding: 279 279 193
Width: 550
GlyphClass: 2
Flags: MW
HStem: -26 76 414 73<264.5 308.5> 533 160<284 284>
VStem: 70 91 198 168<594 636>
LayerCount: 2
Fore
SplineSet
284 533 m 0
 231 528 198 571 198 614 c 0
 198 658 241 690 284 693 c 0
 334 695 366 659 366 616 c 0
 366 572 334 539 284 533 c 0
479 56 m 0
 444 8 395 -28 265 -26 c 0
 140 -24 68 69 70 222 c 0
 73 392 175 487 310 487 c 0
 367 487 455 434 480 361 c 0
 488 326 450 283 431 269 c 0
 369 223 228 179 164 156 c 1
 173 99 200 53 270 50 c 0
 343 47 396 97 402 105 c 0
 431 144 455 142 474 129 c 0
 493 116 507 94 479 56 c 0
290 414 m 0
 239 414 168 368 161 249 c 1
 189 256 338 292 388 338 c 1
 358 397 327 414 290 414 c 0
EndSplineSet
Validated: 33
EndChar

StartChar: Eogonek
Encoding: 280 280 194
Width: 550
GlyphClass: 2
Flags: MW
HStem: -264 83<292.5 321.5> -17 80 -12 75 310 76<428.5 465 427 465.5> 574 79
VStem: 39 91 39 92 180 84<-119 -108.5> 180 243
LayerCount: 2
Fore
SplineSet
455 -6 m 0x4c
 434 -4 374 -8 307 -12 c 1
 282 -36 264 -68 264 -102 c 0
 264 -136 276 -181 309 -181 c 0xad
 357 -181 363 -160 399 -156 c 0
 428 -153 430 -197 408 -220 c 0xcc80
 386 -243 351 -264 292 -264 c 0
 239 -264 180 -224 180 -132 c 0
 180 -85 188 -49 212 -17 c 1
 174 -19 139 -19 111 -17 c 0
 84 -15 48 13 43 53 c 0
 35 110 45 269 39 435 c 0
 36 524 40 563 41 607 c 0
 42 643 64 658 87 658 c 0
 102 659 116 654 125 642 c 1
 239 658 405 653 464 646 c 0
 496 642 503 629 504 611 c 0
 504 591 497 567 464 570 c 0
 351 579 215 574 134 563 c 1
 132 514 130 452 130 372 c 1xdd
 250 373 405 386 449 386 c 0
 481 386 488 369 489 351 c 0
 489 331 482 310 449 310 c 0
 408 310 215 292 131 291 c 1
 133 204 131 91 140 67 c 1x5a
 167 57 401 69 442 77 c 0
 495 87 503 56 504 38 c 0
 504 18 491 -9 455 -6 c 0x4c
EndSplineSet
Validated: 33
EndChar

StartChar: eogonek
Encoding: 281 281 195
Width: 550
GlyphClass: 2
Flags: MW
HStem: -264 83<292.5 321.5> 414 73<264.5 308.5>
VStem: 70 91 180 84<-119 -109> 180 243
LayerCount: 2
Fore
SplineSet
408 -220 m 0xe8
 386 -243 351 -264 292 -264 c 0
 239 -264 180 -224 180 -132 c 0xf0
 180 -86 187 -50 211 -19 c 1
 119 6 68 93 70 222 c 0xe0
 73 392 175 487 310 487 c 0
 367 487 455 434 480 361 c 0
 488 326 450 283 431 269 c 0
 369 223 228 179 164 156 c 1
 173 99 200 53 270 50 c 0
 343 47 396 97 402 105 c 0
 431 144 455 142 474 129 c 0
 493 116 507 94 479 56 c 0
 447 12 403 -22 295 -26 c 1
 276 -47 264 -74 264 -102 c 0
 264 -136 276 -181 309 -181 c 0xf0
 357 -181 363 -160 399 -156 c 0
 428 -153 430 -197 408 -220 c 0xe8
290 414 m 0xe0
 239 414 168 368 161 249 c 1
 189 256 338 292 388 338 c 1
 358 397 327 414 290 414 c 0xe0
EndSplineSet
Validated: 33
EndChar

StartChar: Ecaron
Encoding: 282 282 196
Width: 550
GlyphClass: 2
Flags: MW
HStem: -17 80 310 76<428.5 465 427 465.5> 574 79
VStem: 39 91 39 92 59 424
LayerCount: 2
Fore
SplineSet
410 750 m 0xa4
 377 769 330 800 271 846 c 1
 212 800 165 769 132 750 c 0
 102 733 73 740 63 757 c 0
 52 773 65 803 94 819 c 0
 144 845 197 899 242 935 c 0
 251 942 261 944 272 944 c 0
 282 944 292 941 300 935 c 0
 345 899 398 845 448 819 c 0
 477 803 490 773 479 757 c 0
 469 740 440 733 410 750 c 0xa4
455 -6 m 0
 413 -2 211 -24 111 -17 c 0
 84 -15 48 13 43 53 c 0
 35 110 45 269 39 435 c 0
 36 524 40 563 41 607 c 0
 42 643 64 658 87 658 c 0
 102 659 116 654 125 642 c 1
 239 658 405 653 464 646 c 0
 496 642 503 629 504 611 c 0
 504 591 497 567 464 570 c 0
 351 579 215 574 134 563 c 1
 132 514 130 452 130 372 c 1xf0
 250 373 405 386 449 386 c 0
 481 386 488 369 489 351 c 0
 489 331 482 310 449 310 c 0
 408 310 215 292 131 291 c 1
 133 204 131 91 140 67 c 1xe8
 167 57 401 69 442 77 c 0
 495 87 503 56 504 38 c 0
 504 18 491 -9 455 -6 c 0
EndSplineSet
Validated: 33
EndChar

StartChar: ecaron
Encoding: 283 283 197
Width: 550
GlyphClass: 2
Flags: MW
HStem: -26 76 414 73<264.5 308.5>
VStem: 70 91 70 424
LayerCount: 2
Fore
SplineSet
421 540 m 0xd0
 388 559 341 590 282 636 c 1
 223 590 176 559 143 540 c 0
 113 523 84 530 74 547 c 0
 63 563 76 593 105 609 c 0
 155 635 208 689 253 725 c 0
 262 732 272 734 283 734 c 0
 293 734 303 731 311 725 c 0
 356 689 409 635 459 609 c 0
 488 593 501 563 490 547 c 0
 480 530 451 523 421 540 c 0xd0
479 56 m 0
 444 8 395 -28 265 -26 c 0
 140 -24 68 69 70 222 c 0xe0
 73 392 175 487 310 487 c 0
 367 487 455 434 480 361 c 0
 488 326 450 283 431 269 c 0
 369 223 228 179 164 156 c 1
 173 99 200 53 270 50 c 0
 343 47 396 97 402 105 c 0
 431 144 455 142 474 129 c 0
 493 116 507 94 479 56 c 0
290 414 m 0
 239 414 168 368 161 249 c 1
 189 256 338 292 388 338 c 1
 358 397 327 414 290 414 c 0
EndSplineSet
Validated: 33
EndChar

StartChar: Gcircumflex
Encoding: 284 284 198
Width: 550
GlyphClass: 2
Flags: MW
HStem: -29 84<222 247> 260 76 601 76<316.5 385.5>
VStem: 38 93<182.5 325.5 182.5 337> 66 429
LayerCount: 2
Fore
SplineSet
430 744 m 0xe8
 416 747 344 900 282 971 c 1
 227 903 148 749 131 744 c 0
 99 736 81 743 71 760 c 0
 60 776 67 793 86 820 c 0
 118 866 216 1008 250 1058 c 0
 256 1067 269 1067 280 1067 c 0
 290 1067 301 1066 308 1058 c 0
 343 1013 427 874 459 826 c 0
 478 798 503 773 492 757 c 0
 482 740 464 737 430 744 c 0xe8
223 311 m 0
 262 330 417 339 475 336 c 0
 508 334 516 324 519 306 c 0
 521 289 519 270 499 263 c 1
 498 253 496 241 495 228 c 0
 486 151 389 -31 247 -29 c 0
 115 -29 38 87 38 194 c 0
 38 480 218 677 359 677 c 0
 416 677 494 642 509 627 c 0
 527 609 523 586 519 574 c 0
 514 559 493 549 473 556 c 0
 452 564 405 601 366 601 c 0
 267 601 131 427 131 224 c 0xf0
 131 141 186 55 258 55 c 0
 337 55 408 189 427 260 c 1
 359 257 266 247 234 230 c 0
 212 218 190 236 187 256 c 0
 184 276 191 296 223 311 c 0
EndSplineSet
Validated: 33
EndChar

StartChar: gcircumflex
Encoding: 285 285 199
Width: 550
GlyphClass: 2
Flags: MW
HStem: -273 78<194 246.5 180 277> -29 82 397 79
VStem: 63 429 73 89 398 82 402 63 402 78<361 365 320.5 384>
LayerCount: 2
Fore
SplineSet
427 534 m 0xf0
 413 537 341 690 279 761 c 1
 224 693 145 539 128 534 c 0
 96 526 78 533 68 550 c 0
 57 566 64 583 83 610 c 0
 115 656 213 798 247 848 c 0
 253 857 266 857 277 857 c 0
 287 857 298 856 305 848 c 0
 340 803 424 664 456 616 c 0
 475 588 500 563 489 547 c 0
 479 530 461 527 427 534 c 0xf0
450 456 m 0xea
 468 446 468 420 461 408 c 0
 460 406 458 404 457 402 c 1
 473 398 480 385 480 366 c 0
 480 275 486 85 474 -39 c 0xe9
 459 -198 338 -273 216 -273 c 0
 172 -273 129 -257 110 -247 c 0
 88 -235 76 -231 76 -206 c 0
 76 -181 96 -162 116 -166 c 0
 134 -169 162 -195 198 -195 c 0
 295 -195 379 -129 393 -34 c 0
 396 -16 397 6 398 35 c 1xec
 371 -2 327 -29 248 -29 c 0
 123 -27 73 57 73 210 c 0
 76 403 201 476 336 476 c 0
 405 476 423 471 450 456 c 0xea
402 361 m 0
 402 369 404 376 408 383 c 1
 402 384 l 2
 378 391 341 398 311 397 c 0
 250 394 169 352 162 240 c 0
 156 143 174 50 259 53 c 0
 354 56 392 125 400 178 c 1
 401 229 401 290 402 361 c 0
EndSplineSet
Validated: 33
EndChar

StartChar: Gbreve
Encoding: 286 286 200
Width: 550
GlyphClass: 2
Flags: MW
HStem: -29 84<222 247> 260 76 601 76<316.5 385.5> 740 72<241.5 312.5 241.5 323>
VStem: 38 93<182.5 325.5 182.5 337>
LayerCount: 2
Fore
SplineSet
121 886 m 0
 153 881 206 812 277 812 c 0
 348 812 370 839 429 879 c 0
 458 898 480 876 479 856 c 0
 479 836 473 822 449 799 c 0
 417 768 368 740 278 740 c 0
 188 740 133 785 112 801 c 0
 86 821 81 836 81 856 c 0
 82 874 90 891 121 886 c 0
223 311 m 0
 262 330 417 339 475 336 c 0
 508 334 516 324 519 306 c 0
 521 289 519 270 499 263 c 1
 498 253 496 241 495 228 c 0
 486 151 389 -31 247 -29 c 0
 115 -29 38 87 38 194 c 0
 38 480 218 677 359 677 c 0
 416 677 494 642 509 627 c 0
 527 609 523 586 519 574 c 0
 514 559 493 549 473 556 c 0
 452 564 405 601 366 601 c 0
 267 601 131 427 131 224 c 0
 131 141 186 55 258 55 c 0
 337 55 408 189 427 260 c 1
 359 257 266 247 234 230 c 0
 212 218 190 236 187 256 c 0
 184 276 191 296 223 311 c 0
EndSplineSet
Validated: 33
EndChar

StartChar: gbreve
Encoding: 287 287 201
Width: 550
GlyphClass: 2
Flags: MW
HStem: -273 78<194 246.5 180 277> -29 82 397 79 530 72<238.5 309.5 238.5 320>
VStem: 73 89 398 82 402 63 402 78<361 365 320.5 384>
LayerCount: 2
Fore
SplineSet
118 676 m 0xf9
 150 671 203 602 274 602 c 0
 345 602 367 629 426 669 c 0
 455 688 477 666 476 646 c 0
 476 626 470 612 446 589 c 0
 414 558 365 530 275 530 c 0
 185 530 130 575 109 591 c 0
 83 611 78 626 78 646 c 0
 79 664 87 681 118 676 c 0xf9
450 456 m 0xfa
 468 446 468 420 461 408 c 0
 460 406 458 404 457 402 c 1
 473 398 480 385 480 366 c 0
 480 275 486 85 474 -39 c 0xf9
 459 -198 338 -273 216 -273 c 0
 172 -273 129 -257 110 -247 c 0
 88 -235 76 -231 76 -206 c 0
 76 -181 96 -162 116 -166 c 0
 134 -169 162 -195 198 -195 c 0
 295 -195 379 -129 393 -34 c 0
 396 -16 397 6 398 35 c 1xfc
 371 -2 327 -29 248 -29 c 0
 123 -27 73 57 73 210 c 0
 76 403 201 476 336 476 c 0
 405 476 423 471 450 456 c 0xfa
402 361 m 0
 402 369 404 376 408 383 c 1
 402 384 l 2
 378 391 341 398 311 397 c 0
 250 394 169 352 162 240 c 0
 156 143 174 50 259 53 c 0
 354 56 392 125 400 178 c 1
 401 229 401 290 402 361 c 0
EndSplineSet
Validated: 33
EndChar

StartChar: Gdotaccent
Encoding: 288 288 202
Width: 550
GlyphClass: 2
Flags: MW
HStem: -29 84<222 247> 260 76 601 76<316.5 385.5> 743 160<282 282>
VStem: 38 93<182.5 325.5 182.5 337> 196 168<804 846>
LayerCount: 2
Fore
SplineSet
282 743 m 0
 229 738 196 781 196 824 c 0
 196 868 239 900 282 903 c 0
 332 905 364 869 364 826 c 0
 364 782 332 749 282 743 c 0
223 311 m 0
 262 330 417 339 475 336 c 0
 508 334 516 324 519 306 c 0
 521 289 519 270 499 263 c 1
 498 253 496 241 495 228 c 0
 486 151 389 -31 247 -29 c 0
 115 -29 38 87 38 194 c 0
 38 480 218 677 359 677 c 0
 416 677 494 642 509 627 c 0
 527 609 523 586 519 574 c 0
 514 559 493 549 473 556 c 0
 452 564 405 601 366 601 c 0
 267 601 131 427 131 224 c 0
 131 141 186 55 258 55 c 0
 337 55 408 189 427 260 c 1
 359 257 266 247 234 230 c 0
 212 218 190 236 187 256 c 0
 184 276 191 296 223 311 c 0
EndSplineSet
Validated: 33
EndChar

StartChar: gdotaccent
Encoding: 289 289 203
Width: 550
GlyphClass: 2
Flags: MW
HStem: -273 78<194 246.5 180 277> -29 82 397 79 533 160<279 279>
VStem: 73 89 193 168<594 636> 398 82 402 63 402 78<361 365 320.5 384>
LayerCount: 2
Fore
SplineSet
279 533 m 0xfc80
 226 528 193 571 193 614 c 0
 193 658 236 690 279 693 c 0
 329 695 361 659 361 616 c 0
 361 572 329 539 279 533 c 0xfc80
450 456 m 0xfd
 468 446 468 420 461 408 c 0
 460 406 458 404 457 402 c 1
 473 398 480 385 480 366 c 0
 480 275 486 85 474 -39 c 0xfc80
 459 -198 338 -273 216 -273 c 0
 172 -273 129 -257 110 -247 c 0
 88 -235 76 -231 76 -206 c 0
 76 -181 96 -162 116 -166 c 0
 134 -169 162 -195 198 -195 c 0
 295 -195 379 -129 393 -34 c 0
 396 -16 397 6 398 35 c 1xfe
 371 -2 327 -29 248 -29 c 0
 123 -27 73 57 73 210 c 0
 76 403 201 476 336 476 c 0
 405 476 423 471 450 456 c 0xfd
402 361 m 0
 402 369 404 376 408 383 c 1
 402 384 l 2
 378 391 341 398 311 397 c 0
 250 394 169 352 162 240 c 0
 156 143 174 50 259 53 c 0
 354 56 392 125 400 178 c 1
 401 229 401 290 402 361 c 0
EndSplineSet
Validated: 33
EndChar

StartChar: Gcommaaccent
Encoding: 290 290 204
Width: 550
GlyphClass: 2
Flags: MW
HStem: -29 84<222 247> 260 76 601 76<316.5 385.5>
VStem: 38 93<182.5 325.5 182.5 337>
LayerCount: 2
Fore
SplineSet
223 311 m 0
 262 330 417 339 475 336 c 0
 508 334 516 324 519 306 c 0
 521 289 519 270 499 263 c 1
 498 253 496 241 495 228 c 0
 486 151 389 -31 247 -29 c 0
 115 -29 38 87 38 194 c 0
 38 480 218 677 359 677 c 0
 416 677 494 642 509 627 c 0
 527 609 523 586 519 574 c 0
 514 559 493 549 473 556 c 0
 452 564 405 601 366 601 c 0
 267 601 131 427 131 224 c 0
 131 141 186 55 258 55 c 0
 337 55 408 189 427 260 c 1
 359 257 266 247 234 230 c 0
 212 218 190 236 187 256 c 0
 184 276 191 296 223 311 c 0
349 -251 m 0
 339 -300 286 -477 261 -510 c 0
 240 -538 204 -548 185 -541 c 0
 166 -536 147 -511 165 -484 c 0
 193 -443 252 -271 261 -228 c 0
 267 -200 298 -196 318 -202 c 0
 335 -207 354 -224 349 -251 c 0
EndSplineSet
Validated: 33
EndChar

StartChar: gcommaaccent
Encoding: 291 291 205
Width: 550
GlyphClass: 2
Flags: MW
HStem: -273 78<194 246.5 180 277> -29 82 397 79
VStem: 73 89 398 82 402 63 402 78<361 365 320.5 384>
LayerCount: 2
Fore
SplineSet
426 923 m 0xf2
 416 874 363 697 338 664 c 0
 317 636 281 626 262 633 c 0
 243 638 224 663 242 690 c 0
 270 731 329 903 338 946 c 0
 344 974 375 978 395 972 c 0
 412 967 431 950 426 923 c 0xf2
450 456 m 0xf4
 468 446 468 420 461 408 c 0
 460 406 458 404 457 402 c 1
 473 398 480 385 480 366 c 0
 480 275 486 85 474 -39 c 0xf2
 459 -198 338 -273 216 -273 c 0
 172 -273 129 -257 110 -247 c 0
 88 -235 76 -231 76 -206 c 0
 76 -181 96 -162 116 -166 c 0
 134 -169 162 -195 198 -195 c 0
 295 -195 379 -129 393 -34 c 0
 396 -16 397 6 398 35 c 1xf8
 371 -2 327 -29 248 -29 c 0
 123 -27 73 57 73 210 c 0
 76 403 201 476 336 476 c 0
 405 476 423 471 450 456 c 0xf4
402 361 m 0
 402 369 404 376 408 383 c 1
 402 384 l 2
 378 391 341 398 311 397 c 0
 250 394 169 352 162 240 c 0
 156 143 174 50 259 53 c 0
 354 56 392 125 400 178 c 1
 401 229 401 290 402 361 c 0
EndSplineSet
Validated: 33
EndChar

StartChar: Hcircumflex
Encoding: 292 292 206
Width: 550
GlyphClass: 2
Flags: MW
HStem: 291 81
VStem: 52 90 52 94 58 429 399 96 401 94
LayerCount: 2
Fore
SplineSet
422 744 m 0x90
 408 747 336 900 274 971 c 1
 219 903 140 749 123 744 c 0
 91 736 73 743 63 760 c 0
 52 776 59 793 78 820 c 0
 110 866 208 1008 242 1058 c 0
 248 1067 261 1067 272 1067 c 0
 282 1067 293 1066 300 1058 c 0
 335 1013 419 874 451 826 c 0
 470 798 495 773 484 757 c 0
 474 740 456 737 422 744 c 0x90
151 620 m 0xc4
 151 595 146 570 146 522 c 0
 146 473 148 424 148 372 c 1
 259 373 352 393 400 396 c 1
 400 409 399 422 399 435 c 0
 396 524 400 572 401 617 c 0
 402 653 424 668 447 668 c 0
 472 669 495 656 495 620 c 0
 495 559 490 462 494 330 c 0
 497 211 487 92 489 23 c 0
 486 -5 459 -21 434 -20 c 0xa8
 411 -20 390 -4 393 28 c 0
 396 70 402 190 401 320 c 1
 351 317 219 291 146 291 c 1
 146 285 145 278 145 272 c 0
 139 171 143 80 145 23 c 0
 142 -5 115 -21 90 -20 c 0
 67 -20 46 -4 49 28 c 0
 52 58 50 137 52 236 c 0
 53 328 58 416 55 500 c 0
 53 571 56 580 57 617 c 0
 58 653 80 668 103 668 c 0
 128 669 151 656 151 620 c 0xc4
EndSplineSet
Validated: 33
EndChar

StartChar: hcircumflex
Encoding: 293 293 207
Width: 550
GlyphClass: 2
Flags: MW
HStem: 387 88<332 351>
VStem: 65 429 84 92 387 97<17.5 64>
LayerCount: 2
Fore
SplineSet
429 844 m 0xc0
 415 847 343 1000 281 1071 c 1
 226 1003 147 849 130 844 c 0
 98 836 80 843 70 860 c 0
 59 876 66 893 85 920 c 0
 117 966 215 1108 249 1158 c 0
 255 1167 268 1167 279 1167 c 0
 289 1167 300 1166 307 1158 c 0
 342 1113 426 974 458 926 c 0
 477 898 502 873 491 857 c 0
 481 840 463 837 429 844 c 0xc0
176 212 m 1xb0
 176 213 l 1
 176 202 175 189 175 176 c 0
 174 110 176 68 170 23 c 0
 167 -5 140 -21 115 -20 c 0
 92 -20 71 -4 74 28 c 0
 76 56 86 240 84 296 c 0
 79 410 80 579 82 667 c 0
 83 703 105 718 128 718 c 0
 153 719 176 706 176 670 c 0
 176 645 177 473 178 380 c 1
 203 426 258 475 363 475 c 0
 448 475 476 392 475 297 c 0
 474 195 484 112 484 38 c 0
 484 -3 459 -22 435 -21 c 0
 413 -20 387 -1 387 30 c 0
 387 98 391 170 390 255 c 0
 389 339 370 387 332 387 c 0
 195 385 176 229 176 212 c 1xb0
EndSplineSet
Validated: 33
EndChar

StartChar: Itilde
Encoding: 296 296 208
Width: 550
GlyphClass: 2
Flags: MW
HStem: -6 72 582 80 584 78<94 94> 740 81<321 343 321 356.5> 824 81<196 217 180 219>
VStem: 228 95
LayerCount: 2
Fore
SplineSet
438 888 m 0xb4
 456 882 457 855 447 833 c 0
 411 766 373 740 340 740 c 0xb4
 299 740 277 761 254 792 c 0
 237 816 230 824 208 824 c 0
 184 824 182 811 158 768 c 0
 150 754 126 751 111 754 c 0
 102 756 91 768 95 783 c 0
 120 856 161 905 199 905 c 0xac
 235 905 257 904 285 862 c 0
 301 839 310 821 332 821 c 0
 354 821 363 818 388 862 c 0
 396 877 414 896 438 888 c 0xb4
85 62 m 0
 124 64 173 65 223 66 c 1
 227 129 232 266 228 405 c 0
 224 500 228 538 230 584 c 1
 176 585 126 585 94 584 c 0
 61 583 46 601 46 621 c 0
 45 641 59 661 93 662 c 0
 230 666 355 666 463 655 c 0
 495 652 505 635 506 617 c 0xb4
 506 597 494 566 461 572 c 0
 436 576 383 579 324 582 c 1xd4
 323 528 320 459 323 350 c 0
 326 236 318 138 318 67 c 1
 387 67 447 66 468 66 c 0
 500 66 507 49 508 31 c 0
 508 11 501 -15 468 -10 c 0
 396 0 166 -13 87 -13 c 0
 54 -13 39 1 39 21 c 0
 38 41 50 60 85 62 c 0
EndSplineSet
Validated: 33
EndChar

StartChar: itilde
Encoding: 297 297 209
Width: 540
GlyphClass: 2
Flags: MW
HStem: -16 81<106 144.5> 378 76<124.5 136 123 137 123 254> 530 81<327 349 327 362.5> 614 81<202 223 186 225>
VStem: 250 86
LayerCount: 2
Fore
SplineSet
444 678 m 0
 462 672 463 645 453 623 c 0
 417 556 379 530 346 530 c 0
 305 530 283 551 260 582 c 0
 243 606 236 614 214 614 c 0
 190 614 188 601 164 558 c 0
 156 544 132 541 117 544 c 0
 108 546 97 558 101 573 c 0
 126 646 167 695 205 695 c 0
 241 695 263 694 291 652 c 0
 307 629 316 611 338 611 c 0
 360 611 369 608 394 652 c 0
 402 667 420 686 444 678 c 0
106 65 m 2
 251 65 l 1
 251 88 251 108 250 138 c 0
 247 222 251 297 254 378 c 1
 221 382 185 376 137 378 c 0
 112 378 100 396 100 413 c 0
 99 434 110 454 136 454 c 0
 173 457 229 461 294 459 c 0
 335 460 342 416 342 405 c 0
 332 280 336 187 342 65 c 1
 459 65 l 2
 491 65 497 47 497 28 c 0
 496 9 488 -11 457 -11 c 0
 415 -11 184 -16 105 -16 c 0
 72 -16 65 6 66 26 c 0
 66 46 73 65 106 65 c 2
EndSplineSet
Validated: 33
EndChar

StartChar: Imacron
Encoding: 298 298 210
Width: 550
GlyphClass: 2
Flags: MW
HStem: -6 72 582 80 584 78<94 94> 740 82
VStem: 228 95
LayerCount: 2
Fore
SplineSet
109 822 m 0xb8
 156 822 305 821 433 825 c 0
 467 826 479 802 478 782 c 0
 478 762 465 740 432 740 c 0
 349 740 155 740 109 742 c 0
 76 743 69 765 69 785 c 0
 70 803 77 822 109 822 c 0xb8
85 62 m 0
 124 64 173 65 223 66 c 1
 227 129 232 266 228 405 c 0
 224 500 228 538 230 584 c 1
 176 585 126 585 94 584 c 0
 61 583 46 601 46 621 c 0
 45 641 59 661 93 662 c 0
 230 666 355 666 463 655 c 0
 495 652 505 635 506 617 c 0xb8
 506 597 494 566 461 572 c 0
 436 576 383 579 324 582 c 1xd8
 323 528 320 459 323 350 c 0
 326 236 318 138 318 67 c 1
 387 67 447 66 468 66 c 0
 500 66 507 49 508 31 c 0
 508 11 501 -15 468 -10 c 0
 396 0 166 -13 87 -13 c 0
 54 -13 39 1 39 21 c 0
 38 41 50 60 85 62 c 0
EndSplineSet
Validated: 33
EndChar

StartChar: imacron
Encoding: 299 299 211
Width: 540
GlyphClass: 2
Flags: MW
HStem: -16 81<106 144.5> 378 76<124.5 136 123 137 123 254> 530 82
VStem: 250 86
LayerCount: 2
Fore
SplineSet
115 612 m 0
 162 612 311 611 439 615 c 0
 473 616 485 592 484 572 c 0
 484 552 471 530 438 530 c 0
 355 530 161 530 115 532 c 0
 82 533 75 555 75 575 c 0
 76 593 83 612 115 612 c 0
106 65 m 2
 251 65 l 1
 251 88 251 108 250 138 c 0
 247 222 251 297 254 378 c 1
 221 382 185 376 137 378 c 0
 112 378 100 396 100 413 c 0
 99 434 110 454 136 454 c 0
 173 457 229 461 294 459 c 0
 335 460 342 416 342 405 c 0
 332 280 336 187 342 65 c 1
 459 65 l 2
 491 65 497 47 497 28 c 0
 496 9 488 -11 457 -11 c 0
 415 -11 184 -16 105 -16 c 0
 72 -16 65 6 66 26 c 0
 66 46 73 65 106 65 c 2
EndSplineSet
Validated: 33
EndChar

StartChar: Ibreve
Encoding: 300 300 212
Width: 550
GlyphClass: 2
Flags: MW
HStem: -6 72 582 80 584 78<94 94> 740 72<234.5 305.5 234.5 316>
VStem: 228 95
LayerCount: 2
Fore
SplineSet
114 886 m 0xb8
 146 881 199 812 270 812 c 0
 341 812 363 839 422 879 c 0
 451 898 473 876 472 856 c 0
 472 836 466 822 442 799 c 0
 410 768 361 740 271 740 c 0
 181 740 126 785 105 801 c 0
 79 821 74 836 74 856 c 0
 75 874 83 891 114 886 c 0xb8
85 62 m 0
 124 64 173 65 223 66 c 1
 227 129 232 266 228 405 c 0
 224 500 228 538 230 584 c 1
 176 585 126 585 94 584 c 0
 61 583 46 601 46 621 c 0
 45 641 59 661 93 662 c 0
 230 666 355 666 463 655 c 0
 495 652 505 635 506 617 c 0xb8
 506 597 494 566 461 572 c 0
 436 576 383 579 324 582 c 1xd8
 323 528 320 459 323 350 c 0
 326 236 318 138 318 67 c 1
 387 67 447 66 468 66 c 0
 500 66 507 49 508 31 c 0
 508 11 501 -15 468 -10 c 0
 396 0 166 -13 87 -13 c 0
 54 -13 39 1 39 21 c 0
 38 41 50 60 85 62 c 0
EndSplineSet
Validated: 33
EndChar

StartChar: ibreve
Encoding: 301 301 213
Width: 540
GlyphClass: 2
Flags: MW
HStem: -16 81<106 144.5> 378 76<124.5 136 123 137 123 254> 530 72<232.5 303.5 232.5 314>
VStem: 250 86
LayerCount: 2
Fore
SplineSet
112 676 m 0
 144 671 197 602 268 602 c 0
 339 602 361 629 420 669 c 0
 449 688 471 666 470 646 c 0
 470 626 464 612 440 589 c 0
 408 558 359 530 269 530 c 0
 179 530 124 575 103 591 c 0
 77 611 72 626 72 646 c 0
 73 664 81 681 112 676 c 0
106 65 m 2
 251 65 l 1
 251 88 251 108 250 138 c 0
 247 222 251 297 254 378 c 1
 221 382 185 376 137 378 c 0
 112 378 100 396 100 413 c 0
 99 434 110 454 136 454 c 0
 173 457 229 461 294 459 c 0
 335 460 342 416 342 405 c 0
 332 280 336 187 342 65 c 1
 459 65 l 2
 491 65 497 47 497 28 c 0
 496 9 488 -11 457 -11 c 0
 415 -11 184 -16 105 -16 c 0
 72 -16 65 6 66 26 c 0
 66 46 73 65 106 65 c 2
EndSplineSet
Validated: 33
EndChar

StartChar: Iogonek
Encoding: 302 302 214
Width: 550
GlyphClass: 2
Flags: MW
HStem: -264 83<292.5 321.5> -13 79 -7 73 582 80 584 78<94 94>
VStem: 180 84<-119 -106.5> 180 243 228 95
LayerCount: 2
Fore
SplineSet
85 62 m 0x29
 124 64 173 65 223 66 c 1
 227 129 232 266 228 405 c 0
 224 500 228 538 230 584 c 1
 176 585 126 585 94 584 c 0
 61 583 46 601 46 621 c 0
 45 641 59 661 93 662 c 0
 230 666 355 666 463 655 c 0
 495 652 505 635 506 617 c 0x29
 506 597 494 566 461 572 c 0
 436 576 383 579 324 582 c 1
 323 528 320 459 323 350 c 0
 326 236 318 138 318 67 c 1x31
 387 67 447 66 468 66 c 0
 500 66 507 49 508 31 c 0
 508 11 501 -15 468 -10 c 0
 437 -6 378 -6 313 -7 c 1
 285 -30 264 -65 264 -102 c 0
 264 -136 276 -181 309 -181 c 0xac
 357 -181 363 -160 399 -156 c 0
 428 -153 430 -197 408 -220 c 0xaa
 386 -243 351 -264 292 -264 c 0
 239 -264 180 -224 180 -132 c 0
 180 -81 189 -44 218 -10 c 1
 164 -11 116 -13 87 -13 c 0
 54 -13 39 1 39 21 c 0xcc
 38 41 50 60 85 62 c 0x29
EndSplineSet
Validated: 33
EndChar

StartChar: iogonek
Encoding: 303 303 215
Width: 550
GlyphClass: 2
Flags: MW
HStem: -264 83<292.5 321.5> -16 81<106 117.5> -11 76<447 459 459 472.5> 378 76<124.5 136 123 137 123 254> 521 144<281 281>
VStem: 180 84<-119 -108> 180 243 203 152<575.5 613.5> 250 86
LayerCount: 2
Fore
SplineSet
281 521 m 0x39
 233 516 203 555 203 594 c 0
 203 633 242 663 281 665 c 0
 326 667 355 634 355 595 c 0
 355 556 326 526 281 521 c 0x39
106 65 m 2
 251 65 l 1
 251 88 251 108 250 138 c 0
 247 222 251 297 254 378 c 1
 221 382 185 376 137 378 c 0
 112 378 100 396 100 413 c 0
 99 434 110 454 136 454 c 0
 173 457 229 461 294 459 c 0
 335 460 342 416 342 405 c 0
 332 280 336 187 342 65 c 1x3080
 459 65 l 2
 491 65 497 47 497 28 c 0
 496 9 488 -11 457 -11 c 0
 437 -11 375 -12 306 -13 c 1
 282 -36 264 -68 264 -102 c 0
 264 -136 276 -181 309 -181 c 0xb4
 357 -181 363 -160 399 -156 c 0
 428 -153 430 -197 408 -220 c 0xb2
 386 -243 351 -264 292 -264 c 0
 239 -264 180 -224 180 -132 c 0
 180 -84 188 -48 214 -15 c 1
 170 -16 130 -16 105 -16 c 0xd4
 72 -16 65 6 66 26 c 0
 66 46 73 65 106 65 c 2
EndSplineSet
Validated: 33
EndChar

StartChar: Idotaccent
Encoding: 304 304 216
Width: 550
GlyphClass: 2
Flags: MW
HStem: -6 72 582 80 584 78<94 94> 743 160<275 275>
VStem: 189 168<804 846> 228 95
LayerCount: 2
Fore
SplineSet
275 743 m 0xb8
 222 738 189 781 189 824 c 0
 189 868 232 900 275 903 c 0
 325 905 357 869 357 826 c 0
 357 782 325 749 275 743 c 0xb8
85 62 m 0
 124 64 173 65 223 66 c 1
 227 129 232 266 228 405 c 0
 224 500 228 538 230 584 c 1
 176 585 126 585 94 584 c 0
 61 583 46 601 46 621 c 0
 45 641 59 661 93 662 c 0
 230 666 355 666 463 655 c 0
 495 652 505 635 506 617 c 0xa4
 506 597 494 566 461 572 c 0
 436 576 383 579 324 582 c 1
 323 528 320 459 323 350 c 0
 326 236 318 138 318 67 c 1xc4
 387 67 447 66 468 66 c 0
 500 66 507 49 508 31 c 0
 508 11 501 -15 468 -10 c 0
 396 0 166 -13 87 -13 c 0
 54 -13 39 1 39 21 c 0
 38 41 50 60 85 62 c 0
EndSplineSet
Validated: 33
EndChar

StartChar: dotlessi
Encoding: 305 305 217
Width: 550
GlyphClass: 2
Flags: MW
HStem: -16 81<106 144.5> 378 76<124.5 136 123 137 123 254>
VStem: 250 86
LayerCount: 2
Fore
SplineSet
106 65 m 2
 251 65 l 1
 251 88 251 108 250 138 c 0
 247 222 251 297 254 378 c 1
 221 382 185 376 137 378 c 0
 112 378 100 396 100 413 c 0
 99 434 110 454 136 454 c 0
 173 457 229 461 294 459 c 0
 335 460 342 416 342 405 c 0
 332 280 336 187 342 65 c 1
 459 65 l 2
 491 65 497 47 497 28 c 0
 496 9 488 -11 457 -11 c 0
 415 -11 184 -16 105 -16 c 0
 72 -16 65 6 66 26 c 0
 66 46 73 65 106 65 c 2
EndSplineSet
Validated: 33
EndChar

StartChar: Jcircumflex
Encoding: 308 308 218
Width: 550
GlyphClass: 2
Flags: MW
HStem: -33 95<202.5 264.5 202.5 293.5> 580 82 583 79
VStem: 44 83 65 429 289 85
LayerCount: 2
Fore
SplineSet
429 744 m 0xa8
 415 747 343 900 281 971 c 1
 226 903 147 749 130 744 c 0
 98 736 80 743 70 760 c 0
 59 776 66 793 85 820 c 0
 117 866 215 1008 249 1058 c 0
 255 1067 268 1067 279 1067 c 0
 289 1067 300 1066 307 1058 c 0
 342 1013 426 874 458 826 c 0
 477 798 502 773 491 757 c 0
 481 740 463 737 429 744 c 0xa8
103 662 m 0
 240 666 365 666 473 655 c 0
 505 652 515 635 516 617 c 0xa4
 516 597 504 566 471 572 c 0
 451 575 414 578 370 580 c 1xc4
 371 485 383 318 374 201 c 0
 360 29 323 -33 264 -33 c 0
 131 -33 49 121 44 160 c 0
 41 183 42 224 81 230 c 0
 111 235 127 215 127 192 c 0
 127 163 152 62 253 62 c 0
 276 62 288 123 291 224 c 0
 293 283 286 379 289 583 c 1xb4
 218 585 145 585 104 584 c 0
 71 583 56 601 56 621 c 0
 55 641 69 661 103 662 c 0
EndSplineSet
Validated: 33
EndChar

StartChar: jcircumflex
Encoding: 309 309 219
Width: 550
GlyphClass: 2
Flags: MW
HStem: -268 84<103.5 167 101 185> 371 86
VStem: 100 429 333 87<-74 8>
LayerCount: 2
Fore
SplineSet
464 534 m 0xe0
 450 537 378 690 316 761 c 1
 261 693 182 539 165 534 c 0
 133 526 115 533 105 550 c 0
 94 566 101 583 120 610 c 0
 152 656 250 798 284 848 c 0
 290 857 303 857 314 857 c 0
 324 857 335 856 342 848 c 0
 377 803 461 664 493 616 c 0
 512 588 537 563 526 547 c 0
 516 530 498 527 464 534 c 0xe0
333 -13 m 0xd0
 333 29 319 162 328 371 c 1
 298 369 177 371 136 371 c 0
 106 371 88 395 89 417 c 0
 89 435 107 451 135 452 c 0
 167 454 311 459 374 457 c 0
 415 458 422 414 422 403 c 0
 418 371 414 357 414 328 c 0
 414 266 420 102 420 -25 c 0
 420 -217 254 -268 116 -268 c 0
 91 -268 71 -256 71 -231 c 0
 71 -206 91 -184 111 -184 c 0
 223 -184 333 -135 333 -13 c 0xd0
EndSplineSet
Validated: 33
EndChar

StartChar: Kcommaaccent
Encoding: 310 310 220
Width: 550
GlyphClass: 2
Flags: MW
HStem: -552 1220
VStem: 39 92 39 96
LayerCount: 2
Fore
SplineSet
419 4 m 0xa0
 393 36 203 198 131 284 c 1
 131 265 l 2
 134 161 137 83 139 23 c 0
 136 -5 109 -21 84 -20 c 0xc0
 61 -20 40 -4 43 28 c 0
 47 81 45 262 39 425 c 0
 35 519 40 570 41 617 c 0
 42 653 64 668 87 668 c 0
 112 669 135 656 135 620 c 0
 135 572 131 491 130 396 c 1
 231 494 366 627 391 649 c 0
 418 675 440 671 454 657 c 0
 468 642 470 621 446 592 c 0
 428 571 288 429 196 340 c 1
 279 253 484 74 498 41 c 0
 507 19 495 -3 481 -12 c 0
 462 -25 440 -22 419 4 c 0xa0
328 -260 m 0
 318 -309 265 -486 240 -519 c 0
 219 -547 183 -557 164 -550 c 0
 145 -545 126 -520 144 -493 c 0
 172 -452 231 -280 240 -237 c 0
 246 -209 277 -205 297 -211 c 0
 314 -216 333 -233 328 -260 c 0
EndSplineSet
Validated: 33
EndChar

StartChar: kcommaaccent
Encoding: 311 311 221
Width: 550
GlyphClass: 2
Flags: MW
HStem: -20 518
VStem: 83 95<633.5 688>
LayerCount: 2
Fore
SplineSet
419 4 m 0
 398 34 280 164 248 243 c 1
 219 218 192 194 172 176 c 0
 171 175 171 175 170 175 c 0
 169 109 177 64 175 30 c 0
 173 -11 149 -23 122 -21 c 0
 102 -20 75 -8 78 28 c 0
 88 150 83 534 83 671 c 0
 83 705 108 718 133 718 c 0
 156 718 178 706 178 672 c 0
 178 595 175 421 172 291 c 1
 265 375 367 456 391 479 c 0
 418 505 440 501 454 487 c 0
 468 472 470 451 446 422 c 0
 433 407 374 354 311 299 c 1
 356 219 501 53 502 35 c 0
 504 12 495 -3 481 -12 c 0
 462 -25 439 -25 419 4 c 0
359 -258 m 0
 349 -307 296 -484 271 -517 c 0
 250 -545 214 -555 195 -548 c 0
 176 -543 157 -518 175 -491 c 0
 203 -450 262 -278 271 -235 c 0
 277 -207 308 -203 328 -209 c 0
 345 -214 364 -231 359 -258 c 0
EndSplineSet
Validated: 33
EndChar

StartChar: Lacute
Encoding: 313 313 222
Width: 550
GlyphClass: 2
Flags: MW
HStem: -14 81 740 248
VStem: 43 96 69 93 163 224
LayerCount: 2
Fore
SplineSet
376 912 m 0xc8
 336 858 276 797 240 761 c 0
 215 736 185 735 171 749 c 0
 156 762 161 794 185 817 c 0
 229 857 271 923 306 971 c 0
 324 993 359 993 376 979 c 0
 388 966 393 935 376 912 c 0xc8
466 9 m 0
 365 -10 111 -14 84 -14 c 0xa0
 61 -14 40 2 43 34 c 0
 47 92 61 177 69 333 c 0
 73 419 67 566 68 609 c 0
 69 645 91 660 114 660 c 0
 139 661 162 648 162 612 c 0x90
 162 551 156 433 152 297 c 0
 149 208 139 144 139 67 c 1xa0
 254 66 420 85 460 95 c 0
 491 103 505 70 506 50 c 0
 506 30 499 15 466 9 c 0
EndSplineSet
Validated: 33
EndChar

StartChar: lacute
Encoding: 314 314 223
Width: 550
GlyphClass: 2
Flags: MW
HStem: -5 76 -5 84<78 115 78 133.5> 625 81<117.5 156.5> 840 248
VStem: 169 224 242 83
LayerCount: 2
Fore
SplineSet
382 1012 m 0x78
 342 958 282 897 246 861 c 0
 221 836 191 835 177 849 c 0
 162 862 167 894 191 917 c 0
 235 957 277 1023 312 1071 c 0
 330 1093 365 1093 382 1079 c 0
 394 1066 399 1035 382 1012 c 0x78
94 79 m 0
 136 79 187 78 238 77 c 1
 238 95 238 114 237 138 c 0x64
 234 231 238 489 242 627 c 1
 212 625 181 625 132 625 c 0
 103 625 90 648 91 669 c 0
 91 688 103 706 131 706 c 0
 257 706 244 711 307 709 c 0
 315 709 321 704 324 695 c 1
 332 692 336 687 336 680 c 0
 328 634 325 372 325 331 c 0
 325 262 325 238 326 175 c 0
 326 136 327 107 328 74 c 1
 392 73 444 71 461 71 c 0
 499 71 507 53 508 35 c 0xa4
 509 14 500 -8 459 -8 c 0
 424 -8 174 -5 93 -5 c 0
 63 -5 53 15 53 35 c 0
 52 57 62 79 94 79 c 0
EndSplineSet
Validated: 33
EndChar

StartChar: Lcommaaccent
Encoding: 315 315 224
Width: 550
GlyphClass: 2
Flags: MW
HStem: -14 81
VStem: 43 96 69 93
LayerCount: 2
Fore
SplineSet
466 9 m 0xa0
 365 -10 111 -14 84 -14 c 0xc0
 61 -14 40 2 43 34 c 0
 47 92 61 177 69 333 c 0
 73 419 67 566 68 609 c 0
 69 645 91 660 114 660 c 0
 139 661 162 648 162 612 c 0xa0
 162 551 156 433 152 297 c 0
 149 208 139 144 139 67 c 1xc0
 254 66 420 85 460 95 c 0
 491 103 505 70 506 50 c 0
 506 30 499 15 466 9 c 0xa0
363 -266 m 0
 353 -315 300 -492 275 -525 c 0
 254 -553 218 -563 199 -556 c 0
 180 -551 161 -526 179 -499 c 0
 207 -458 266 -286 275 -243 c 0
 281 -215 312 -211 332 -217 c 0
 349 -222 368 -239 363 -266 c 0
EndSplineSet
Validated: 33
EndChar

StartChar: lcommaaccent
Encoding: 316 316 225
Width: 550
GlyphClass: 2
Flags: MW
HStem: -5 76 -5 84<78 115 78 133.5> 625 81<117.5 156.5>
VStem: 242 83
LayerCount: 2
Fore
SplineSet
94 79 m 0x70
 136 79 187 78 238 77 c 1
 238 95 238 114 237 138 c 0x70
 234 231 238 489 242 627 c 1
 212 625 181 625 132 625 c 0
 103 625 90 648 91 669 c 0
 91 688 103 706 131 706 c 0
 257 706 244 711 307 709 c 0
 315 709 321 704 324 695 c 1
 332 692 336 687 336 680 c 0
 328 634 325 372 325 331 c 0
 325 262 325 238 326 175 c 0
 326 136 327 107 328 74 c 1
 392 73 444 71 461 71 c 0
 499 71 507 53 508 35 c 0xb0
 509 14 500 -8 459 -8 c 0
 424 -8 174 -5 93 -5 c 0
 63 -5 53 15 53 35 c 0
 52 57 62 79 94 79 c 0x70
370 -272 m 0
 360 -321 307 -498 282 -531 c 0
 261 -559 225 -569 206 -562 c 0
 187 -557 168 -532 186 -505 c 0
 214 -464 273 -292 282 -249 c 0
 288 -221 319 -217 339 -223 c 0
 356 -228 375 -245 370 -272 c 0
EndSplineSet
Validated: 33
EndChar

StartChar: Nacute
Encoding: 323 323 226
Width: 550
GlyphClass: 2
Flags: MW
HStem: 740 248
VStem: 45 80 163 224 426 62
LayerCount: 2
Fore
SplineSet
376 912 m 0
 336 858 276 797 240 761 c 0
 215 736 185 735 171 749 c 0
 156 762 161 794 185 817 c 0
 229 857 271 923 306 971 c 0
 324 993 359 993 376 979 c 0
 388 966 393 935 376 912 c 0
488 10 m 0
 480 -8 457 -13 436 -13 c 0
 411 -14 396 -2 390 12 c 0
 361 76 188 350 125 526 c 1
 137 350 120 103 123 46 c 0
 125 4 102 -12 79 -11 c 0
 52 -10 45 14 45 51 c 0
 45 119 57 476 50 598 c 0
 47 650 85 662 116 658 c 0
 134 658 158 653 167 624 c 0
 196 533 359 239 426 129 c 1
 430 252 429 529 419 606 c 0
 415 637 434 659 458 659 c 0
 494 659 497 643 502 608 c 0
 506 583 509 61 488 10 c 0
EndSplineSet
Validated: 33
EndChar

StartChar: nacute
Encoding: 324 324 227
Width: 600
GlyphClass: 2
Flags: MW
HStem: 390 87<316 367> 530 248
VStem: 93 91 105 92 170 14 193 224
LayerCount: 2
Fore
SplineSet
406 702 m 0xe4
 366 648 306 587 270 551 c 0
 245 526 215 525 201 539 c 0
 186 552 191 584 215 607 c 0
 259 647 301 713 336 761 c 0
 354 783 389 783 406 769 c 0
 418 756 423 725 406 702 c 0xe4
200 427 m 0x90
 199 417 198 407 197 396 c 1x90
 223 436 275 477 357 477 c 0
 446 477 487 407 490 297 c 0
 493 195 514 107 518 35 c 0
 520 -7 500 -21 478 -21 c 0
 454 -22 428 -8 425 35 c 0
 420 93 408 169 404 255 c 0
 399 358 390 390 344 390 c 0
 262 390 211 322 186 274 c 1
 184 242 183 209 184 175 c 0
 184 116 195 62 195 28 c 0
 195 -12 169 -23 144 -21 c 0
 124 -20 105 -8 103 28 c 0
 102 50 95 91 93 138 c 0xa0
 89 242 103 346 105 426 c 0
 106 468 135 482 159 481 c 0
 182 481 204 469 200 427 c 0x90
170 229 m 1x88
 170 231 l 1
 170 229 l 1x88
EndSplineSet
Validated: 33
EndChar

StartChar: Ncommaaccent
Encoding: 325 325 228
Width: 550
GlyphClass: 2
Flags: MW
HStem: -559 1218
VStem: 45 80 426 62
LayerCount: 2
Fore
SplineSet
488 10 m 0
 480 -8 457 -13 436 -13 c 0
 411 -14 396 -2 390 12 c 0
 361 76 188 350 125 526 c 1
 137 350 120 103 123 46 c 0
 125 4 102 -12 79 -11 c 0
 52 -10 45 14 45 51 c 0
 45 119 57 476 50 598 c 0
 47 650 85 662 116 658 c 0
 134 658 158 653 167 624 c 0
 196 533 359 239 426 129 c 1
 430 252 429 529 419 606 c 0
 415 637 434 659 458 659 c 0
 494 659 497 643 502 608 c 0
 506 583 509 61 488 10 c 0
374 -267 m 0
 364 -316 311 -493 286 -526 c 0
 265 -554 229 -564 210 -557 c 0
 191 -552 172 -527 190 -500 c 0
 218 -459 277 -287 286 -244 c 0
 292 -216 323 -212 343 -218 c 0
 360 -223 379 -240 374 -267 c 0
EndSplineSet
Validated: 33
EndChar

StartChar: ncommaaccent
Encoding: 326 326 229
Width: 600
GlyphClass: 2
Flags: MW
HStem: 390 87<316 367>
VStem: 93 91 105 92 170 14
LayerCount: 2
Fore
SplineSet
200 427 m 0xa0
 199 417 198 407 197 396 c 1xa0
 223 436 275 477 357 477 c 0
 446 477 487 407 490 297 c 0
 493 195 514 107 518 35 c 0
 520 -7 500 -21 478 -21 c 0
 454 -22 428 -8 425 35 c 0
 420 93 408 169 404 255 c 0
 399 358 390 390 344 390 c 0
 262 390 211 322 186 274 c 1
 184 242 183 209 184 175 c 0
 184 116 195 62 195 28 c 0
 195 -12 169 -23 144 -21 c 0
 124 -20 105 -8 103 28 c 0
 102 50 95 91 93 138 c 0xc0
 89 242 103 346 105 426 c 0
 106 468 135 482 159 481 c 0
 182 481 204 469 200 427 c 0xa0
170 229 m 1x90
 170 231 l 1
 170 229 l 1x90
404 -259 m 0
 394 -308 341 -485 316 -518 c 0
 295 -546 259 -556 240 -549 c 0
 221 -544 202 -519 220 -492 c 0
 248 -451 307 -279 316 -236 c 0
 322 -208 353 -204 373 -210 c 0
 390 -215 409 -232 404 -259 c 0
EndSplineSet
Validated: 33
EndChar

StartChar: Ncaron
Encoding: 327 327 230
Width: 550
GlyphClass: 2
Flags: MW
HStem: -13 957<270.5 446.5>
VStem: 45 80 63 424 426 62
LayerCount: 2
Fore
SplineSet
414 750 m 0xa0
 381 769 334 800 275 846 c 1
 216 800 169 769 136 750 c 0
 106 733 77 740 67 757 c 0
 56 773 69 803 98 819 c 0
 148 845 201 899 246 935 c 0
 255 942 265 944 276 944 c 0
 286 944 296 941 304 935 c 0
 349 899 402 845 452 819 c 0
 481 803 494 773 483 757 c 0
 473 740 444 733 414 750 c 0xa0
488 10 m 0xd0
 480 -8 457 -13 436 -13 c 0
 411 -14 396 -2 390 12 c 0
 361 76 188 350 125 526 c 1
 137 350 120 103 123 46 c 0
 125 4 102 -12 79 -11 c 0
 52 -10 45 14 45 51 c 0
 45 119 57 476 50 598 c 0
 47 650 85 662 116 658 c 0
 134 658 158 653 167 624 c 0
 196 533 359 239 426 129 c 1
 430 252 429 529 419 606 c 0
 415 637 434 659 458 659 c 0
 494 659 497 643 502 608 c 0
 506 583 509 61 488 10 c 0xd0
EndSplineSet
Validated: 33
EndChar

StartChar: ncaron
Encoding: 328 328 231
Width: 600
GlyphClass: 2
Flags: MW
HStem: 390 87<316 367>
VStem: 93 91 93 424 105 92 170 14
LayerCount: 2
Fore
SplineSet
444 540 m 0xa0
 411 559 364 590 305 636 c 1
 246 590 199 559 166 540 c 0
 136 523 107 530 97 547 c 0
 86 563 99 593 128 609 c 0
 178 635 231 689 276 725 c 0
 285 732 295 734 306 734 c 0
 316 734 326 731 334 725 c 0
 379 689 432 635 482 609 c 0
 511 593 524 563 513 547 c 0
 503 530 474 523 444 540 c 0xa0
200 427 m 0x90
 199 417 198 407 197 396 c 1x90
 223 436 275 477 357 477 c 0
 446 477 487 407 490 297 c 0
 493 195 514 107 518 35 c 0
 520 -7 500 -21 478 -21 c 0
 454 -22 428 -8 425 35 c 0
 420 93 408 169 404 255 c 0
 399 358 390 390 344 390 c 0
 262 390 211 322 186 274 c 1
 184 242 183 209 184 175 c 0
 184 116 195 62 195 28 c 0
 195 -12 169 -23 144 -21 c 0
 124 -20 105 -8 103 28 c 0
 102 50 95 91 93 138 c 0xc0
 89 242 103 346 105 426 c 0
 106 468 135 482 159 481 c 0
 182 481 204 469 200 427 c 0x90
170 229 m 1x88
 170 231 l 1
 170 229 l 1x88
EndSplineSet
Validated: 33
EndChar

StartChar: Omacron
Encoding: 332 332 232
Width: 550
GlyphClass: 2
Flags: MW
HStem: -23 79<245 277 205.5 305> 595 76<254 322.5> 740 82
VStem: 48 91 416 85 416 89
LayerCount: 2
Fore
SplineSet
112 822 m 0xf4
 159 822 308 821 436 825 c 0
 470 826 482 802 481 782 c 0
 481 762 468 740 435 740 c 0
 352 740 158 740 112 742 c 0
 79 743 72 765 72 785 c 0
 73 803 80 822 112 822 c 0xf4
245 -23 m 0
 128 -21 46 92 48 230 c 0
 48 311 45 429 84 532 c 0
 115 612 199 671 300 671 c 0
 399 671 489 594 501 452 c 0
 508 364 508 224 490 157 c 0xf8
 450 9 365 -23 245 -23 c 0
245 56 m 0
 309 56 377 87 402 170 c 0
 408 190 423 334 413 451 c 0
 406 532 356 595 289 595 c 0
 219 595 175 540 155 455 c 0
 139 388 136 317 139 245 c 0
 143 153 166 56 245 56 c 0
EndSplineSet
Validated: 33
EndChar

StartChar: omacron
Encoding: 333 333 233
Width: 550
GlyphClass: 2
Flags: MW
HStem: -25 79 416 73<232.5 308> 530 82
VStem: 57 96 392 94
LayerCount: 2
Fore
SplineSet
107 612 m 0
 154 612 303 611 431 615 c 0
 465 616 477 592 476 572 c 0
 476 552 463 530 430 530 c 0
 347 530 153 530 107 532 c 0
 74 533 67 555 67 575 c 0
 68 593 75 612 107 612 c 0
255 -25 m 0
 130 -23 55 96 57 224 c 0
 57 373 135 489 283 489 c 0
 392 489 498 413 486 209 c 0
 477 61 413 -27 255 -25 c 0
275 54 m 0
 353 50 388 126 392 225 c 0
 397 363 346 416 270 416 c 0
 195 416 159 341 153 226 c 0
 150 129 172 59 275 54 c 0
EndSplineSet
Validated: 33
EndChar

StartChar: Obreve
Encoding: 334 334 234
Width: 550
GlyphClass: 2
Flags: MW
HStem: -23 79<245 277 205.5 305> 595 76<254 322.5> 740 72<238.5 309.5 238.5 320>
VStem: 48 91 416 85 416 89
LayerCount: 2
Fore
SplineSet
118 886 m 0xf4
 150 881 203 812 274 812 c 0
 345 812 367 839 426 879 c 0
 455 898 477 876 476 856 c 0
 476 836 470 822 446 799 c 0
 414 768 365 740 275 740 c 0
 185 740 130 785 109 801 c 0
 83 821 78 836 78 856 c 0
 79 874 87 891 118 886 c 0xf4
245 -23 m 0
 128 -21 46 92 48 230 c 0
 48 311 45 429 84 532 c 0
 115 612 199 671 300 671 c 0
 399 671 489 594 501 452 c 0
 508 364 508 224 490 157 c 0xf8
 450 9 365 -23 245 -23 c 0
245 56 m 0
 309 56 377 87 402 170 c 0
 408 190 423 334 413 451 c 0
 406 532 356 595 289 595 c 0
 219 595 175 540 155 455 c 0
 139 388 136 317 139 245 c 0
 143 153 166 56 245 56 c 0
EndSplineSet
Validated: 33
EndChar

